<?xml version="1.0" encoding="utf-8"?>
<!-- Generator: Adobe Illustrator 15.0.0, SVG Export Plug-In . SVG Version: 6.00 Build 0)  -->
<!DOCTYPE svg PUBLIC "-//W3C//DTD SVG 1.1//EN" "http://www.w3.org/Graphics/SVG/1.1/DTD/svg11.dtd">
<svg version="1.1" id="Layer_1" xmlns="http://www.w3.org/2000/svg" xmlns:xlink="http://www.w3.org/1999/xlink" x="0px" y="0px"
	 width="595.28px" height="841.89px" viewBox="0 0 595.28 841.89" enable-background="new 0 0 595.28 841.89" xml:space="preserve">
<path fill="#73A3D9" d="M293.143,458.968l5.384-2.269v4.538L293.143,458.968z M291.108,458.267v1.313l12.676,5.42v-1.548
	l-3.817-1.603v-5.744l3.817-1.62v-1.639L291.108,458.267z"/>
<g>
	<defs>
		<rect id="SVGID_1_" x="291" y="376.042" width="12.964" height="88.958"/>
	</defs>
	<clipPath id="SVGID_2_">
		<use xlink:href="#SVGID_1_"  overflow="visible"/>
	</clipPath>
	<path clip-path="url(#SVGID_2_)" fill="#73A3D9" d="M291.198,450.689c-0.017-0.702-0.072-2.286-0.072-3.457
		c0-3.007,1.369-4.051,3.115-4.051c1.585,0,2.521,0.954,2.917,2.16h0.036c0.252-1.566,1.26-2.61,2.988-2.61
		c2.558,0,3.655,1.963,3.655,4.574c0,1.115-0.036,2.646-0.071,3.384H291.198z M292.621,449.159h4.069v-2.017
		c0-1.332-0.738-2.431-2.107-2.431c-1.314,0-2.017,0.882-2.017,2.557C292.566,447.935,292.603,448.709,292.621,449.159
		 M298.04,449.159h4.286c0.035-0.414,0.071-1.225,0.071-1.945c0-1.854-0.756-2.952-2.305-2.952c-1.332,0-2.053,1.044-2.053,2.862
		V449.159z"/>
	<path clip-path="url(#SVGID_2_)" fill="#73A3D9" d="M291,434.146c0-3.655,2.647-6.429,6.482-6.429c3.745,0,6.481,2.773,6.481,6.429
		c0,3.654-2.646,6.428-6.481,6.428C293.828,440.574,291,437.891,291,434.146 M302.523,434.146c0-2.882-2.196-4.809-5.041-4.809
		c-2.935,0-5.042,2.107-5.042,4.809c0,2.736,2.107,4.807,5.042,4.807C300.345,438.953,302.523,436.847,302.523,434.146"/>
	<path clip-path="url(#SVGID_2_)" fill="#73A3D9" d="M298.526,415.011c3.854,0,5.42,2.305,5.42,4.879
		c0,3.025-1.854,5.222-5.546,5.222h-7.22v-1.53h6.932c2.737,0,4.394-1.332,4.394-3.691c0-2.07-1.423-3.349-4.285-3.349h-7.041v-1.53
		H298.526z"/>
	<polygon clip-path="url(#SVGID_2_)" fill="#73A3D9" points="291.181,413.124 291.181,402.771 292.621,402.771 292.621,407.183 
		303.785,407.183 303.785,408.713 292.621,408.713 292.621,413.124 	"/>
	<path clip-path="url(#SVGID_2_)" fill="#73A3D9" d="M298.526,386.733c3.854,0,5.42,2.305,5.42,4.879
		c0,3.025-1.854,5.222-5.546,5.222h-7.22v-1.53h6.932c2.737,0,4.394-1.333,4.394-3.692c0-2.07-1.423-3.349-4.285-3.349h-7.041v-1.53
		H298.526z"/>
	<path clip-path="url(#SVGID_2_)" fill="#73A3D9" d="M294.295,383.82c-1.818,0-3.295-1.404-3.295-3.799
		c0-1.458,0.523-2.755,1.315-3.475l1.152,0.828c-0.666,0.666-1.026,1.459-1.026,2.557c0,1.405,0.738,2.269,1.854,2.269
		c3.115,0,1.945-6.158,6.248-6.158c2.071,0,3.421,1.819,3.421,4.105c0,1.548-0.702,3.349-1.891,3.979l-1.044-0.882
		c0.973-0.738,1.494-2.052,1.494-3.115c0-1.314-0.684-2.467-1.962-2.467C297.482,377.662,298.473,383.82,294.295,383.82"/>
</g>
</svg>
