<?xml version="1.0" encoding="utf-8"?>
<!-- Generator: Adobe Illustrator 15.0.0, SVG Export Plug-In . SVG Version: 6.00 Build 0)  -->
<!DOCTYPE svg PUBLIC "-//W3C//DTD SVG 1.1//EN" "http://www.w3.org/Graphics/SVG/1.1/DTD/svg11.dtd">
<svg version="1.1" id="Layer_1" xmlns="http://www.w3.org/2000/svg" xmlns:xlink="http://www.w3.org/1999/xlink" x="0px" y="0px"
	 width="595.28px" height="841.89px" viewBox="0 0 595.28 841.89" enable-background="new 0 0 595.28 841.89" xml:space="preserve">
<path fill="#73A3D9" d="M282.143,471.857l5.384-2.269v4.538L282.143,471.857z M280.108,471.156v1.313l12.676,5.42v-1.548
	l-3.817-1.603v-5.744l3.817-1.62v-1.639L280.108,471.156z"/>
<path fill="#73A3D9" d="M280.181,463.579v-0.216c0-0.828-0.055-2.196-0.055-3.224c0-5.041,2.899-7.076,6.194-7.076
	c3.583,0,6.5,2.413,6.5,7.221c0,0.847-0.036,2.035-0.036,3.098v0.197H280.181z M281.621,462.049h9.723
	c0.017-0.829,0.036-1.603,0.036-1.819c0-3.601-2.125-5.545-5.06-5.545c-2.737,0-4.754,1.836-4.754,5.491
	C281.566,460.932,281.602,461.419,281.621,462.049"/>
<path fill="#73A3D9" d="M280.181,450.277v-0.216c0-0.828-0.055-2.196-0.055-3.224c0-5.041,2.899-7.076,6.194-7.076
	c3.583,0,6.5,2.413,6.5,7.221c0,0.847-0.036,2.034-0.036,3.098v0.197H280.181z M281.621,448.747h9.723
	c0.017-0.829,0.036-1.603,0.036-1.819c0-3.601-2.125-5.545-5.06-5.545c-2.737,0-4.754,1.836-4.754,5.491
	C281.566,447.63,281.602,448.117,281.621,448.747"/>
<rect x="280.181" y="435.085" fill="#73A3D9" width="12.604" height="1.53"/>
<polygon fill="#73A3D9" points="280.181,432.656 280.181,422.303 281.621,422.303 281.621,426.714 292.785,426.714 292.785,428.245 
	281.621,428.245 281.621,432.656 "/>
<rect x="280.181" y="418.346" fill="#73A3D9" width="12.604" height="1.531"/>
<path fill="#73A3D9" d="M280,408.769c0-3.655,2.647-6.428,6.482-6.428c3.745,0,6.481,2.773,6.481,6.428s-2.646,6.428-6.481,6.428
	C282.828,415.197,280,412.514,280,408.769 M291.523,408.769c0-2.881-2.196-4.808-5.041-4.808c-2.935,0-5.042,2.107-5.042,4.808
	c0,2.737,2.107,4.807,5.042,4.807C289.344,413.576,291.523,411.47,291.523,408.769"/>
<polygon fill="#73A3D9" points="292.784,390.246 282.881,398.114 292.784,398.114 292.784,399.555 280.18,399.555 280.18,398.33 
	290.119,390.461 280.18,390.461 280.18,389.021 292.784,389.021 "/>
<path fill="#73A3D9" d="M280.108,381.444v-1.314l12.676-5.42v1.639l-3.818,1.621v5.743l3.818,1.603v1.548L280.108,381.444z
	 M287.526,383.102v-4.538l-5.384,2.269L287.526,383.102z"/>
<polygon fill="#73A3D9" points="280.181,372.554 280.181,371.024 291.344,371.024 291.344,364.812 292.785,364.812 292.785,372.554 
	"/>
<path fill="#73A3D9" d="M304.895,444.806c-1.818,0-3.295-1.404-3.295-3.799c0-1.458,0.522-2.755,1.314-3.476l1.152,0.828
	c-0.666,0.666-1.026,1.459-1.026,2.558c0,1.404,0.738,2.269,1.854,2.269c3.115,0,1.945-6.158,6.248-6.158
	c2.071,0,3.421,1.819,3.421,4.105c0,1.548-0.702,3.349-1.891,3.979l-1.044-0.882c0.973-0.738,1.494-2.052,1.494-3.115
	c0-1.313-0.684-2.467-1.962-2.467C308.082,438.647,309.072,444.806,304.895,444.806"/>
<polygon fill="#73A3D9" points="301.78,434.24 301.78,427.128 303.221,427.128 303.221,432.71 307.29,432.71 307.29,427.668 
	308.73,427.668 308.73,432.71 312.943,432.71 312.943,426.947 314.385,426.947 314.385,434.24 "/>
<path fill="#73A3D9" d="M314.384,423.89H301.78c0-0.702-0.036-3.025-0.036-3.384c0-3.439,1.71-4.484,3.745-4.484
	c1.963,0,3.205,1.35,3.564,2.737l5.33-4.195v1.872l-5.041,3.871v2.053h5.041V423.89z M303.221,422.359h4.681v-1.854
	c0-1.459-0.899-2.863-2.395-2.863c-1.296,0-2.322,0.719-2.322,2.952C303.185,420.99,303.202,421.765,303.221,422.359"/>
<polygon fill="#73A3D9" points="314.456,408.318 314.456,409.452 301.78,414.764 301.78,413.126 312.151,408.84 301.78,404.681 
	301.78,403.132 "/>
<rect x="301.78" y="399.266" fill="#73A3D9" width="12.604" height="1.531"/>
<path fill="#73A3D9" d="M313.159,385.746c0.864,0.846,1.404,2.413,1.404,3.979c0,3.781-2.557,6.392-6.481,6.392
	c-3.619,0-6.482-2.341-6.482-6.284c0-1.62,0.45-2.935,1.225-3.835l1.152,0.703c-0.612,0.828-0.937,1.8-0.937,3.114
	c0,2.737,2.053,4.682,5.042,4.682c3.007,0,5.041-1.999,5.041-4.916c0-1.206-0.414-2.358-1.116-3.223L313.159,385.746z"/>
<polygon fill="#73A3D9" points="301.78,383.319 301.78,376.207 303.221,376.207 303.221,381.789 307.29,381.789 307.29,376.747 
	308.73,376.747 308.73,381.789 312.943,381.789 312.943,376.027 314.385,376.027 314.385,383.319 "/>
<path fill="#73A3D9" d="M304.895,373.653c-1.818,0-3.295-1.404-3.295-3.799c0-1.458,0.522-2.755,1.314-3.475l1.152,0.828
	c-0.666,0.667-1.026,1.459-1.026,2.557c0,1.405,0.738,2.269,1.854,2.269c3.115,0,1.945-6.158,6.248-6.158
	c2.071,0,3.421,1.819,3.421,4.105c0,1.548-0.702,3.349-1.891,3.979l-1.044-0.882c0.973-0.738,1.494-2.052,1.494-3.115
	c0-1.314-0.684-2.467-1.962-2.467C308.082,367.495,309.072,373.653,304.895,373.653"/>
</svg>
