<?xml version="1.0" encoding="utf-8"?>
<!-- Generator: Adobe Illustrator 15.0.0, SVG Export Plug-In . SVG Version: 6.00 Build 0)  -->
<!DOCTYPE svg PUBLIC "-//W3C//DTD SVG 1.1//EN" "http://www.w3.org/Graphics/SVG/1.1/DTD/svg11.dtd">
<svg version="1.1" id="Layer_1" xmlns="http://www.w3.org/2000/svg" xmlns:xlink="http://www.w3.org/1999/xlink" x="0px" y="0px"
	 width="595.28px" height="841.89px" viewBox="0 0 595.28 841.89" enable-background="new 0 0 595.28 841.89" xml:space="preserve">
<path fill="#FFFFFF" d="M-199.371,375.919l24.321,61.74h-48.954L-199.371,375.919z M-220.262,311.997L-311,530.267h50.202
	l18.085-45.836h86.373l18.084,45.836h53.321l-90.738-218.27H-220.262z"/>
<path fill="#FFFFFF" d="M-56.873,311.998h4.365c11.537,0,50.202-0.936,64.546-0.936c87.307,0,122.542,50.202,122.542,108.199
	c0,61.115-41.783,111.629-125.037,111.629c-11.537,0-40.224-0.623-61.115-0.623h-5.301V311.998z M-6.983,358.769v124.727
	c6.548,0.623,10.914,0.623,18.085,0.623c43.03,0,70.47-23.386,70.47-64.857c0-40.223-29.622-61.427-70.158-61.427
	C6.113,357.833-0.747,357.833-6.983,358.769"/>
<polygon fill="#FFFFFF" points="260.239,530.267 221.887,530.267 134.579,311.997 187.898,311.997 242.778,456.056 295.163,311.997 
	345.364,311.997 "/>
<polygon fill="#FFFFFF" points="370.309,311.997 499.712,311.997 499.712,358.768 420.198,358.768 420.198,397.122 490.356,397.122 
	490.356,443.895 420.198,443.895 420.198,483.495 502.83,483.495 502.83,530.267 370.309,530.267 "/>
<path fill="#FFFFFF" d="M549.602,530.267V311.998c12.161,0,67.976-0.624,74.212-0.624c59.557,0,80.76,29.623,80.76,69.846
	c0,40.535-24.945,57.062-36.794,62.987l63.609,86.06h-60.492l-53.008-76.395h-18.396v76.395H549.602z M599.492,358.769v48.332
	h18.085c19.021,0,33.987-6.86,33.987-25.258c0-12.16-6.236-23.697-30.246-23.697C613.836,358.146,609.782,358.458,599.492,358.769"
	/>
<polygon fill="#FFFFFF" points="725.151,311.997 906.003,311.997 906.003,358.768 840.522,358.768 840.522,530.267 790.632,530.267 
	790.632,358.768 725.151,358.768 "/>
</svg>
