<?xml version="1.0" encoding="utf-8"?>
<!-- Generator: Adobe Illustrator 15.0.0, SVG Export Plug-In . SVG Version: 6.00 Build 0)  -->
<!DOCTYPE svg PUBLIC "-//W3C//DTD SVG 1.1//EN" "http://www.w3.org/Graphics/SVG/1.1/DTD/svg11.dtd">
<svg version="1.1" id="Layer_1" xmlns="http://www.w3.org/2000/svg" xmlns:xlink="http://www.w3.org/1999/xlink" x="0px" y="0px"
	 width="595.28px" height="841.89px" viewBox="0 0 595.28 841.89" enable-background="new 0 0 595.28 841.89" xml:space="preserve">
<g>
	<defs>
		<rect id="SVGID_1_" x="233" y="353.994" width="129.895" height="133.896"/>
	</defs>
	<clipPath id="SVGID_2_">
		<use xlink:href="#SVGID_1_"  overflow="visible"/>
	</clipPath>
	<path clip-path="url(#SVGID_2_)" fill="#00007F" d="M311.427,411.957c0-7.396-6.016-13.41-13.425-13.41
		c-7.388,0-13.414,6.014-13.414,13.41c0,7.401,6.026,13.429,13.414,13.429C305.411,425.386,311.427,419.358,311.427,411.957
		 M291.455,411.957c0-3.604,2.936-6.543,6.547-6.543c3.615,0,6.54,2.939,6.54,6.543c0,3.61-2.925,6.547-6.54,6.547
		C294.391,418.504,291.455,415.567,291.455,411.957"/>
	<path clip-path="url(#SVGID_2_)" fill="#00007F" d="M331.266,443.213l8.575,8.611c-8.859,8.109-18.235,13.088-28.53,15.156
		c-3.729,0.743-6.769,2.163-9.186,3.743v-13.642h8.666v-8.307h-4.48c6.646-9.951,17.336-27.419,17.336-36.818
		c0-12.733-9.325-23.296-21.521-25.279v-4.348l12.261-0.02l-16.422-28.316l-16.329,28.373l12.248-0.025v4.336
		c-12.178,1.983-21.521,12.546-21.521,25.279c0,9.399,10.699,26.867,17.336,36.818h-4.597v8.307h8.782v13.356
		c-2.255-1.432-4.951-2.69-8.161-3.351c-11.476-2.393-21.66-7.614-29.745-15.194l8.657-8.681L233,434.793l8.531,31.6l8.634-8.662
		c9.206,8.71,20.829,14.703,33.876,17.43c6.867,1.417,10.677,7.154,10.695,7.193l3.537,5.537l3.473-5.598
		c0.143-0.237,3.612-5.719,11.186-7.22c11.917-2.403,22.667-8.117,32.75-17.407l8.693,8.727l8.52-31.6L331.266,443.213z
		 M293.541,375.479l4.446-7.748l4.481,7.729L293.541,375.479z M298.002,394.558c9.603,0,17.396,7.808,17.396,17.399
		c0,6.682-9.612,22.981-17.396,34.396c-7.775-11.415-17.403-27.714-17.403-34.396C280.599,402.366,288.404,394.558,298.002,394.558
		 M245.064,453.119l-2.324-8.625l8.621,2.294L245.064,453.119z M350.828,453.119l-6.295-6.331l8.633-2.294L350.828,453.119z"/>
</g>
</svg>
