<?xml version="1.0" encoding="utf-8"?>
<!-- Generator: Adobe Illustrator 15.0.0, SVG Export Plug-In . SVG Version: 6.00 Build 0)  -->
<!DOCTYPE svg PUBLIC "-//W3C//DTD SVG 1.1//EN" "http://www.w3.org/Graphics/SVG/1.1/DTD/svg11.dtd">
<svg version="1.1" id="Layer_1" xmlns="http://www.w3.org/2000/svg" xmlns:xlink="http://www.w3.org/1999/xlink" x="0px" y="0px"
	 width="595.28px" height="841.89px" viewBox="0 0 595.28 841.89" enable-background="new 0 0 595.28 841.89" xml:space="preserve">
<path fill="#31556A" d="M199.202,465.929c-6.72,7.521-21.281,12.961-36.481,12.961C128,478.89,104,455.849,104,420.968
	c0-32.16,20-57.922,58.561-57.922c14.881,0,27.521,5.121,34.241,11.682l-11.36,19.199c-6.08-3.68-12.321-6.879-22.881-6.879
	c-17.28,0-31.36,11.84-31.36,33.92c0,19.84,13.76,33.922,33.92,33.922c8,0,16.801-2.561,24.321-8.16L199.202,465.929z"/>
<path fill="#31556A" d="M248.96,364.966h22.881l46.561,112.003h-27.361l-9.28-23.521H237.44l-9.281,23.521h-25.76L248.96,364.966z
	 M247.041,429.448h25.121l-12.481-31.682L247.041,429.448z"/>
<polygon fill="#31556A" points="332.798,364.966 358.399,364.966 358.399,452.968 404,452.968 404,476.97 332.798,476.97 "/>
<polygon fill="#31556A" points="419.998,364.966 445.599,364.966 445.599,452.968 491.2,452.968 491.2,476.97 419.998,476.97 "/>
</svg>
