<?xml version="1.0" encoding="utf-8"?>
<!-- Generator: Adobe Illustrator 15.0.0, SVG Export Plug-In . SVG Version: 6.00 Build 0)  -->
<!DOCTYPE svg PUBLIC "-//W3C//DTD SVG 1.1//EN" "http://www.w3.org/Graphics/SVG/1.1/DTD/svg11.dtd">
<svg version="1.1" id="Layer_1" xmlns="http://www.w3.org/2000/svg" xmlns:xlink="http://www.w3.org/1999/xlink" x="0px" y="0px"
	 width="595.28px" height="841.89px" viewBox="0 0 595.28 841.89" enable-background="new 0 0 595.28 841.89" xml:space="preserve">
<polygon fill="#00007F" points="-126,292.246 -126,550.153 -67.05,550.153 -67.05,457.306 12.164,457.306 12.164,402.041 
	-67.05,402.041 -67.05,347.511 23.217,347.511 23.217,292.246 "/>
<rect x="74.792" y="292.246" fill="#00007F" width="58.95" height="257.907"/>
<polygon fill="#00007F" points="373.219,292.246 373.219,447.727 250.897,292.246 203.737,292.246 203.737,550.153 259.003,550.153 
	259.003,395.409 381.324,550.153 428.484,550.153 428.484,292.246 "/>
<g>
	<defs>
		<rect id="SVGID_1_" x="-126" y="291.141" width="847.018" height="259.749"/>
	</defs>
	<clipPath id="SVGID_2_">
		<use xlink:href="#SVGID_1_"  overflow="visible"/>
	</clipPath>
	<path clip-path="url(#SVGID_2_)" fill="#00007F" d="M494.797,292.246h5.158c13.632,0,59.318-1.105,76.267-1.105
		c103.163,0,144.796,59.319,144.796,127.848c0,72.214-49.371,131.901-147.744,131.901c-13.632,0-47.527-0.737-72.214-0.737h-6.263
		V292.246z M553.747,347.511v147.375c7.736,0.737,12.896,0.737,21.369,0.737c50.845,0,83.268-27.634,83.268-76.636
		c0-47.529-35.002-72.582-82.899-72.582C569.221,346.406,561.116,346.406,553.747,347.511"/>
</g>
</svg>
