<?xml version="1.0" encoding="utf-8"?>
<!-- Generator: Adobe Illustrator 15.0.0, SVG Export Plug-In . SVG Version: 6.00 Build 0)  -->
<!DOCTYPE svg PUBLIC "-//W3C//DTD SVG 1.1//EN" "http://www.w3.org/Graphics/SVG/1.1/DTD/svg11.dtd">
<svg version="1.1" id="Layer_1" xmlns="http://www.w3.org/2000/svg" xmlns:xlink="http://www.w3.org/1999/xlink" x="0px" y="0px"
	 width="595.28px" height="841.89px" viewBox="0 0 595.28 841.89" enable-background="new 0 0 595.28 841.89" xml:space="preserve">
<g>
	<path fill="#E1007F" d="M297.375,348.128c-40.539,0-73.375,32.854-73.375,73.376c0,40.531,32.836,73.386,73.375,73.386
		c40.523,0,73.375-32.854,73.375-73.386C370.75,380.982,337.898,348.128,297.375,348.128"/>
	<rect x="224" y="348.127" fill="none" width="146.75" height="146.762"/>
</g>
<path fill="#FFFFFF" d="M270.629,437.814c-0.223-2.328-0.859-13.139,20.586-9.051c21.421,4.094,19.777,4.192,27.96,2.696
	c7.543-1.366,8.438-3.261,9.469-4.851c0.742-1.123,3.227-0.971,1.047,2.351c-2.184,3.311-6.258,9.545-20.34,7.978
	c-14.07-1.55-21.273-5.258-28.007-4.667c-6.719,0.587-7.945,1.456-9.047,3.592c-0.395,0.788-0.234,2.168-0.484,2.731
	C271.418,439.535,270.754,439.266,270.629,437.814"/>
<path fill="#FFFFFF" d="M275.021,366.409c3.082,2.042,7.504,2.728,11.589,3.162c4.317,0.475,10.204,0.833,14.512,0.439
	c7.246-0.658,12.949-2.127,15.602-3.923c1.801-1.235,1.191-3.351-1.711-4.729c-2.883-1.384-9.484-2.872-19.589-2.907
	c-9.547-0.041-14.688,1.084-17.805,2.172C274.508,361.716,271.543,364.099,275.021,366.409 M284.004,362.298
	c1.996-0.532,5.309-1.093,11.418-1.075c6.503,0.013,11.589,0.887,13.464,1.563c1.836,0.681,3.062,1.294,1.152,2.181
	c-1.988,0.932-6.914,1.994-12.422,2.074c-2.777,0.035-5.203-0.183-7.847-0.327c-2.641-0.147-5.106-0.506-7.434-1.559
	C280.008,364.09,282.004,362.84,284.004,362.298"/>
<path fill="#FFFFFF" d="M341.648,462.196c-0.301,0-0.508,0.144-0.66,0.241c-0.941,0.904-2.168,1.818-3.109,2.393v0.026
	c-1.254,0.734-3.16,1.54-5.805,1.54c-1.988,0-4.586-1.495-4.586-1.495c-3.789-3.171-6.098-12.62-7.414-17.019
	c-1.309-4.371-2.168-7.094-3.852-15.169c-1.012-4.886-2.375-11.138-3.406-18.183c-2.344-16.244-5.293-35.143-17.895-35.568
	c-6.648-0.22-13.132,3.023-11.589,9.194c0.57,2.293,2.488,0.202,2.308,0.224v-0.493c0-1.509,0.797-2.677,2.723-3.896
	c4.543-2.906,9.601,0.376,10.355,4.689c0.387,2.275-1.871,6.086-3.511,9.418c-0.985,2.011-1.926,3.887-2.434,5.41
	c-2.555,7.529-4.203,16.069-6.234,24.229c-1.094,4.394-2.043,7.658-4.391,14.807c-2.273,6.923-7.031,25.644-16.82,27.184
	c-1.453,0.225-5.555-0.742-5.555-3.672c0-3.215,1.059-3.207,4.453-3.207c0,0-0.012,0,0,0c-4.203-3.824-8-0.51-8,4.066
	c0,2.562,2.555,7.569,8.457,7.569c3.098,0,6.797-0.868,10.047-3.206c2.203-1.595,3.531-3.547,3.816-3.754
	c2.868-2.768,6.899-10.757,7.848-13.462c1.359-3.923,5.106-13.946,6.609-20.337c1.454-6.266,3.055-12.782,4.266-19.597
	c1.039-6.025,2.863-12.604,4.531-17.897c2.688,6.498,6.152,31.332,6.68,35.711c0.52,4.385,2.062,12.043,2.145,12.32
	c2.031,6.906,2.141,16.875,8.652,24.068c1.242,1.379,5.41,3.824,7.191,4.442c2.078,0.824,4.711,0.932,7.543,0.341
	c6.359-1.371,8.266-8.5,8.535-9.781l0.016-0.161C342.562,462.608,342.18,462.196,341.648,462.196"/>
</svg>
