<?xml version="1.0" encoding="utf-8"?>
<!-- Generator: Adobe Illustrator 15.0.0, SVG Export Plug-In . SVG Version: 6.00 Build 0)  -->
<!DOCTYPE svg PUBLIC "-//W3C//DTD SVG 1.1//EN" "http://www.w3.org/Graphics/SVG/1.1/DTD/svg11.dtd">
<svg version="1.1" id="Layer_1" xmlns="http://www.w3.org/2000/svg" xmlns:xlink="http://www.w3.org/1999/xlink" x="0px" y="0px"
	 width="595.28px" height="841.89px" viewBox="0 0 595.28 841.89" enable-background="new 0 0 595.28 841.89" xml:space="preserve">
<g>
	<defs>
		<rect id="SVGID_1_" x="209" y="395.87" width="177.621" height="50.02"/>
	</defs>
	<clipPath id="SVGID_2_">
		<use xlink:href="#SVGID_1_"  overflow="visible"/>
	</clipPath>
	
		<rect x="209.5" y="396.37" clip-path="url(#SVGID_2_)" fill="none" stroke="#FFFFFF" stroke-miterlimit="10" width="176.621" height="49.02"/>
	<path clip-path="url(#SVGID_2_)" fill="#FFFFFF" d="M254.462,420.58h5.673v5.673c-1.308,1.307-3.691,2.045-5.525,2.045
		c-4.597,0-7.486-2.994-7.486-7.591c0-4.239,2.846-7.592,7.254-7.592c2.003,0,3.437,0.486,4.639,1.434l-0.78,1.434
		c-0.865-0.78-2.235-1.181-3.648-1.181c-3.29,0-5.568,2.34-5.568,5.905c0,3.585,2.278,5.904,5.631,5.904
		c1.392,0,3.015-0.548,3.796-1.308v-3.037h-3.986V420.58z"/>
	<polygon clip-path="url(#SVGID_2_)" fill="#FFFFFF" points="263.613,413.326 271.943,413.326 271.943,415.013 265.405,415.013 
		265.405,419.778 271.31,419.778 271.31,421.466 265.405,421.466 265.405,426.4 272.154,426.4 272.154,428.087 263.613,428.087 	"/>
	<polygon clip-path="url(#SVGID_2_)" fill="#FFFFFF" points="273.734,413.326 285.859,413.326 285.859,415.013 280.693,415.013 
		280.693,428.087 278.901,428.087 278.901,415.013 273.734,415.013 	"/>
	<polygon clip-path="url(#SVGID_2_)" fill="#FFFFFF" points="291.024,413.326 303.148,413.326 303.148,415.013 297.983,415.013 
		297.983,428.087 296.191,428.087 296.191,415.013 291.024,415.013 	"/>
	<path clip-path="url(#SVGID_2_)" fill="#FFFFFF" d="M305.573,428.087v-14.761c0.822,0,3.542-0.042,3.964-0.042
		c4.028,0,5.251,2.003,5.251,4.386c0,2.299-1.582,3.754-3.205,4.176l4.913,6.241h-2.193l-4.533-5.904h-2.404v5.904H305.573z
		 M307.365,415.013v5.483h2.172c1.708,0,3.354-1.054,3.354-2.804c0-1.519-0.844-2.721-3.458-2.721
		C308.968,414.971,308.062,414.992,307.365,415.013"/>
	<rect x="319.552" y="413.327" clip-path="url(#SVGID_2_)" fill="#FFFFFF" width="1.792" height="14.761"/>
	<path clip-path="url(#SVGID_2_)" fill="#FFFFFF" d="M330.644,413.242h1.539l6.348,14.845h-1.919l-1.897-4.471h-6.728l-1.877,4.471
		h-1.812L330.644,413.242z M328.703,421.93h5.314l-2.657-6.305L328.703,421.93z"/>
	<polygon clip-path="url(#SVGID_2_)" fill="#FFFFFF" points="341.06,413.326 342.852,413.326 342.852,426.4 350.127,426.4 
		350.127,428.087 341.06,428.087 	"/>
</g>
</svg>
