<?xml version="1.0" encoding="utf-8"?>
<!-- Generator: Adobe Illustrator 15.0.0, SVG Export Plug-In . SVG Version: 6.00 Build 0)  -->
<!DOCTYPE svg PUBLIC "-//W3C//DTD SVG 1.1//EN" "http://www.w3.org/Graphics/SVG/1.1/DTD/svg11.dtd">
<svg version="1.1" id="Layer_1" xmlns="http://www.w3.org/2000/svg" xmlns:xlink="http://www.w3.org/1999/xlink" x="0px" y="0px"
	 width="595.28px" height="841.89px" viewBox="0 0 595.28 841.89" enable-background="new 0 0 595.28 841.89" xml:space="preserve">
<g>
	<defs>
		<rect id="SVGID_1_" x="-322" y="317.89" width="1240.27" height="206"/>
	</defs>
	<clipPath id="SVGID_2_">
		<use xlink:href="#SVGID_1_"  overflow="visible"/>
	</clipPath>
	
		<circle clip-path="url(#SVGID_2_)" fill="none" stroke="#FFFFFF" stroke-width="2" stroke-miterlimit="10" cx="293.722" cy="496.543" r="6.171"/>
	
		<circle clip-path="url(#SVGID_2_)" fill="none" stroke="#FFFFFF" stroke-width="2" stroke-miterlimit="10" cx="293.721" cy="496.543" r="10.048"/>
	<path clip-path="url(#SVGID_2_)" fill="none" stroke="#FFFFFF" stroke-miterlimit="10" stroke-dasharray="6,6" d="M384.46,410.33
		c10.94,1.68,23.95,3.239,39.22,4.439c62.46,4.92,106.271-25.189,180.141-35.679c48.22-6.84,104.39,11.71,104.39,11.71"/>
	
		<ellipse transform="matrix(0.933 0.3598 -0.3598 0.933 211.2476 -265.9868)" clip-path="url(#SVGID_2_)" fill="none" stroke="#FFFFFF" stroke-miterlimit="10" cx="820.03" cy="434.391" rx="16.568" ry="7.146"/>
	
		<ellipse transform="matrix(0.933 0.3598 -0.3598 0.933 210.2383 -264.5173)" clip-path="url(#SVGID_2_)" fill="none" stroke="#FFFFFF" stroke-width="2" stroke-miterlimit="10" cx="815.611" cy="432.44" rx="9.12" ry="4.224"/>
	
		<ellipse transform="matrix(0.933 0.3598 -0.3598 0.933 201.5449 -250.2373)" clip-path="url(#SVGID_2_)" fill="none" stroke="#FFFFFF" stroke-miterlimit="10" cx="772.878" cy="416.205" rx="16.568" ry="7.147"/>
	
		<ellipse transform="matrix(0.933 0.3598 -0.3598 0.933 200.4996 -248.7373)" clip-path="url(#SVGID_2_)" fill="none" stroke="#FFFFFF" stroke-width="2" stroke-miterlimit="10" cx="768.46" cy="414.255" rx="9.119" ry="4.223"/>
	<path clip-path="url(#SVGID_2_)" fill="none" stroke="#FFFFFF" stroke-miterlimit="10" d="M811.906,417.476l38.898,15.002
		l2.367-4.061l1.271-2.18l5.354,2.074c0,0,0.266,1.108,0.562,2.872c0.371,2.276,0.799,5.655,0.777,9.205
		c-0.004,3.003-0.34,6.145-1.293,8.839c-0.043,0.15-0.104,0.309-0.159,0.454"/>
	<path clip-path="url(#SVGID_2_)" fill="none" stroke="#FFFFFF" stroke-miterlimit="10" d="M860.844,440.283l17.359,6.695
		c0,0,11.273,7.794,9.125,13.367"/>
	<path clip-path="url(#SVGID_2_)" fill="none" stroke="#FFFFFF" stroke-miterlimit="10" d="M870.537,444.514
		c0,0,6.012,6.751,4.441,10.823"/>
	<path clip-path="url(#SVGID_2_)" fill="none" stroke="#FFFFFF" stroke-width="2" stroke-miterlimit="10" d="M853.172,428.417
		c-11.016-4.251-24.865-9.591-38.783-14.965"/>
	<path clip-path="url(#SVGID_2_)" fill="none" stroke="#FFFFFF" stroke-width="2" stroke-miterlimit="10" d="M789.352,403.795
		c-13.963-5.376-26.094-10.061-33.056-12.741c-19.304-7.446-44.853-8.624-44.853-8.624l-3.239,8.384l-3.229,8.378
		c0,0,19.739,16.279,39.03,23.719c17.409,6.715,67.286,25.953,96.88,37.372"/>
	<path clip-path="url(#SVGID_2_)" fill="none" stroke="#FFFFFF" stroke-width="2" stroke-miterlimit="10" d="M848.072,463.049
		c0.55,0.212,1.092,0.422,1.614,0.623c37.86,14.603,66.946,7.526,66.946,7.526s-16.797-24.785-54.658-39.387
		c-0.523-0.202-1.064-0.412-1.615-0.624"/>
	<path clip-path="url(#SVGID_2_)" fill="none" stroke="#FFFFFF" stroke-miterlimit="10" d="M859.986,448.888
		c-3.225,8.358-14.265,15.918-14.265,15.918l-5.358-2.065l1.491-7.058l-58.511-22.566l0.267-2.604"/>
	<path clip-path="url(#SVGID_2_)" fill="none" stroke="#FFFFFF" stroke-miterlimit="10" d="M788.66,410.722l-16.182-6.247
		l-1.514-3.408l-10.608-4.095c0,0-7.803,4.914-10.06,10.154c-0.006,0.012-0.011,0.026-0.011,0.026
		c-0.048,0.088-0.089,0.193-0.124,0.285"/>
	<path clip-path="url(#SVGID_2_)" fill="none" stroke="#FFFFFF" stroke-miterlimit="10" d="M810.24,419.042l45.398,17.507
		c0,0,1.699,4.214-0.668,10.651"/>
	<path clip-path="url(#SVGID_2_)" fill="none" stroke="#FFFFFF" stroke-miterlimit="10" d="M854.838,447.565
		c0.045-0.118,0.097-0.25,0.133-0.365c-2.561,6.645-6.799,8.706-6.799,8.706l-64.608-24.916l-18.551-7.159l-3.419,1.52
		l-10.607-4.096c0,0-2.428-8.685-0.7-14.103c0,0,0.005-0.014,0.011-0.025c0.047-0.165,0.107-0.324,0.168-0.482"/>
	<path clip-path="url(#SVGID_2_)" fill="none" stroke="#FFFFFF" stroke-miterlimit="10" d="M750.406,418.936l-12.645-4.878
		c0,0-4.661-7.704-2.678-12.85l0.025-0.062c1.983-5.145,10.611-7.725,10.611-7.725l12.646,4.877"/>
	<path clip-path="url(#SVGID_2_)" fill="none" stroke="#FFFFFF" stroke-miterlimit="10" d="M736.41,411.814l-8.788-3.39
		c0,0-9.427-6.834-7.111-12.836l0.024-0.064c2.314-6.001,13.891-4.736,13.891-4.736l8.787,3.388"/>
	<path clip-path="url(#SVGID_2_)" fill="none" stroke="#FFFFFF" stroke-miterlimit="10" d="M854.537,456.634l17.359,6.695
		c0,0,13.588,1.795,15.738-3.778"/>
	<path clip-path="url(#SVGID_2_)" fill="none" stroke="#FFFFFF" stroke-miterlimit="10" d="M864.561,460.009
		c0,0,8.989-0.967,10.561-5.039"/>
	<path clip-path="url(#SVGID_2_)" fill="#FFFFFF" d="M808.631,405.517c1.662,3.715-0.002,8.074-3.717,9.736
		c-3.715,1.662-8.074-0.002-9.736-3.717s0.002-8.074,3.717-9.736C802.609,400.138,806.969,401.802,808.631,405.517"/>
	
		<circle clip-path="url(#SVGID_2_)" fill="none" stroke="#FFFFFF" stroke-width="2" stroke-miterlimit="10" cx="801.904" cy="408.526" r="7.369"/>
	
		<circle clip-path="url(#SVGID_2_)" fill="none" stroke="#FFFFFF" stroke-width="2" stroke-miterlimit="10" cx="801.904" cy="408.526" r="13.42"/>
	<polyline clip-path="url(#SVGID_2_)" fill="none" stroke="#FFFFFF" stroke-width="2" stroke-miterlimit="10" points="
		803.375,395.154 803.375,352.794 832.203,352.794 823.287,361.709 832.875,371.297 802.598,371.297 	"/>
	
		<circle clip-path="url(#SVGID_2_)" fill="none" stroke="#FFFFFF" stroke-width="2" stroke-miterlimit="10" cx="-219" cy="420.89" r="102"/>
	<path clip-path="url(#SVGID_2_)" fill="none" stroke="#FFFFFF" stroke-width="2" stroke-miterlimit="10" d="M888.09,445.159
		c1.9-7.779,2.91-15.909,2.91-24.27c0-56.33-45.67-102-102-102s-102,45.67-102,102c0,56.331,45.67,102,102,102
		c38.01,0,71.16-20.789,88.7-51.619"/>
	<polyline clip-path="url(#SVGID_2_)" fill="none" stroke="#FFFFFF" stroke-width="2" stroke-miterlimit="10" points="
		-223.221,448.828 -251.159,420.89 -223.221,392.951 	"/>
	
		<line clip-path="url(#SVGID_2_)" fill="none" stroke="#FFFFFF" stroke-width="2" stroke-miterlimit="10" x1="-251.237" y1="420.89" x2="-186.763" y2="420.89"/>
	
		<circle clip-path="url(#SVGID_2_)" fill="none" stroke="#FFFFFF" stroke-width="2" stroke-miterlimit="10" cx="283" cy="420.89" r="102"/>
	
		<rect x="256.531" y="389.076" clip-path="url(#SVGID_2_)" fill="none" stroke="#FFFFFF" stroke-width="2" stroke-miterlimit="10" width="58.814" height="42.226"/>
	
		<rect x="260.368" y="392.732" clip-path="url(#SVGID_2_)" fill="none" stroke="#FFFFFF" stroke-miterlimit="10" width="51.271" height="30.806"/>
	
		<line clip-path="url(#SVGID_2_)" fill="none" stroke="#FFFFFF" stroke-width="2" stroke-miterlimit="10" x1="311.615" y1="427.53" x2="300.415" y2="427.53"/>
	<polyline clip-path="url(#SVGID_2_)" fill="none" stroke="#FFFFFF" stroke-width="2" stroke-miterlimit="10" points="
		296.194,431.522 299.41,446.936 282.555,446.936 	"/>
	<polyline clip-path="url(#SVGID_2_)" fill="none" stroke="#FFFFFF" stroke-width="2" stroke-miterlimit="10" points="
		275.681,431.522 272.465,446.936 289.32,446.936 	"/>
	
		<line clip-path="url(#SVGID_2_)" fill="none" stroke="#FFFFFF" stroke-miterlimit="10" x1="298.967" y1="443.609" x2="273.131" y2="443.609"/>
	<circle clip-path="url(#SVGID_2_)" fill="none" stroke="#FFFFFF" stroke-miterlimit="10" cx="206.722" cy="392.293" r="6.171"/>
	
		<circle clip-path="url(#SVGID_2_)" fill="none" stroke="#FFFFFF" stroke-width="2" stroke-miterlimit="10" cx="206.721" cy="392.293" r="10.048"/>
	<circle clip-path="url(#SVGID_2_)" fill="none" stroke="#FFFFFF" stroke-miterlimit="10" cx="282.472" cy="347.043" r="6.171"/>
	
		<circle clip-path="url(#SVGID_2_)" fill="none" stroke="#FFFFFF" stroke-width="2" stroke-miterlimit="10" cx="282.471" cy="347.043" r="10.048"/>
	<circle clip-path="url(#SVGID_2_)" fill="none" stroke="#FFFFFF" stroke-miterlimit="10" cx="344.222" cy="394.543" r="6.171"/>
	
		<circle clip-path="url(#SVGID_2_)" fill="none" stroke="#FFFFFF" stroke-width="2" stroke-miterlimit="10" cx="344.222" cy="394.543" r="10.048"/>
	<circle clip-path="url(#SVGID_2_)" fill="none" stroke="#FFFFFF" stroke-miterlimit="10" cx="360.472" cy="440.543" r="6.171"/>
	
		<circle clip-path="url(#SVGID_2_)" fill="none" stroke="#FFFFFF" stroke-width="2" stroke-miterlimit="10" cx="360.472" cy="440.543" r="10.048"/>
	<circle clip-path="url(#SVGID_2_)" fill="none" stroke="#FFFFFF" stroke-miterlimit="10" cx="252.222" cy="453.543" r="6.171"/>
	
		<circle clip-path="url(#SVGID_2_)" fill="none" stroke="#FFFFFF" stroke-width="2" stroke-miterlimit="10" cx="252.221" cy="453.543" r="10.048"/>
	
		<line clip-path="url(#SVGID_2_)" fill="none" stroke="#FFFFFF" stroke-width="2" stroke-miterlimit="10" x1="215" y1="398.64" x2="256.75" y2="415.39"/>
	
		<line clip-path="url(#SVGID_2_)" fill="none" stroke="#FFFFFF" stroke-width="2" stroke-miterlimit="10" x1="260" y1="447.39" x2="275" y2="434.39"/>
	
		<line clip-path="url(#SVGID_2_)" fill="none" stroke="#FFFFFF" stroke-width="2" stroke-miterlimit="10" x1="293.5" y1="486.64" x2="291.25" y2="446.64"/>
	
		<line clip-path="url(#SVGID_2_)" fill="none" stroke="#FFFFFF" stroke-width="2" stroke-miterlimit="10" x1="350.75" y1="436.89" x2="315.75" y2="427.39"/>
	
		<line clip-path="url(#SVGID_2_)" fill="none" stroke="#FFFFFF" stroke-width="2" stroke-miterlimit="10" x1="334.75" y1="398.89" x2="315" y2="410.64"/>
	
		<line clip-path="url(#SVGID_2_)" fill="none" stroke="#FFFFFF" stroke-width="2" stroke-miterlimit="10" x1="282.5" y1="357.14" x2="282.5" y2="389.39"/>
	<path clip-path="url(#SVGID_2_)" fill="none" stroke="#FFFFFF" stroke-miterlimit="10" stroke-dasharray="6,6" d="M207,350.89
		c0,0-57-27-117-1s-100,78-142,96s-73,15-73,15"/>
</g>
</svg>
