<?xml version="1.0" encoding="utf-8"?>
<!-- Generator: Adobe Illustrator 15.0.0, SVG Export Plug-In . SVG Version: 6.00 Build 0)  -->
<!DOCTYPE svg PUBLIC "-//W3C//DTD SVG 1.1//EN" "http://www.w3.org/Graphics/SVG/1.1/DTD/svg11.dtd">
<svg version="1.1" id="Layer_1" xmlns="http://www.w3.org/2000/svg" xmlns:xlink="http://www.w3.org/1999/xlink" x="0px" y="0px"
	 width="595.28px" height="841.89px" viewBox="0 0 595.28 841.89" enable-background="new 0 0 595.28 841.89" xml:space="preserve">
<polygon fill="#001680" points="54.296,312.62 -17.11,407.723 -17.11,312.62 -67,312.62 -67,530.89 -17.11,530.89 -17.11,427.056 
	57.414,530.89 120.712,530.89 32.157,413.336 114.164,312.62 "/>
<polygon fill="#001680" points="148.772,312.62 148.772,530.89 281.292,530.89 281.292,484.118 198.663,484.118 198.663,444.518 
	268.82,444.518 268.82,397.746 198.663,397.746 198.663,359.393 278.175,359.393 278.175,312.62 "/>
<polygon fill="#001680" points="328.065,312.62 328.065,530.89 460.587,530.89 460.587,484.118 377.956,484.118 377.956,444.518 
	448.113,444.518 448.113,397.746 377.956,397.746 377.956,359.393 457.468,359.393 457.468,312.62 "/>
<g>
	<defs>
		<rect id="SVGID_1_" x="-67" y="311.996" width="729.33" height="218.894"/>
	</defs>
	<clipPath id="SVGID_2_">
		<use xlink:href="#SVGID_1_"  overflow="visible"/>
	</clipPath>
	<path clip-path="url(#SVGID_2_)" fill="#001680" d="M507.359,530.89V312.621c12.16,0,49.89-0.624,66.728-0.624
		c66.416,0,88.243,34.611,88.243,72.341c0,38.977-30.246,73.276-80.76,73.276c-4.678,0-16.526,0-24.321-0.936v74.212H507.359z
		 M557.249,359.393v49.89c7.172,0.935,15.591,1.559,22.762,1.559c13.097,0,29.312-5.613,29.312-26.816
		c0-19.332-12.474-25.257-30.246-25.257C572.528,358.769,567.539,359.081,557.249,359.393"/>
</g>
</svg>
