<?xml version="1.0" encoding="utf-8"?>
<!-- Generator: Adobe Illustrator 15.0.0, SVG Export Plug-In . SVG Version: 6.00 Build 0)  -->
<!DOCTYPE svg PUBLIC "-//W3C//DTD SVG 1.1//EN" "http://www.w3.org/Graphics/SVG/1.1/DTD/svg11.dtd">
<svg version="1.1" id="Layer_1" xmlns="http://www.w3.org/2000/svg" xmlns:xlink="http://www.w3.org/1999/xlink" x="0px" y="0px"
	 width="595.28px" height="841.89px" viewBox="0 0 595.28 841.89" enable-background="new 0 0 595.28 841.89" xml:space="preserve">
<line fill="none" stroke="#89C0EC" stroke-miterlimit="10" x1="302.171" y1="413.312" x2="293.958" y2="413.312"/>
<polyline fill="none" stroke="#89C0EC" stroke-miterlimit="10" points="304.59,413.312 306.777,413.312 306.777,430.532 
	289.557,430.532 289.557,413.312 291.538,413.312 "/>
<path fill="none" stroke="#89C0EC" stroke-miterlimit="10" d="M304.576,414.312c0,0.667-0.542,1.209-1.21,1.209
	c-0.666,0-1.207-0.542-1.207-1.209v-2.102c0-0.668,0.541-1.21,1.207-1.21c0.668,0,1.21,0.542,1.21,1.21V414.312z"/>
<path fill="none" stroke="#89C0EC" stroke-miterlimit="10" d="M293.958,414.312c0,0.667-0.541,1.209-1.208,1.209
	c-0.668,0-1.209-0.542-1.209-1.209v-2.102c0-0.668,0.541-1.21,1.209-1.21c0.667,0,1.208,0.542,1.208,1.21V414.312z"/>
<line fill="none" stroke="#89C0EC" stroke-miterlimit="10" x1="293.828" y1="417.991" x2="293.828" y2="430.237"/>
<line fill="none" stroke="#89C0EC" stroke-miterlimit="10" x1="298.111" y1="417.991" x2="298.111" y2="430.237"/>
<line fill="none" stroke="#89C0EC" stroke-miterlimit="10" x1="302.394" y1="417.991" x2="302.394" y2="430.237"/>
<line fill="none" stroke="#89C0EC" stroke-miterlimit="10" x1="289.386" y1="426.559" x2="306.836" y2="426.559"/>
<line fill="none" stroke="#89C0EC" stroke-miterlimit="10" x1="289.386" y1="422.274" x2="306.836" y2="422.274"/>
<line fill="none" stroke="#89C0EC" stroke-miterlimit="10" x1="289.386" y1="417.991" x2="306.836" y2="417.991"/>
</svg>
