<?xml version="1.0" encoding="utf-8"?>
<!-- Generator: Adobe Illustrator 15.0.0, SVG Export Plug-In . SVG Version: 6.00 Build 0)  -->
<!DOCTYPE svg PUBLIC "-//W3C//DTD SVG 1.1//EN" "http://www.w3.org/Graphics/SVG/1.1/DTD/svg11.dtd">
<svg version="1.1" id="Layer_1" xmlns="http://www.w3.org/2000/svg" xmlns:xlink="http://www.w3.org/1999/xlink" x="0px" y="0px"
	 width="595.28px" height="841.89px" viewBox="0 0 595.28 841.89" enable-background="new 0 0 595.28 841.89" xml:space="preserve">
<g>
	<defs>
		<rect id="SVGID_1_" x="167" y="401.258" width="262.214" height="40.632"/>
	</defs>
	<clipPath id="SVGID_2_">
		<use xlink:href="#SVGID_1_"  overflow="visible"/>
	</clipPath>
	<path clip-path="url(#SVGID_2_)" fill="#FFFFFF" d="M180.646,418.926c0-1.818,1.405-3.295,3.799-3.295
		c1.459,0,2.755,0.522,3.475,1.315l-0.828,1.152c-0.666-0.666-1.458-1.026-2.557-1.026c-1.404,0-2.268,0.738-2.268,1.854
		c0,3.115,6.157,1.945,6.157,6.248c0,2.071-1.818,3.422-4.105,3.422c-1.548,0-3.349-0.702-3.979-1.892l0.882-1.044
		c0.738,0.972,2.053,1.495,3.115,1.495c1.315,0,2.467-0.685,2.467-1.963C186.805,422.113,180.646,423.104,180.646,418.926"/>
	<polygon clip-path="url(#SVGID_2_)" fill="#FFFFFF" points="191.213,415.812 198.325,415.812 198.325,417.251 192.743,417.251 
		192.743,421.322 197.785,421.322 197.785,422.762 192.743,422.762 192.743,426.975 198.505,426.975 198.505,428.416 
		191.213,428.416 	"/>
	<polygon clip-path="url(#SVGID_2_)" fill="#FFFFFF" points="201.562,415.812 203.094,415.812 203.094,426.975 209.305,426.975 
		209.305,428.416 201.562,428.416 	"/>
	<polygon clip-path="url(#SVGID_2_)" fill="#FFFFFF" points="211.462,415.812 218.574,415.812 218.574,417.251 212.992,417.251 
		212.992,421.322 218.034,421.322 218.034,422.762 212.992,422.762 212.992,426.975 218.754,426.975 218.754,428.416 
		211.462,428.416 	"/>
	<path clip-path="url(#SVGID_2_)" fill="#FFFFFF" d="M231.193,427.191c-0.846,0.863-2.413,1.403-3.979,1.403
		c-3.781,0-6.392-2.556-6.392-6.481c0-3.619,2.341-6.482,6.284-6.482c1.62,0,2.935,0.451,3.835,1.225l-0.702,1.152
		c-0.828-0.612-1.801-0.936-3.115-0.936c-2.737,0-4.681,2.053-4.681,5.042c0,3.007,1.998,5.042,4.915,5.042
		c1.206,0,2.359-0.414,3.223-1.116L231.193,427.191z"/>
	<polygon clip-path="url(#SVGID_2_)" fill="#FFFFFF" points="231.91,415.812 242.263,415.812 242.263,417.251 237.852,417.251 
		237.852,428.416 236.321,428.416 236.321,417.251 231.91,417.251 	"/>
	<path clip-path="url(#SVGID_2_)" fill="#FFFFFF" d="M257.76,427.191c-0.846,0.863-2.413,1.403-3.979,1.403
		c-3.781,0-6.392-2.556-6.392-6.481c0-3.619,2.341-6.482,6.284-6.482c1.62,0,2.935,0.451,3.835,1.225l-0.702,1.152
		c-0.828-0.612-1.801-0.936-3.115-0.936c-2.737,0-4.681,2.053-4.681,5.042c0,3.007,1.998,5.042,4.915,5.042
		c1.206,0,2.359-0.414,3.223-1.116L257.76,427.191z"/>
	<rect x="260.548" y="415.812" clip-path="url(#SVGID_2_)" fill="#FFFFFF" width="1.531" height="12.604"/>
	<polygon clip-path="url(#SVGID_2_)" fill="#FFFFFF" points="264.507,415.812 274.86,415.812 274.86,417.251 270.448,417.251 
		270.448,428.416 268.918,428.416 268.918,417.251 264.507,417.251 	"/>
	<polygon clip-path="url(#SVGID_2_)" fill="#FFFFFF" points="281.212,423.014 281.212,428.415 279.683,428.415 279.683,423.014 
		275.216,415.812 276.981,415.812 280.51,421.574 284.058,415.812 285.732,415.812 	"/>
	
		<rect x="167.5" y="401.758" clip-path="url(#SVGID_2_)" fill="none" stroke="#89C0EC" stroke-miterlimit="10" width="261.214" height="39.632"/>
	<polygon clip-path="url(#SVGID_2_)" fill="#89C0EC" points="415.288,422.142 411.471,425.956 407.66,422.142 	"/>
	<polygon clip-path="url(#SVGID_2_)" fill="#89C0EC" points="407.66,419.608 411.479,415.794 415.288,419.608 	"/>
</g>
</svg>
