<?xml version="1.0" encoding="utf-8"?>
<!-- Generator: Adobe Illustrator 15.0.0, SVG Export Plug-In . SVG Version: 6.00 Build 0)  -->
<!DOCTYPE svg PUBLIC "-//W3C//DTD SVG 1.1//EN" "http://www.w3.org/Graphics/SVG/1.1/DTD/svg11.dtd">
<svg version="1.1" id="Layer_1" xmlns="http://www.w3.org/2000/svg" xmlns:xlink="http://www.w3.org/1999/xlink" x="0px" y="0px"
	 width="595.28px" height="841.89px" viewBox="0 0 595.28 841.89" enable-background="new 0 0 595.28 841.89" xml:space="preserve">
<g>
	<defs>
		<rect id="SVGID_1_" x="167" y="401.257" width="262.214" height="40.633"/>
	</defs>
	<clipPath id="SVGID_2_">
		<use xlink:href="#SVGID_1_"  overflow="visible"/>
	</clipPath>
	<path clip-path="url(#SVGID_2_)" fill="#FFFFFF" d="M180.646,418.927c0-1.819,1.405-3.295,3.799-3.295
		c1.459,0,2.755,0.522,3.475,1.314l-0.828,1.153c-0.666-0.666-1.458-1.027-2.557-1.027c-1.404,0-2.268,0.739-2.268,1.855
		c0,3.115,6.157,1.945,6.157,6.248c0,2.07-1.818,3.421-4.105,3.421c-1.548,0-3.349-0.701-3.979-1.891l0.882-1.044
		c0.738,0.972,2.053,1.494,3.115,1.494c1.315,0,2.467-0.685,2.467-1.962C186.805,422.114,180.646,423.104,180.646,418.927"/>
	<polygon clip-path="url(#SVGID_2_)" fill="#FFFFFF" points="191.213,415.812 198.325,415.812 198.325,417.252 192.743,417.252 
		192.743,421.322 197.785,421.322 197.785,422.762 192.743,422.762 192.743,426.975 198.505,426.975 198.505,428.416 
		191.213,428.416 	"/>
	<polygon clip-path="url(#SVGID_2_)" fill="#FFFFFF" points="201.562,415.812 203.094,415.812 203.094,426.975 209.305,426.975 
		209.305,428.416 201.562,428.416 	"/>
	<polygon clip-path="url(#SVGID_2_)" fill="#FFFFFF" points="211.462,415.812 218.574,415.812 218.574,417.252 212.992,417.252 
		212.992,421.322 218.034,421.322 218.034,422.762 212.992,422.762 212.992,426.975 218.754,426.975 218.754,428.416 
		211.462,428.416 	"/>
	<path clip-path="url(#SVGID_2_)" fill="#FFFFFF" d="M231.193,427.191c-0.846,0.864-2.413,1.404-3.979,1.404
		c-3.781,0-6.392-2.557-6.392-6.482c0-3.619,2.341-6.482,6.284-6.482c1.62,0,2.935,0.451,3.835,1.225l-0.702,1.152
		c-0.828-0.612-1.801-0.936-3.115-0.936c-2.737,0-4.681,2.053-4.681,5.041c0,3.007,1.998,5.042,4.915,5.042
		c1.206,0,2.359-0.414,3.223-1.116L231.193,427.191z"/>
	<polygon clip-path="url(#SVGID_2_)" fill="#FFFFFF" points="231.91,415.812 242.263,415.812 242.263,417.252 237.852,417.252 
		237.852,428.416 236.321,428.416 236.321,417.252 231.91,417.252 	"/>
	<polygon clip-path="url(#SVGID_2_)" fill="#FFFFFF" points="248.379,415.812 249.911,415.812 249.911,426.975 256.122,426.975 
		256.122,428.416 248.379,428.416 	"/>
	<rect x="258.639" y="415.812" clip-path="url(#SVGID_2_)" fill="#FFFFFF" width="1.531" height="12.604"/>
	<polygon clip-path="url(#SVGID_2_)" fill="#FFFFFF" points="273.618,428.416 265.75,418.513 265.75,428.416 264.309,428.416 
		264.309,415.812 265.534,415.812 273.402,425.751 273.402,415.812 274.843,415.812 274.843,428.416 	"/>
	<polygon clip-path="url(#SVGID_2_)" fill="#FFFFFF" points="278.619,415.812 285.731,415.812 285.731,417.252 280.149,417.252 
		280.149,421.322 285.191,421.322 285.191,422.762 280.149,422.762 280.149,426.975 285.911,426.975 285.911,428.416 
		278.619,428.416 	"/>
	<path clip-path="url(#SVGID_2_)" fill="#FFFFFF" d="M288.97,428.415v-12.603c0.702,0,3.025-0.037,3.384-0.037
		c3.439,0,4.484,1.711,4.484,3.746c0,1.962-1.35,3.205-2.737,3.565l4.195,5.328h-1.873l-3.871-5.041H290.5v5.041H288.97z
		 M290.5,417.252v4.681h1.854c1.459,0,2.863-0.9,2.863-2.394c0-1.297-0.719-2.323-2.952-2.323
		C291.869,417.216,291.093,417.234,290.5,417.252"/>
	
		<rect x="167.5" y="401.757" clip-path="url(#SVGID_2_)" fill="none" stroke="#89C0EC" stroke-miterlimit="10" width="261.214" height="39.633"/>
	<polygon clip-path="url(#SVGID_2_)" fill="#89C0EC" points="415.288,422.141 411.471,425.957 407.66,422.141 	"/>
	<polygon clip-path="url(#SVGID_2_)" fill="#89C0EC" points="407.66,419.607 411.479,415.792 415.288,419.607 	"/>
</g>
</svg>
