<?xml version="1.0" encoding="utf-8"?>
<!-- Generator: Adobe Illustrator 15.0.0, SVG Export Plug-In . SVG Version: 6.00 Build 0)  -->
<!DOCTYPE svg PUBLIC "-//W3C//DTD SVG 1.1//EN" "http://www.w3.org/Graphics/SVG/1.1/DTD/svg11.dtd">
<svg version="1.1" id="Layer_1" xmlns="http://www.w3.org/2000/svg" xmlns:xlink="http://www.w3.org/1999/xlink" x="0px" y="0px"
	 width="595.28px" height="841.89px" viewBox="0 0 595.28 841.89" enable-background="new 0 0 595.28 841.89" xml:space="preserve">
<rect x="166.5" y="400.868" fill="#89C0EC" width="263.173" height="39.632"/>
<g>
	<defs>
		<rect id="SVGID_1_" x="166" y="400.368" width="264.173" height="40.632"/>
	</defs>
	<clipPath id="SVGID_2_">
		<use xlink:href="#SVGID_1_"  overflow="visible"/>
	</clipPath>
	
		<rect x="166.5" y="400.868" clip-path="url(#SVGID_2_)" fill="none" stroke="#89C0EC" stroke-miterlimit="10" width="263.173" height="39.632"/>
	<path clip-path="url(#SVGID_2_)" fill="#FFFFFF" d="M262.624,418.038c0-1.819,1.405-3.295,3.799-3.295
		c1.459,0,2.755,0.522,3.475,1.314l-0.828,1.153c-0.666-0.666-1.458-1.027-2.557-1.027c-1.404,0-2.268,0.739-2.268,1.855
		c0,3.115,6.158,1.945,6.158,6.249c0,2.069-1.819,3.421-4.106,3.421c-1.548,0-3.349-0.702-3.979-1.892l0.882-1.044
		c0.738,0.973,2.053,1.494,3.115,1.494c1.315,0,2.467-0.684,2.467-1.962C268.782,421.225,262.624,422.215,262.624,418.038"/>
	<polygon clip-path="url(#SVGID_2_)" fill="#FFFFFF" points="273.19,414.923 280.302,414.923 280.302,416.363 274.72,416.363 
		274.72,420.433 279.762,420.433 279.762,421.873 274.72,421.873 274.72,426.086 280.482,426.086 280.482,427.527 273.19,427.527 	
		"/>
	<path clip-path="url(#SVGID_2_)" fill="#FFFFFF" d="M287.338,414.851h1.315l5.42,12.676h-1.639l-1.621-3.818h-5.743l-1.603,3.818
		h-1.548L287.338,414.851z M285.683,422.269h4.537l-2.268-5.384L285.683,422.269z"/>
	<path clip-path="url(#SVGID_2_)" fill="#FFFFFF" d="M296.23,427.526v-12.603c0.702,0,3.024-0.037,3.384-0.037
		c3.439,0,4.484,1.711,4.484,3.746c0,1.962-1.351,3.205-2.737,3.565l4.195,5.329h-1.872l-3.871-5.041h-2.053v5.041H296.23z
		 M297.76,416.363v4.681h1.854c1.459,0,2.863-0.9,2.863-2.394c0-1.297-0.72-2.323-2.952-2.323
		C299.129,416.327,298.354,416.345,297.76,416.363"/>
	<path clip-path="url(#SVGID_2_)" fill="#FFFFFF" d="M316.698,426.302c-0.846,0.864-2.412,1.404-3.979,1.404
		c-3.781,0-6.392-2.556-6.392-6.482c0-3.619,2.34-6.482,6.283-6.482c1.62,0,2.936,0.451,3.835,1.225l-0.702,1.152
		c-0.828-0.612-1.801-0.936-3.114-0.936c-2.737,0-4.682,2.053-4.682,5.041c0,3.007,1.998,5.042,4.915,5.042
		c1.206,0,2.358-0.414,3.224-1.116L316.698,426.302z"/>
	<polygon clip-path="url(#SVGID_2_)" fill="#FFFFFF" points="327.588,421.819 320.656,421.819 320.656,427.526 319.126,427.526 
		319.126,414.923 320.656,414.923 320.656,420.379 327.588,420.379 327.588,414.923 329.118,414.923 329.118,427.526 
		327.588,427.526 	"/>
</g>
</svg>
