<?xml version="1.0" encoding="utf-8"?>
<!-- Generator: Adobe Illustrator 15.0.0, SVG Export Plug-In . SVG Version: 6.00 Build 0)  -->
<!DOCTYPE svg PUBLIC "-//W3C//DTD SVG 1.1//EN" "http://www.w3.org/Graphics/SVG/1.1/DTD/svg11.dtd">
<svg version="1.1" id="Layer_1" xmlns="http://www.w3.org/2000/svg" xmlns:xlink="http://www.w3.org/1999/xlink" x="0px" y="0px"
	 width="595.28px" height="841.89px" viewBox="0 0 595.28 841.89" enable-background="new 0 0 595.28 841.89" xml:space="preserve">
<g>
	<defs>
		<rect id="SVGID_1_" x="204" y="395.871" width="187.74" height="50.019"/>
	</defs>
	<clipPath id="SVGID_2_">
		<use xlink:href="#SVGID_1_"  overflow="visible"/>
	</clipPath>
	
		<rect x="204.5" y="396.371" clip-path="url(#SVGID_2_)" fill="none" stroke="#FFFFFF" stroke-miterlimit="10" width="186.74" height="49.019"/>
	<path clip-path="url(#SVGID_2_)" fill="#FFFFFF" d="M230.002,416.974c0-2.13,1.645-3.859,4.449-3.859
		c1.709,0,3.227,0.611,4.071,1.539l-0.971,1.35c-0.78-0.78-1.708-1.202-2.994-1.202c-1.645,0-2.657,0.865-2.657,2.172
		c0,3.648,7.212,2.278,7.212,7.317c0,2.426-2.13,4.007-4.808,4.007c-1.814,0-3.922-0.821-4.66-2.214l1.033-1.223
		c0.864,1.139,2.404,1.75,3.648,1.75c1.539,0,2.889-0.801,2.889-2.298C237.214,420.707,230.002,421.867,230.002,416.974"/>
	<polygon clip-path="url(#SVGID_2_)" fill="#FFFFFF" points="242.379,413.326 250.709,413.326 250.709,415.013 244.171,415.013 
		244.171,419.779 250.076,419.779 250.076,421.466 244.171,421.466 244.171,426.4 250.92,426.4 250.92,428.087 242.379,428.087 	"/>
	<polygon clip-path="url(#SVGID_2_)" fill="#FFFFFF" points="254.504,413.326 256.296,413.326 256.296,426.4 263.572,426.4 
		263.572,428.087 254.504,428.087 	"/>
	<polygon clip-path="url(#SVGID_2_)" fill="#FFFFFF" points="266.101,413.326 274.431,413.326 274.431,415.013 267.893,415.013 
		267.893,419.779 273.797,419.779 273.797,421.466 267.893,421.466 267.893,426.4 274.642,426.4 274.642,428.087 266.101,428.087 	
		"/>
	<path clip-path="url(#SVGID_2_)" fill="#FFFFFF" d="M289.212,426.653c-0.991,1.012-2.826,1.646-4.66,1.646
		c-4.429,0-7.486-2.995-7.486-7.592c0-4.238,2.741-7.591,7.359-7.591c1.898,0,3.437,0.527,4.492,1.434l-0.823,1.349
		c-0.97-0.717-2.109-1.096-3.648-1.096c-3.205,0-5.483,2.404-5.483,5.904c0,3.522,2.341,5.905,5.757,5.905
		c1.413,0,2.763-0.485,3.775-1.308L289.212,426.653z"/>
	<polygon clip-path="url(#SVGID_2_)" fill="#FFFFFF" points="290.054,413.326 302.179,413.326 302.179,415.013 297.013,415.013 
		297.013,428.087 295.221,428.087 295.221,415.013 290.054,415.013 	"/>
	<path clip-path="url(#SVGID_2_)" fill="#FFFFFF" d="M309.348,428.087v-14.761c0.821,0,2.931-0.042,3.858-0.042
		c4.217,0,5.461,2.277,5.461,4.576c0,2.404-1.708,4.639-5.313,4.639c-0.59,0-1.477-0.021-2.214-0.084v5.672H309.348z
		 M311.14,415.013v5.694c0.717,0.063,1.412,0.105,2.15,0.105c2.172,0,3.479-1.118,3.479-2.973c0-1.751-1.055-2.868-3.396-2.868
		C312.784,414.971,311.835,414.992,311.14,415.013"/>
	<path clip-path="url(#SVGID_2_)" fill="#FFFFFF" d="M327.987,413.115c4.281,0,7.527,3.1,7.527,7.591
		c0,4.387-3.246,7.592-7.527,7.592s-7.528-3.101-7.528-7.592C320.459,416.425,323.602,413.115,327.987,413.115 M327.987,426.611
		c3.374,0,5.63-2.573,5.63-5.905c0-3.437-2.467-5.904-5.63-5.904c-3.205,0-5.631,2.467-5.631,5.904
		C322.356,424.06,324.824,426.611,327.987,426.611"/>
	<path clip-path="url(#SVGID_2_)" fill="#FFFFFF" d="M338.782,428.087v-14.761c0.822,0,3.542-0.042,3.964-0.042
		c4.028,0,5.251,2.003,5.251,4.386c0,2.299-1.582,3.754-3.204,4.175l4.912,6.242h-2.192l-4.534-5.903h-2.404v5.903H338.782z
		 M340.574,415.013v5.483h2.172c1.708,0,3.354-1.055,3.354-2.805c0-1.518-0.844-2.72-3.458-2.72
		C342.178,414.971,341.271,414.992,340.574,415.013"/>
	<polygon clip-path="url(#SVGID_2_)" fill="#FFFFFF" points="349.451,413.326 361.576,413.326 361.576,415.013 356.41,415.013 
		356.41,428.087 354.618,428.087 354.618,415.013 349.451,415.013 	"/>
</g>
</svg>
