<?xml version="1.0" encoding="utf-8"?>
<!-- Generator: Adobe Illustrator 15.0.0, SVG Export Plug-In . SVG Version: 6.00 Build 0)  -->
<!DOCTYPE svg PUBLIC "-//W3C//DTD SVG 1.1//EN" "http://www.w3.org/Graphics/SVG/1.1/DTD/svg11.dtd">
<svg version="1.1" id="Layer_1" xmlns="http://www.w3.org/2000/svg" xmlns:xlink="http://www.w3.org/1999/xlink" x="0px" y="0px"
	 width="595.28px" height="841.89px" viewBox="0 0 595.28 841.89" enable-background="new 0 0 595.28 841.89" xml:space="preserve">
<polygon fill="#001680" points="-104.493,141.773 -52.117,141.773 -52.117,321.814 41.176,321.814 41.176,370.917 -104.493,370.917 
	"/>
<polygon fill="#001680" points="73.914,141.773 209.763,141.773 209.763,190.875 126.29,190.875 126.29,231.139 199.942,231.139 
	199.942,280.241 126.29,280.241 126.29,321.814 213.037,321.814 213.037,370.917 73.914,370.917 "/>
<polygon fill="#001680" points="235.953,141.773 425.813,141.773 425.813,190.875 357.07,190.875 357.07,370.917 304.695,370.917 
	304.695,190.875 235.953,190.875 "/>
<g>
	<defs>
		<rect id="SVGID_1_" x="-186" y="118.859" width="966.656" height="606.03"/>
	</defs>
	<clipPath id="SVGID_2_">
		<use xlink:href="#SVGID_1_"  overflow="visible"/>
	</clipPath>
	<path clip-path="url(#SVGID_2_)" fill="#001680" d="M501.104,118.859c8.184,8.511,12.438,22.914,12.438,34.371
		c0,34.698-22.586,54.994-36.99,63.505l-22.914-20.622c9.165-8.512,14.075-20.623,14.075-32.08c0-7.529-2.618-16.04-7.855-21.278
		L501.104,118.859z"/>
	<path clip-path="url(#SVGID_2_)" fill="#001680" d="M541.367,203.969c0-35.354,28.151-66.124,73.979-66.124
		c29.461,0,53.031,9.82,67.434,25.206l-28.151,39.281c-10.148-9.492-17.678-15.384-34.699-15.384
		c-14.403,0-22.914,6.546-22.914,17.021c0,37.973,95.585,28.807,95.585,103.442c0,39.936-34.371,67.433-78.562,67.433
		c-30.771,0-66.451-13.094-77.581-37.645l29.788-35.68c13.095,16.694,33.062,24.223,49.102,24.223
		c13.749,0,21.604-6.874,21.604-17.676C636.951,273.695,541.367,277.949,541.367,203.969"/>
	<path clip-path="url(#SVGID_2_)" fill="#001680" d="M7.462,626.358c0,70.053-44.519,98.531-93.622,98.531
		c-58.921,0-99.84-33.716-99.84-100.822V491.819h52.376v121.118c0,35.681,10.802,62.851,47.464,62.851
		c31.753,0,41.247-23.242,41.247-59.904V491.819H7.462V626.358z"/>
	<path clip-path="url(#SVGID_2_)" fill="#001680" d="M51.655,554.015c0-35.354,28.152-66.124,73.98-66.124
		c29.461,0,53.031,9.82,67.434,25.206l-28.152,39.281c-10.148-9.493-17.677-15.385-34.699-15.385
		c-14.403,0-22.914,6.547-22.914,17.021c0,37.973,95.585,28.807,95.585,103.442c0,39.936-34.371,67.433-78.563,67.433
		c-30.771,0-66.451-13.094-77.581-37.645l29.788-35.681c13.095,16.694,33.062,24.224,49.102,24.224
		c13.749,0,21.605-6.874,21.605-17.677C147.24,623.74,51.655,627.995,51.655,554.015"/>
	<polygon clip-path="url(#SVGID_2_)" fill="#001680" points="245.444,491.819 381.293,491.819 381.293,540.921 297.819,540.921 
		297.819,581.185 371.474,581.185 371.474,630.287 297.819,630.287 297.819,671.86 384.567,671.86 384.567,720.962 245.444,720.962 
			"/>
	<rect x="502.414" y="491.819" clip-path="url(#SVGID_2_)" fill="#001680" width="52.375" height="229.144"/>
	<polygon clip-path="url(#SVGID_2_)" fill="#001680" points="590.794,491.819 780.655,491.819 780.655,540.921 711.912,540.921 
		711.912,720.962 659.537,720.962 659.537,540.921 590.794,540.921 	"/>
</g>
</svg>
