<?xml version="1.0" encoding="utf-8"?>
<!-- Generator: Adobe Illustrator 19.2.1, SVG Export Plug-In . SVG Version: 6.00 Build 0)  -->
<svg version="1.1" id="Layer_1" xmlns="http://www.w3.org/2000/svg" xmlns:xlink="http://www.w3.org/1999/xlink" x="0px" y="0px"
	 viewBox="0 0 69 102" style="enable-background:new 0 0 69 102;" xml:space="preserve">
<style type="text/css">
	.st0{fill:#2A556B;}
</style>
<path class="st0" d="M9.6,84.6V71.5c0.7,0,3,0,4,0c4,0,5.3,2.1,5.3,4.4c0,2.3-1.8,4.4-4.9,4.4c-0.3,0-1,0-1.5-0.1v4.5L9.6,84.6
	L9.6,84.6z M12.6,74.3v3c0.4,0.1,0.9,0.1,1.4,0.1c0.8,0,1.8-0.3,1.8-1.6c0-1.2-0.7-1.5-1.8-1.5C13.5,74.2,13.2,74.3,12.6,74.3"/>
<path class="st0" d="M27.2,71.2c4,0,7,2.6,7,6.8c0,4-3,6.8-7,6.8c-4,0-7-2.6-7-6.8C20.2,74.2,23,71.2,27.2,71.2 M27.2,82
	c2.5,0,3.8-1.8,3.8-4c0-2.4-1.7-4-3.8-4c-2.2,0-3.8,1.6-3.8,4C23.4,80.3,25.1,82,27.2,82"/>
<path class="st0" d="M36.6,84.6V71.5c0.7,0,4.1,0,4.5,0c3.6,0,4.9,1.8,4.9,4.2c0,2.4-1.5,3.4-2.2,3.8l3.8,5.2h-3.6L40.7,80h-1.1v4.6
	L36.6,84.6L36.6,84.6z M39.6,74.3v2.9h1.1c1.1,0,2-0.4,2-1.5c0-0.7-0.4-1.4-1.8-1.4C40.5,74.2,40.2,74.3,39.6,74.3"/>
<polygon class="st0" points="47.2,71.5 58.1,71.5 58.1,74.3 54.1,74.3 54.1,84.6 51.1,84.6 51.1,74.3 47.2,74.3 "/>
<path class="st0" d="M18.5,93.3c-0.3,0.4-1,0.6-1.7,0.6c-1.6,0-2.7-1.1-2.7-2.7c0-1.5,1-2.7,2.7-2.7c0.7,0,1.3,0.2,1.6,0.5l-0.4,0.7
	c-0.3-0.2-0.7-0.4-1.2-0.4c-1,0-1.7,0.7-1.7,1.8c0,1.1,0.7,1.9,1.8,1.9c0.4,0,0.9-0.1,1.3-0.4L18.5,93.3z"/>
<path class="st0" d="M21.5,88.5c1.6,0,2.7,1.1,2.7,2.7c0,1.6-1.2,2.7-2.7,2.7c-1.6,0-2.7-1.1-2.7-2.7C18.8,89.7,19.9,88.5,21.5,88.5
	 M21.5,93c1.1,0,1.8-0.8,1.8-1.9c0-1.1-0.8-1.8-1.8-1.8c-1,0-1.8,0.8-1.8,1.8C19.7,92.2,20.5,93,21.5,93"/>
<polygon class="st0" points="25.3,88.5 26.2,88.5 28,91 29.7,88.5 30.6,88.5 30.6,93.8 29.7,93.8 29.7,90 28,92.3 27.9,92.3 
	26.2,90 26.2,93.8 25.3,93.8 "/>
<polygon class="st0" points="32.1,88.5 35.1,88.5 35.1,89.4 33,89.4 33,90.9 34.9,90.9 34.9,91.8 33,91.8 33,93.8 32.1,93.8 "/>
<path class="st0" d="M38.5,88.5c1.6,0,2.7,1.1,2.7,2.7c0,1.6-1.2,2.7-2.7,2.7c-1.6,0-2.7-1.1-2.7-2.7C35.8,89.7,36.9,88.5,38.5,88.5
	 M38.5,93c1.1,0,1.8-0.8,1.8-1.9c0-1.1-0.8-1.8-1.8-1.8c-1,0-1.8,0.8-1.8,1.8C36.8,92.2,37.5,93,38.5,93"/>
<path class="st0" d="M42.3,93.8v-5.3c0.3,0,1.4,0,1.6,0c1.4,0,1.9,0.7,1.9,1.6c0,0.9-0.6,1.4-1,1.5l1.6,2.1h-1.1l-1.4-2h-0.6v2
	L42.3,93.8L42.3,93.8z M43.3,89.4V91h0.6c0.5,0,1-0.3,1-0.8c0-0.4-0.2-0.8-1-0.8C43.7,89.4,43.5,89.4,43.3,89.4"/>
<polygon class="st0" points="46.3,88.5 50.7,88.5 50.7,89.4 49,89.4 49,93.8 48.1,93.8 48.1,89.4 46.3,89.4 "/>
<path class="st0" d="M37.5,33.8c0-3-2.4-5.4-5.4-5.4c-3,0-5.4,2.4-5.4,5.4c0,3,2.4,5.4,5.4,5.4C35.1,39.2,37.5,36.8,37.5,33.8
	 M29.5,33.8c0-1.4,1.2-2.6,2.6-2.6c1.5,0,2.6,1.2,2.6,2.6c0,1.5-1.2,2.6-2.6,2.6C30.7,36.4,29.5,35.2,29.5,33.8"/>
<path class="st0" d="M45.5,46.4l3.4,3.5c-3.6,3.3-7.3,5.3-11.5,6.1c-1.5,0.3-2.7,0.9-3.7,1.5v-5.5h3.5v-3.3h-1.8c2.7-4,7-11,7-14.8
	c0-5.1-3.7-9.4-8.6-10.2v-1.7l4.9,0l-6.6-11.4l-6.6,11.4l4.9,0v1.7c-4.9,0.8-8.6,5-8.6,10.2c0,3.8,4.3,10.8,7,14.8h-1.8v3.3h3.5v5.4
	c-0.9-0.6-2-1.1-3.3-1.3c-4.6-1-8.7-3.1-12-6.1l3.5-3.5L6,43l3.4,12.7l3.5-3.5c3.7,3.5,8.4,5.9,13.6,7c2.8,0.6,4.3,2.9,4.3,2.9
	l1.4,2.2l1.4-2.2c0.1-0.1,1.5-2.3,4.5-2.9c4.8-1,9.1-3.3,13.2-7l3.5,3.5L58.2,43L45.5,46.4z M30.3,19.1l1.8-3.1l1.8,3.1L30.3,19.1z
	 M32.1,26.8c3.9,0,7,3.1,7,7c0,2.7-3.9,9.2-7,13.8c-3.1-4.6-7-11.1-7-13.8C25.1,29.9,28.3,26.8,32.1,26.8 M10.8,50.3l-0.9-3.5
	l3.5,0.9L10.8,50.3z M53.3,50.3l-2.5-2.5l3.5-0.9L53.3,50.3z"/>
</svg>
