<?xml version="1.0" encoding="utf-8"?>
<!-- Generator: Adobe Illustrator 15.0.0, SVG Export Plug-In . SVG Version: 6.00 Build 0)  -->
<!DOCTYPE svg PUBLIC "-//W3C//DTD SVG 1.1//EN" "http://www.w3.org/Graphics/SVG/1.1/DTD/svg11.dtd">
<svg version="1.1" id="Layer_1" xmlns="http://www.w3.org/2000/svg" xmlns:xlink="http://www.w3.org/1999/xlink" x="0px" y="0px"
	 width="595.28px" height="841.89px" viewBox="0 0 595.28 841.89" enable-background="new 0 0 595.28 841.89" xml:space="preserve">
<path fill="#DADADA" d="M293.557,410.888c-3.992,3.989-3.989,10.457,0,14.448c3.988,3.985,10.458,3.988,14.446,0
	c3.986-3.991,3.986-10.46,0-14.448C304.015,406.898,297.545,406.898,293.557,410.888 M305.888,423.224
	c-2.819,2.821-7.398,2.824-10.219,0c-2.825-2.824-2.825-7.404,0-10.226c2.821-2.822,7.398-2.821,10.219,0
	C308.711,415.822,308.711,420.399,305.888,423.224"/>
<polygon fill="#DADADA" points="295.773,425.012 288.686,432.097 286.791,430.202 293.878,423.121 "/>
<polygon fill="#DADADA" points="294.629,428.156 287.895,434.89 284,430.999 290.735,424.266 "/>
</svg>
