<?xml version="1.0" encoding="utf-8"?>
<!-- Generator: Adobe Illustrator 15.0.0, SVG Export Plug-In . SVG Version: 6.00 Build 0)  -->
<!DOCTYPE svg PUBLIC "-//W3C//DTD SVG 1.1//EN" "http://www.w3.org/Graphics/SVG/1.1/DTD/svg11.dtd">
<svg version="1.1" id="Layer_1" xmlns="http://www.w3.org/2000/svg" xmlns:xlink="http://www.w3.org/1999/xlink" x="0px" y="0px"
	 width="595.28px" height="841.89px" viewBox="0 0 595.28 841.89" enable-background="new 0 0 595.28 841.89" xml:space="preserve">
<g opacity="0.9">
	<path fill="#73A3D9" d="M303.783,487.89h-12.603c0-0.702-0.037-2.503-0.037-3.295c0-3.602,1.945-4.663,3.908-4.663
		c2.052,0,3.961,1.458,3.961,4.537c0,0.504-0.019,1.261-0.072,1.891h4.843V487.89z M292.621,486.359h4.861
		c0.054-0.612,0.09-1.207,0.09-1.837c0-1.854-0.954-2.971-2.538-2.971c-1.495,0-2.449,0.9-2.449,2.898
		C292.584,484.955,292.603,485.766,292.621,486.359"/>
	<path fill="#73A3D9" d="M291,471.977c0-3.655,2.646-6.428,6.481-6.428c3.746,0,6.482,2.772,6.482,6.428s-2.647,6.428-6.482,6.428
		C293.826,478.404,291,475.722,291,471.977 M302.523,471.977c0-2.881-2.197-4.808-5.042-4.808c-2.935,0-5.041,2.106-5.041,4.808
		c0,2.737,2.106,4.808,5.041,4.808C300.345,476.784,302.523,474.678,302.523,471.977"/>
	<path fill="#73A3D9" d="M303.783,462.762h-12.603c0-0.702-0.037-3.024-0.037-3.384c0-3.439,1.711-4.484,3.746-4.484
		c1.962,0,3.205,1.351,3.563,2.737l5.33-4.195v1.872l-5.041,3.871v2.054h5.041V462.762z M292.621,461.232h4.681v-1.854
		c0-1.459-0.9-2.863-2.394-2.863c-1.297,0-2.323,0.72-2.323,2.952C292.584,459.863,292.603,460.638,292.621,461.232"/>
	<polygon fill="#73A3D9" points="291.18,453.654 291.18,443.302 292.62,443.302 292.62,447.713 303.784,447.713 303.784,449.244 
		292.62,449.244 292.62,453.654 	"/>
	<path fill="#73A3D9" d="M302.56,432.447c0.863,0.846,1.404,2.413,1.404,3.979c0,3.781-2.557,6.393-6.481,6.393
		c-3.619,0-6.482-2.341-6.482-6.284c0-1.62,0.45-2.935,1.224-3.835l1.152,0.703c-0.612,0.828-0.936,1.8-0.936,3.114
		c0,2.736,2.053,4.682,5.042,4.682c3.007,0,5.041-1.999,5.041-4.916c0-1.206-0.414-2.358-1.116-3.223L302.56,432.447z"/>
	<path fill="#73A3D9" d="M291,425.069c0-3.655,2.646-6.429,6.481-6.429c3.746,0,6.482,2.773,6.482,6.429
		c0,3.654-2.647,6.428-6.482,6.428C293.826,431.497,291,428.813,291,425.069 M302.523,425.069c0-2.882-2.197-4.809-5.042-4.809
		c-2.935,0-5.041,2.106-5.041,4.809c0,2.736,2.106,4.807,5.041,4.807C300.345,429.876,302.523,427.77,302.523,425.069"/>
	<polygon fill="#73A3D9" points="291.18,415.854 291.18,414.307 297.645,409.57 291.18,405.033 291.18,403.574 303.784,403.574 
		303.784,405.105 293.593,405.105 299.858,409.57 299.858,409.805 293.646,414.324 303.784,414.324 303.784,415.854 	"/>
	<polygon fill="#73A3D9" points="291.18,399.798 291.18,392.687 292.62,392.687 292.62,398.269 297.085,398.269 297.085,393.227 
		298.526,393.227 298.526,398.269 303.784,398.269 303.784,399.798 	"/>
	<path fill="#73A3D9" d="M291,384.533c0-3.655,2.646-6.428,6.481-6.428c3.746,0,6.482,2.773,6.482,6.428
		c0,3.655-2.647,6.428-6.482,6.428C293.826,390.961,291,388.278,291,384.533 M302.523,384.533c0-2.881-2.197-4.808-5.042-4.808
		c-2.935,0-5.041,2.107-5.041,4.808c0,2.737,2.106,4.808,5.041,4.808C300.345,389.341,302.523,387.234,302.523,384.533"/>
	<path fill="#73A3D9" d="M303.783,375.318h-12.603c0-0.702-0.037-3.025-0.037-3.384c0-3.439,1.711-4.484,3.746-4.484
		c1.962,0,3.205,1.35,3.563,2.737l5.33-4.195v1.872l-5.041,3.871v2.053h5.041V375.318z M292.621,373.789h4.681v-1.854
		c0-1.459-0.9-2.863-2.394-2.863c-1.297,0-2.323,0.719-2.323,2.952C292.584,372.419,292.603,373.194,292.621,373.789"/>
	<polygon fill="#73A3D9" points="291.18,366.211 291.18,355.858 292.62,355.858 292.62,360.27 303.784,360.27 303.784,361.8 
		292.62,361.8 292.62,366.211 	"/>
	<rect x="291" y="355.858" fill="none" width="12.964" height="132.031"/>
</g>
</svg>
