<?xml version="1.0" encoding="utf-8"?>
<!-- Generator: Adobe Illustrator 15.0.0, SVG Export Plug-In . SVG Version: 6.00 Build 0)  -->
<!DOCTYPE svg PUBLIC "-//W3C//DTD SVG 1.1//EN" "http://www.w3.org/Graphics/SVG/1.1/DTD/svg11.dtd">
<svg version="1.1" id="Layer_1" xmlns="http://www.w3.org/2000/svg" xmlns:xlink="http://www.w3.org/1999/xlink" x="0px" y="0px"
	 width="595.28px" height="841.89px" viewBox="0 0 595.28 841.89" enable-background="new 0 0 595.28 841.89" xml:space="preserve">
<path fill="#31556A" d="M95,477.89V365.886c6.24,0,34.881-0.318,38.081-0.318c30.561,0,41.441,15.199,41.441,35.84
	c0,20.799-12.8,29.281-18.88,32.32l32.64,44.162h-31.04l-27.201-39.201h-9.44v39.201H95z M120.601,389.888v24.801h9.28
	c9.76,0,17.44-3.522,17.44-12.961c0-6.24-3.199-12.16-15.52-12.16C127.961,389.568,125.881,389.728,120.601,389.888"/>
<polygon fill="#31556A" points="202.679,365.886 269.08,365.886 269.08,389.888 228.279,389.888 228.279,409.568 264.279,409.568 
	264.279,433.567 228.279,433.567 228.279,453.888 270.68,453.888 270.68,477.89 202.679,477.89 "/>
<polygon fill="#31556A" points="371.8,477.89 318.679,410.688 318.679,477.89 294.678,477.89 294.678,365.886 315.159,365.886 
	368.279,433.407 368.279,365.886 392.279,365.886 392.279,477.89 "/>
<polygon fill="#31556A" points="408.276,365.886 501.078,365.886 501.078,389.888 467.478,389.888 467.478,477.89 441.878,477.89 
	441.878,389.888 408.276,389.888 "/>
</svg>
