<?xml version="1.0" encoding="utf-8"?>
<!-- Generator: Adobe Illustrator 15.0.0, SVG Export Plug-In . SVG Version: 6.00 Build 0)  -->
<!DOCTYPE svg PUBLIC "-//W3C//DTD SVG 1.1//EN" "http://www.w3.org/Graphics/SVG/1.1/DTD/svg11.dtd">
<svg version="1.1" id="Layer_1" xmlns="http://www.w3.org/2000/svg" xmlns:xlink="http://www.w3.org/1999/xlink" x="0px" y="0px"
	 width="595.28px" height="841.89px" viewBox="0 0 595.28 841.89" enable-background="new 0 0 595.28 841.89" xml:space="preserve">
<path fill="#2A556B" d="M157.23,334.308c0-16.057,12.787-30.033,33.603-30.033c13.38,0,24.085,4.461,30.627,11.448l-12.786,17.842
	c-4.609-4.312-8.029-6.987-15.76-6.987c-6.542,0-10.408,2.972-10.408,7.73c0,17.248,43.415,13.084,43.415,46.984
	c0,18.139-15.611,30.628-35.683,30.628c-13.977,0-30.183-5.947-35.238-17.098l13.53-16.206c5.947,7.583,15.017,11.003,22.303,11.003
	c6.244,0,9.812-3.123,9.812-8.03C200.645,365.978,157.23,367.911,157.23,334.308"/>
<polygon fill="#2A556B" points="245.25,306.059 306.953,306.059 306.953,328.36 269.04,328.36 269.04,346.648 302.492,346.648 
	302.492,368.952 269.04,368.952 269.04,387.833 308.439,387.833 308.439,410.136 245.25,410.136 "/>
<path fill="#2A556B" d="M360.629,306.059h21.262l43.266,104.077h-25.424l-8.624-21.856h-41.185l-8.623,21.856h-23.938
	L360.629,306.059z M358.845,365.978h23.343l-11.597-29.439L358.845,365.978z"/>
<path fill="#2A556B" d="M162.434,537.105V433.028c5.799,0,32.413-0.297,35.387-0.297c28.398,0,38.508,14.124,38.508,33.305
	c0,19.328-11.895,27.208-17.544,30.033l30.331,41.036h-28.845l-25.275-36.427h-8.773v36.427H162.434z M186.223,455.331v23.045h8.624
	c9.07,0,16.207-3.271,16.207-12.043c0-5.799-2.974-11.3-14.423-11.3C193.062,455.033,191.13,455.182,186.223,455.331"/>
<path fill="#2A556B" d="M339.068,526.847c-6.244,6.988-19.774,12.043-33.898,12.043c-32.265,0-54.567-21.41-54.567-53.822
	c0-29.886,18.586-53.824,54.417-53.824c13.827,0,25.573,4.759,31.818,10.854l-10.557,17.842c-5.65-3.419-11.448-6.394-21.262-6.394
	c-16.058,0-29.142,11.003-29.142,31.521c0,18.436,12.787,31.52,31.521,31.52c7.435,0,15.611-2.379,22.6-7.582L339.068,526.847z"/>
<polygon fill="#2A556B" points="417.128,495.177 379.215,495.177 379.215,537.105 355.426,537.105 355.426,433.028 379.215,433.028 
	379.215,472.875 417.128,472.875 417.128,433.028 440.917,433.028 440.917,537.105 417.128,537.105 "/>
</svg>
