<?xml version="1.0" encoding="utf-8"?>
<!-- Generator: Adobe Illustrator 15.0.0, SVG Export Plug-In . SVG Version: 6.00 Build 0)  -->
<!DOCTYPE svg PUBLIC "-//W3C//DTD SVG 1.1//EN" "http://www.w3.org/Graphics/SVG/1.1/DTD/svg11.dtd">
<svg version="1.1" id="Layer_1" xmlns="http://www.w3.org/2000/svg" xmlns:xlink="http://www.w3.org/1999/xlink" x="0px" y="0px"
	 width="595.28px" height="841.89px" viewBox="0 0 595.28 841.89" enable-background="new 0 0 595.28 841.89" xml:space="preserve">
<rect x="142.5" y="397.995" fill="#89C0EC" width="310.975" height="47.395"/>
<g>
	<defs>
		<rect id="SVGID_1_" x="142" y="397.494" width="311.976" height="48.396"/>
	</defs>
	<clipPath id="SVGID_2_">
		<use xlink:href="#SVGID_1_"  overflow="visible"/>
	</clipPath>
	
		<rect x="142.5" y="397.994" clip-path="url(#SVGID_2_)" fill="none" stroke="#89C0EC" stroke-miterlimit="10" width="310.976" height="47.396"/>
	<path clip-path="url(#SVGID_2_)" fill="#FFFFFF" d="M232.476,418.808c0-2.12,1.638-3.842,4.43-3.842
		c1.701,0,3.213,0.61,4.052,1.533l-0.965,1.344c-0.777-0.777-1.701-1.197-2.982-1.197c-1.638,0-2.645,0.861-2.645,2.162
		c0,3.633,7.18,2.268,7.18,7.286c0,2.415-2.12,3.989-4.787,3.989c-1.805,0-3.905-0.818-4.64-2.205l1.029-1.216
		c0.861,1.132,2.393,1.741,3.632,1.741c1.533,0,2.877-0.798,2.877-2.289C239.657,422.524,232.476,423.679,232.476,418.808"/>
	<polygon clip-path="url(#SVGID_2_)" fill="#FFFFFF" points="244.803,415.176 253.096,415.176 253.096,416.856 246.588,416.856 
		246.588,421.601 252.467,421.601 252.467,423.279 246.588,423.279 246.588,428.193 253.306,428.193 253.306,429.873 
		244.803,429.873 	"/>
	<path clip-path="url(#SVGID_2_)" fill="#FFFFFF" d="M261.308,415.092h1.532l6.32,14.781h-1.91l-1.89-4.451h-6.698l-1.869,4.451
		h-1.805L261.308,415.092z M259.376,423.742h5.291l-2.645-6.278L259.376,423.742z"/>
	<path clip-path="url(#SVGID_2_)" fill="#FFFFFF" d="M271.682,429.873v-14.698c0.819,0,3.528-0.042,3.948-0.042
		c4.01,0,5.228,1.994,5.228,4.368c0,2.289-1.575,3.737-3.192,4.157l4.892,6.215h-2.183l-4.514-5.879h-2.394v5.879H271.682z
		 M273.467,416.855v5.459h2.163c1.7,0,3.338-1.05,3.338-2.792c0-1.512-0.84-2.709-3.443-2.709
		C275.063,416.813,274.16,416.834,273.467,416.855"/>
	<path clip-path="url(#SVGID_2_)" fill="#FFFFFF" d="M295.557,428.445c-0.987,1.008-2.813,1.638-4.64,1.638
		c-4.409,0-7.454-2.981-7.454-7.559c0-4.221,2.73-7.558,7.328-7.558c1.89,0,3.422,0.525,4.472,1.427l-0.819,1.344
		c-0.966-0.714-2.099-1.092-3.632-1.092c-3.192,0-5.459,2.394-5.459,5.879c0,3.506,2.33,5.879,5.732,5.879
		c1.407,0,2.75-0.482,3.758-1.302L295.557,428.445z"/>
	<polygon clip-path="url(#SVGID_2_)" fill="#FFFFFF" points="308.262,423.218 300.18,423.218 300.18,429.873 298.395,429.873 
		298.395,415.176 300.18,415.176 300.18,421.538 308.262,421.538 308.262,415.176 310.047,415.176 310.047,429.873 308.262,429.873 
			"/>
	<polygon clip-path="url(#SVGID_2_)" fill="#FFFFFF" points="317.189,415.176 329.262,415.176 329.262,416.856 324.118,416.856 
		324.118,429.873 322.333,429.873 322.333,416.856 317.189,416.856 	"/>
	<path clip-path="url(#SVGID_2_)" fill="#FFFFFF" d="M334.66,415.092h1.532l6.32,14.781h-1.91l-1.891-4.451h-6.697l-1.869,4.451
		h-1.806L334.66,415.092z M332.729,423.742h5.291l-2.646-6.278L332.729,423.742z"/>
	<polygon clip-path="url(#SVGID_2_)" fill="#FFFFFF" points="350.703,422.398 356.1,429.873 353.979,429.873 349.527,423.763 
		345.098,429.873 342.998,429.873 348.394,422.398 343.229,415.175 345.328,415.175 349.591,421.055 353.79,415.175 355.91,415.175 
			"/>
	<rect x="359.146" y="415.176" clip-path="url(#SVGID_2_)" fill="#FFFFFF" width="1.784" height="14.697"/>
</g>
</svg>
