<?xml version="1.0" encoding="utf-8"?>
<!-- Generator: Adobe Illustrator 15.0.0, SVG Export Plug-In . SVG Version: 6.00 Build 0)  -->
<!DOCTYPE svg PUBLIC "-//W3C//DTD SVG 1.1//EN" "http://www.w3.org/Graphics/SVG/1.1/DTD/svg11.dtd">
<svg version="1.1" id="Layer_1" xmlns="http://www.w3.org/2000/svg" xmlns:xlink="http://www.w3.org/1999/xlink" x="0px" y="0px"
	 width="595.28px" height="841.89px" viewBox="0 0 595.28 841.89" enable-background="new 0 0 595.28 841.89" xml:space="preserve">
<rect x="142.5" y="397.995" fill="#89C0EC" width="310.975" height="47.395"/>
<g>
	<defs>
		<rect id="SVGID_1_" x="142" y="397.494" width="311.976" height="48.396"/>
	</defs>
	<clipPath id="SVGID_2_">
		<use xlink:href="#SVGID_1_"  overflow="visible"/>
	</clipPath>
	
		<rect x="142.5" y="397.994" clip-path="url(#SVGID_2_)" fill="none" stroke="#89C0EC" stroke-miterlimit="10" width="310.976" height="47.396"/>
	<path clip-path="url(#SVGID_2_)" fill="#FFFFFF" d="M196.092,418.808c0-2.12,1.638-3.842,4.43-3.842
		c1.701,0,3.213,0.61,4.052,1.533l-0.965,1.344c-0.777-0.777-1.701-1.197-2.982-1.197c-1.638,0-2.645,0.861-2.645,2.162
		c0,3.633,7.18,2.268,7.18,7.286c0,2.415-2.12,3.989-4.787,3.989c-1.805,0-3.905-0.818-4.64-2.205l1.029-1.216
		c0.861,1.132,2.393,1.741,3.632,1.741c1.533,0,2.877-0.798,2.877-2.289C203.273,422.524,196.092,423.679,196.092,418.808"/>
	<polygon clip-path="url(#SVGID_2_)" fill="#FFFFFF" points="208.419,415.176 216.712,415.176 216.712,416.856 210.204,416.856 
		210.204,421.601 216.083,421.601 216.083,423.279 210.204,423.279 210.204,428.193 216.922,428.193 216.922,429.873 
		208.419,429.873 	"/>
	<path clip-path="url(#SVGID_2_)" fill="#FFFFFF" d="M224.924,415.092h1.532l6.32,14.781h-1.91l-1.89-4.451h-6.698l-1.869,4.451
		h-1.805L224.924,415.092z M222.992,423.742h5.291l-2.645-6.278L222.992,423.742z"/>
	<path clip-path="url(#SVGID_2_)" fill="#FFFFFF" d="M235.298,429.873v-14.698c0.819,0,3.528-0.042,3.948-0.042
		c4.01,0,5.228,1.994,5.228,4.368c0,2.289-1.575,3.737-3.192,4.157l4.892,6.215h-2.183l-4.514-5.879h-2.394v5.879H235.298z
		 M237.083,416.855v5.459h2.163c1.7,0,3.338-1.05,3.338-2.792c0-1.512-0.84-2.709-3.443-2.709
		C238.679,416.813,237.776,416.834,237.083,416.855"/>
	<path clip-path="url(#SVGID_2_)" fill="#FFFFFF" d="M259.173,428.445c-0.987,1.008-2.813,1.638-4.64,1.638
		c-4.409,0-7.454-2.981-7.454-7.559c0-4.221,2.73-7.558,7.328-7.558c1.89,0,3.422,0.525,4.472,1.427l-0.819,1.344
		c-0.966-0.714-2.099-1.092-3.632-1.092c-3.192,0-5.459,2.394-5.459,5.879c0,3.506,2.33,5.879,5.732,5.879
		c1.407,0,2.75-0.482,3.758-1.302L259.173,428.445z"/>
	<polygon clip-path="url(#SVGID_2_)" fill="#FFFFFF" points="271.878,423.218 263.795,423.218 263.795,429.873 262.01,429.873 
		262.01,415.176 263.795,415.176 263.795,421.538 271.878,421.538 271.878,415.176 273.664,415.176 273.664,429.873 
		271.878,429.873 	"/>
	<path clip-path="url(#SVGID_2_)" fill="#FFFFFF" d="M293.739,428.445c-0.987,1.008-2.813,1.638-4.64,1.638
		c-4.409,0-7.454-2.981-7.454-7.559c0-4.221,2.73-7.558,7.328-7.558c1.89,0,3.422,0.525,4.472,1.427l-0.819,1.344
		c-0.966-0.714-2.099-1.092-3.632-1.092c-3.192,0-5.459,2.394-5.459,5.879c0,3.506,2.33,5.879,5.732,5.879
		c1.407,0,2.75-0.482,3.758-1.302L293.739,428.445z"/>
	<path clip-path="url(#SVGID_2_)" fill="#FFFFFF" d="M300.755,415.092h1.532l6.319,14.781h-1.909l-1.891-4.451h-6.698l-1.869,4.451
		h-1.805L300.755,415.092z M298.823,423.742h5.291l-2.646-6.278L298.823,423.742z"/>
	<path clip-path="url(#SVGID_2_)" fill="#FFFFFF" d="M311.129,429.873v-14.698c0.818,0,3.527-0.042,3.947-0.042
		c4.011,0,5.229,1.994,5.229,4.368c0,2.289-1.575,3.737-3.192,4.157l4.893,6.215h-2.184l-4.514-5.879h-2.394v5.879H311.129z
		 M312.914,416.855v5.459h2.162c1.7,0,3.339-1.05,3.339-2.792c0-1.512-0.841-2.709-3.443-2.709
		C314.51,416.813,313.606,416.834,312.914,416.855"/>
	<path clip-path="url(#SVGID_2_)" fill="#FFFFFF" d="M329.356,429.873v-14.698c0.818,0,3.527-0.042,3.947-0.042
		c4.011,0,5.229,1.994,5.229,4.368c0,2.289-1.575,3.737-3.192,4.157l4.893,6.215h-2.184l-4.514-5.879h-2.395v5.879H329.356z
		 M331.141,416.855v5.459h2.163c1.7,0,3.339-1.05,3.339-2.792c0-1.512-0.841-2.709-3.443-2.709
		C332.737,416.813,331.834,416.834,331.141,416.855"/>
	<polygon clip-path="url(#SVGID_2_)" fill="#FFFFFF" points="342.859,415.176 351.152,415.176 351.152,416.856 344.645,416.856 
		344.645,421.601 350.523,421.601 350.523,423.279 344.645,423.279 344.645,428.193 351.362,428.193 351.362,429.873 
		342.859,429.873 	"/>
	<polygon clip-path="url(#SVGID_2_)" fill="#FFFFFF" points="365.789,429.873 356.614,418.325 356.614,429.873 354.934,429.873 
		354.934,415.176 356.362,415.176 365.537,426.766 365.537,415.176 367.217,415.176 367.217,429.873 	"/>
	<polygon clip-path="url(#SVGID_2_)" fill="#FFFFFF" points="369.635,415.176 381.707,415.176 381.707,416.856 376.563,416.856 
		376.563,429.873 374.778,429.873 374.778,416.856 369.635,416.856 	"/>
	<path clip-path="url(#SVGID_2_)" fill="#FFFFFF" d="M387.105,415.092h1.532l6.32,14.781h-1.91l-1.891-4.451h-6.697l-1.869,4.451
		h-1.806L387.105,415.092z M385.174,423.742h5.291l-2.646-6.278L385.174,423.742z"/>
	<polygon clip-path="url(#SVGID_2_)" fill="#FFFFFF" points="397.479,415.176 399.265,415.176 399.265,428.193 406.508,428.193 
		406.508,429.873 397.479,429.873 	"/>
</g>
</svg>
