<?xml version="1.0" encoding="utf-8"?>
<!-- Generator: Adobe Illustrator 15.0.0, SVG Export Plug-In . SVG Version: 6.00 Build 0)  -->
<!DOCTYPE svg PUBLIC "-//W3C//DTD SVG 1.1//EN" "http://www.w3.org/Graphics/SVG/1.1/DTD/svg11.dtd">
<svg version="1.1" id="Layer_1" xmlns="http://www.w3.org/2000/svg" xmlns:xlink="http://www.w3.org/1999/xlink" x="0px" y="0px"
	 width="595.28px" height="841.89px" viewBox="0 0 595.28 841.89" enable-background="new 0 0 595.28 841.89" xml:space="preserve">
<g>
	<defs>
		<rect id="SVGID_1_" x="2" y="288.14" width="592.069" height="266.75"/>
	</defs>
	<clipPath id="SVGID_2_">
		<use xlink:href="#SVGID_1_"  overflow="visible"/>
	</clipPath>
	<path clip-path="url(#SVGID_2_)" fill="#001681" d="M7.526,362.564c0-39.791,31.686-74.425,83.267-74.425
		c33.16,0,59.687,11.054,75.899,28.37l-31.686,44.213c-11.422-10.685-19.896-17.317-39.055-17.317
		c-16.211,0-25.79,7.369-25.79,19.159c0,42.739,107.584,32.423,107.584,116.427c0,44.949-38.686,75.898-88.426,75.898
		c-34.633,0-74.793-14.738-87.32-42.37l33.528-40.16c14.738,18.79,37.213,27.265,55.266,27.265c15.474,0,24.317-7.737,24.317-19.896
		C115.11,441.042,7.526,445.831,7.526,362.564"/>
	<polygon clip-path="url(#SVGID_2_)" fill="#001681" points="225.636,292.561 378.537,292.561 378.537,347.827 284.585,347.827 
		284.585,393.145 367.484,393.145 367.484,448.411 284.585,448.411 284.585,495.202 382.222,495.202 382.222,550.468 
		225.636,550.468 	"/>
	<polygon clip-path="url(#SVGID_2_)" fill="#001681" points="437.483,292.561 590.385,292.561 590.385,347.827 496.434,347.827 
		496.434,393.145 579.332,393.145 579.332,448.411 496.434,448.411 496.434,495.202 594.069,495.202 594.069,550.468 
		437.483,550.468 	"/>
</g>
</svg>
