<?xml version="1.0" encoding="utf-8"?>
<!-- Generator: Adobe Illustrator 15.0.0, SVG Export Plug-In . SVG Version: 6.00 Build 0)  -->
<!DOCTYPE svg PUBLIC "-//W3C//DTD SVG 1.1//EN" "http://www.w3.org/Graphics/SVG/1.1/DTD/svg11.dtd">
<svg version="1.1" id="Layer_1" xmlns="http://www.w3.org/2000/svg" xmlns:xlink="http://www.w3.org/1999/xlink" x="0px" y="0px"
	 width="595.28px" height="841.89px" viewBox="0 0 595.28 841.89" enable-background="new 0 0 595.28 841.89" xml:space="preserve">
<g>
	<defs>
		<rect id="SVGID_1_" x="148" y="398.613" width="299.43" height="46.277"/>
	</defs>
	<clipPath id="SVGID_2_">
		<use xlink:href="#SVGID_1_"  overflow="visible"/>
	</clipPath>
	<path clip-path="url(#SVGID_2_)" fill="#FFFFFF" d="M163.445,419.343c0-1.96,1.514-3.552,4.095-3.552
		c1.572,0,2.97,0.563,3.746,1.417l-0.892,1.242c-0.719-0.718-1.573-1.106-2.757-1.106c-1.513,0-2.445,0.796-2.445,1.999
		c0,3.356,6.638,2.096,6.638,6.735c0,2.231-1.96,3.688-4.426,3.688c-1.668,0-3.609-0.757-4.289-2.038l0.951-1.126
		c0.796,1.048,2.213,1.611,3.358,1.611c1.417,0,2.659-0.738,2.659-2.116C170.083,422.779,163.445,423.846,163.445,419.343"/>
	<polygon clip-path="url(#SVGID_2_)" fill="#FFFFFF" points="174.841,415.984 182.508,415.984 182.508,417.537 176.491,417.537 
		176.491,421.923 181.925,421.923 181.925,423.477 176.491,423.477 176.491,428.019 182.702,428.019 182.702,429.571 
		174.841,429.571 	"/>
	<polygon clip-path="url(#SVGID_2_)" fill="#FFFFFF" points="186.003,415.984 187.653,415.984 187.653,428.019 194.35,428.019 
		194.35,429.571 186.003,429.571 	"/>
	<polygon clip-path="url(#SVGID_2_)" fill="#FFFFFF" points="196.68,415.984 204.347,415.984 204.347,417.537 198.33,417.537 
		198.33,421.923 203.764,421.923 203.764,423.477 198.33,423.477 198.33,428.019 204.541,428.019 204.541,429.571 196.68,429.571 	
		"/>
	<path clip-path="url(#SVGID_2_)" fill="#FFFFFF" d="M217.955,428.252c-0.912,0.932-2.601,1.514-4.29,1.514
		c-4.075,0-6.89-2.756-6.89-6.988c0-3.9,2.524-6.986,6.774-6.986c1.747,0,3.164,0.485,4.134,1.319l-0.757,1.243
		c-0.892-0.66-1.941-1.009-3.357-1.009c-2.951,0-5.047,2.213-5.047,5.434c0,3.242,2.155,5.436,5.299,5.436
		c1.3,0,2.542-0.446,3.474-1.203L217.955,428.252z"/>
	<polygon clip-path="url(#SVGID_2_)" fill="#FFFFFF" points="218.734,415.984 229.894,415.984 229.894,417.537 225.139,417.537 
		225.139,429.571 223.489,429.571 223.489,417.537 218.734,417.537 	"/>
	<polygon clip-path="url(#SVGID_2_)" fill="#FFFFFF" points="236.496,415.984 238.146,415.984 238.146,428.019 244.842,428.019 
		244.842,429.571 236.496,429.571 	"/>
	<rect x="247.561" y="415.985" clip-path="url(#SVGID_2_)" fill="#FFFFFF" width="1.65" height="13.586"/>
	<polygon clip-path="url(#SVGID_2_)" fill="#FFFFFF" points="263.711,429.571 255.229,418.896 255.229,429.571 253.677,429.571 
		253.677,415.984 254.996,415.984 263.478,426.699 263.478,415.984 265.031,415.984 265.031,429.571 	"/>
	<polygon clip-path="url(#SVGID_2_)" fill="#FFFFFF" points="269.109,415.984 276.776,415.984 276.776,417.537 270.759,417.537 
		270.759,421.923 276.193,421.923 276.193,423.477 270.759,423.477 270.759,428.019 276.97,428.019 276.97,429.571 269.109,429.571 
			"/>
	<path clip-path="url(#SVGID_2_)" fill="#FFFFFF" d="M280.272,429.571v-13.587c0.757,0,3.261-0.038,3.649-0.038
		c3.707,0,4.833,1.844,4.833,4.037c0,2.117-1.456,3.455-2.95,3.843l4.522,5.745h-2.018l-4.173-5.435h-2.213v5.435H280.272z
		 M281.922,417.537v5.047h1.999c1.572,0,3.086-0.971,3.086-2.581c0-1.398-0.776-2.504-3.183-2.504
		C283.397,417.499,282.563,417.518,281.922,417.537"/>
	
		<rect x="148.5" y="399.113" clip-path="url(#SVGID_2_)" fill="none" stroke="#89C0EC" stroke-miterlimit="10" width="298.43" height="45.277"/>
	<polygon clip-path="url(#SVGID_2_)" fill="#89C0EC" points="431.591,422.4 427.233,426.759 422.877,422.4 	"/>
	<polygon clip-path="url(#SVGID_2_)" fill="#89C0EC" points="422.881,419.508 427.236,415.147 431.595,419.508 	"/>
</g>
</svg>
