<?xml version="1.0" encoding="utf-8"?>
<!-- Generator: Adobe Illustrator 15.0.0, SVG Export Plug-In . SVG Version: 6.00 Build 0)  -->
<!DOCTYPE svg PUBLIC "-//W3C//DTD SVG 1.1//EN" "http://www.w3.org/Graphics/SVG/1.1/DTD/svg11.dtd">
<svg version="1.1" id="Layer_1" xmlns="http://www.w3.org/2000/svg" xmlns:xlink="http://www.w3.org/1999/xlink" x="0px" y="0px"
	 width="595.28px" height="841.89px" viewBox="0 0 595.28 841.89" enable-background="new 0 0 595.28 841.89" xml:space="preserve">
<g>
	<defs>
		<rect id="SVGID_1_" x="148" y="398.613" width="299.43" height="46.277"/>
	</defs>
	<clipPath id="SVGID_2_">
		<use xlink:href="#SVGID_1_"  overflow="visible"/>
	</clipPath>
	<path clip-path="url(#SVGID_2_)" fill="#FFFFFF" d="M163.445,419.337c0-1.96,1.514-3.552,4.095-3.552
		c1.572,0,2.97,0.563,3.746,1.417l-0.892,1.242c-0.719-0.718-1.573-1.106-2.757-1.106c-1.513,0-2.445,0.796-2.445,1.999
		c0,3.356,6.638,2.096,6.638,6.735c0,2.231-1.96,3.688-4.426,3.688c-1.668,0-3.609-0.757-4.289-2.038l0.951-1.126
		c0.796,1.048,2.213,1.611,3.358,1.611c1.417,0,2.659-0.738,2.659-2.116C170.083,422.773,163.445,423.84,163.445,419.337"/>
	<polygon clip-path="url(#SVGID_2_)" fill="#FFFFFF" points="174.841,415.979 182.508,415.979 182.508,417.532 176.491,417.532 
		176.491,421.917 181.925,421.917 181.925,423.471 176.491,423.471 176.491,428.013 182.702,428.013 182.702,429.565 
		174.841,429.565 	"/>
	<polygon clip-path="url(#SVGID_2_)" fill="#FFFFFF" points="186.003,415.979 187.653,415.979 187.653,428.013 194.35,428.013 
		194.35,429.565 186.003,429.565 	"/>
	<polygon clip-path="url(#SVGID_2_)" fill="#FFFFFF" points="196.68,415.979 204.347,415.979 204.347,417.532 198.33,417.532 
		198.33,421.917 203.764,421.917 203.764,423.471 198.33,423.471 198.33,428.013 204.541,428.013 204.541,429.565 196.68,429.565 	
		"/>
	<path clip-path="url(#SVGID_2_)" fill="#FFFFFF" d="M217.955,428.246c-0.912,0.932-2.601,1.514-4.29,1.514
		c-4.075,0-6.89-2.756-6.89-6.988c0-3.9,2.524-6.986,6.774-6.986c1.747,0,3.164,0.485,4.134,1.319l-0.757,1.243
		c-0.892-0.66-1.941-1.009-3.357-1.009c-2.951,0-5.047,2.213-5.047,5.434c0,3.242,2.155,5.436,5.299,5.436
		c1.3,0,2.542-0.446,3.474-1.203L217.955,428.246z"/>
	<polygon clip-path="url(#SVGID_2_)" fill="#FFFFFF" points="218.734,415.979 229.894,415.979 229.894,417.532 225.139,417.532 
		225.139,429.565 223.489,429.565 223.489,417.532 218.734,417.532 	"/>
	<path clip-path="url(#SVGID_2_)" fill="#FFFFFF" d="M246.608,428.246c-0.912,0.932-2.601,1.514-4.289,1.514
		c-4.076,0-6.891-2.756-6.891-6.988c0-3.9,2.524-6.986,6.774-6.986c1.747,0,3.164,0.485,4.134,1.319l-0.757,1.243
		c-0.893-0.66-1.94-1.009-3.357-1.009c-2.951,0-5.047,2.213-5.047,5.434c0,3.242,2.154,5.436,5.299,5.436
		c1.3,0,2.542-0.446,3.474-1.203L246.608,428.246z"/>
	<rect x="249.619" y="415.979" clip-path="url(#SVGID_2_)" fill="#FFFFFF" width="1.65" height="13.587"/>
	<polygon clip-path="url(#SVGID_2_)" fill="#FFFFFF" points="253.89,415.979 265.05,415.979 265.05,417.532 260.295,417.532 
		260.295,429.565 258.645,429.565 258.645,417.532 253.89,417.532 	"/>
	<polygon clip-path="url(#SVGID_2_)" fill="#FFFFFF" points="271.904,423.742 271.904,429.565 270.254,429.565 270.254,423.742 
		265.441,415.978 267.343,415.978 271.147,422.189 274.971,415.978 276.776,415.978 	"/>
	
		<rect x="148.5" y="399.113" clip-path="url(#SVGID_2_)" fill="none" stroke="#89C0EC" stroke-miterlimit="10" width="298.43" height="45.277"/>
	<polygon clip-path="url(#SVGID_2_)" fill="#89C0EC" points="431.591,422.395 427.233,426.756 422.877,422.395 	"/>
	<polygon clip-path="url(#SVGID_2_)" fill="#89C0EC" points="422.881,419.505 427.236,415.146 431.595,419.505 	"/>
</g>
</svg>
