<?xml version="1.0" encoding="utf-8"?>
<!-- Generator: Adobe Illustrator 15.0.0, SVG Export Plug-In . SVG Version: 6.00 Build 0)  -->
<!DOCTYPE svg PUBLIC "-//W3C//DTD SVG 1.1//EN" "http://www.w3.org/Graphics/SVG/1.1/DTD/svg11.dtd">
<svg version="1.1" id="Layer_1" xmlns="http://www.w3.org/2000/svg" xmlns:xlink="http://www.w3.org/1999/xlink" x="0px" y="0px"
	 width="595.28px" height="841.89px" viewBox="0 0 595.28 841.89" enable-background="new 0 0 595.28 841.89" xml:space="preserve">
<g>
	<defs>
		<rect id="SVGID_1_" x="204" y="395.871" width="187.738" height="50.019"/>
	</defs>
	<clipPath id="SVGID_2_">
		<use xlink:href="#SVGID_1_"  overflow="visible"/>
	</clipPath>
	
		<rect x="204.5" y="396.371" clip-path="url(#SVGID_2_)" fill="none" stroke="#FFFFFF" stroke-miterlimit="10" width="186.738" height="49.019"/>
	<path clip-path="url(#SVGID_2_)" fill="#FFFFFF" d="M234.746,416.974c0-2.13,1.645-3.859,4.449-3.859
		c1.709,0,3.227,0.611,4.071,1.539l-0.971,1.35c-0.78-0.78-1.708-1.202-2.994-1.202c-1.645,0-2.657,0.865-2.657,2.172
		c0,3.648,7.212,2.278,7.212,7.317c0,2.426-2.13,4.007-4.808,4.007c-1.814,0-3.922-0.821-4.66-2.214l1.033-1.223
		c0.864,1.139,2.404,1.75,3.648,1.75c1.539,0,2.889-0.801,2.889-2.298C241.958,420.707,234.746,421.867,234.746,416.974"/>
	<polygon clip-path="url(#SVGID_2_)" fill="#FFFFFF" points="247.123,413.326 255.453,413.326 255.453,415.013 248.915,415.013 
		248.915,419.779 254.82,419.779 254.82,421.466 248.915,421.466 248.915,426.4 255.664,426.4 255.664,428.087 247.123,428.087 	"/>
	<polygon clip-path="url(#SVGID_2_)" fill="#FFFFFF" points="259.247,413.326 261.039,413.326 261.039,426.4 268.315,426.4 
		268.315,428.087 259.247,428.087 	"/>
	<polygon clip-path="url(#SVGID_2_)" fill="#FFFFFF" points="270.844,413.326 279.174,413.326 279.174,415.013 272.636,415.013 
		272.636,419.779 278.541,419.779 278.541,421.466 272.636,421.466 272.636,426.4 279.385,426.4 279.385,428.087 270.844,428.087 	
		"/>
	<path clip-path="url(#SVGID_2_)" fill="#FFFFFF" d="M293.955,426.653c-0.991,1.012-2.826,1.646-4.66,1.646
		c-4.429,0-7.486-2.995-7.486-7.592c0-4.238,2.741-7.591,7.359-7.591c1.898,0,3.437,0.527,4.492,1.434l-0.823,1.349
		c-0.97-0.717-2.109-1.096-3.648-1.096c-3.205,0-5.483,2.404-5.483,5.904c0,3.522,2.341,5.905,5.757,5.905
		c1.413,0,2.763-0.485,3.775-1.308L293.955,426.653z"/>
	<polygon clip-path="url(#SVGID_2_)" fill="#FFFFFF" points="294.797,413.326 306.922,413.326 306.922,415.013 301.756,415.013 
		301.756,428.087 299.964,428.087 299.964,415.013 294.797,415.013 	"/>
	<path clip-path="url(#SVGID_2_)" fill="#FFFFFF" d="M313.289,416.974c0-2.13,1.645-3.859,4.449-3.859
		c1.709,0,3.227,0.611,4.07,1.539l-0.971,1.35c-0.78-0.78-1.708-1.202-2.994-1.202c-1.645,0-2.657,0.865-2.657,2.172
		c0,3.648,7.212,2.278,7.212,7.317c0,2.426-2.13,4.007-4.808,4.007c-1.814,0-3.922-0.821-4.66-2.214l1.033-1.223
		c0.865,1.139,2.404,1.75,3.647,1.75c1.539,0,2.89-0.801,2.89-2.298C320.501,420.707,313.289,421.867,313.289,416.974"/>
	<polygon clip-path="url(#SVGID_2_)" fill="#FFFFFF" points="335.577,421.402 327.458,421.402 327.458,428.088 325.666,428.088 
		325.666,413.327 327.458,413.327 327.458,419.715 335.577,419.715 335.577,413.327 337.369,413.327 337.369,428.088 
		335.577,428.088 	"/>
	<rect x="342.219" y="413.327" clip-path="url(#SVGID_2_)" fill="#FFFFFF" width="1.792" height="14.761"/>
	<path clip-path="url(#SVGID_2_)" fill="#FFFFFF" d="M348.86,428.087v-14.761c0.822,0,2.932-0.042,3.859-0.042
		c4.217,0,5.461,2.277,5.461,4.576c0,2.404-1.708,4.639-5.314,4.639c-0.59,0-1.476-0.021-2.214-0.084v5.672H348.86z
		 M350.652,415.013v5.694c0.717,0.063,1.413,0.105,2.151,0.105c2.172,0,3.479-1.118,3.479-2.973c0-1.751-1.054-2.868-3.395-2.868
		C352.298,414.971,351.349,414.992,350.652,415.013"/>
</g>
</svg>
