<?xml version="1.0" encoding="utf-8"?>
<!-- Generator: Adobe Illustrator 15.0.0, SVG Export Plug-In . SVG Version: 6.00 Build 0)  -->
<!DOCTYPE svg PUBLIC "-//W3C//DTD SVG 1.1//EN" "http://www.w3.org/Graphics/SVG/1.1/DTD/svg11.dtd">
<svg version="1.1" id="Layer_1" xmlns="http://www.w3.org/2000/svg" xmlns:xlink="http://www.w3.org/1999/xlink" x="0px" y="0px"
	 width="595.28px" height="841.89px" viewBox="0 0 595.28 841.89" enable-background="new 0 0 595.28 841.89" xml:space="preserve">
<g>
	<defs>
		<rect id="SVGID_1_" x="141" y="396.892" width="312.973" height="47.998"/>
	</defs>
	<clipPath id="SVGID_2_">
		<use xlink:href="#SVGID_1_"  overflow="visible"/>
	</clipPath>
	<path clip-path="url(#SVGID_2_)" fill="#FFFFFF" d="M232.255,418.007c0-2.12,1.638-3.842,4.43-3.842
		c1.701,0,3.213,0.61,4.052,1.533l-0.965,1.344c-0.777-0.777-1.701-1.197-2.982-1.197c-1.638,0-2.645,0.861-2.645,2.162
		c0,3.633,7.18,2.268,7.18,7.286c0,2.415-2.12,3.989-4.787,3.989c-1.805,0-3.905-0.818-4.64-2.205l1.029-1.216
		c0.861,1.132,2.393,1.741,3.632,1.741c1.533,0,2.877-0.798,2.877-2.289C239.436,421.724,232.255,422.878,232.255,418.007"/>
	<polygon clip-path="url(#SVGID_2_)" fill="#FFFFFF" points="244.582,414.375 252.875,414.375 252.875,416.055 246.367,416.055 
		246.367,420.8 252.246,420.8 252.246,422.479 246.367,422.479 246.367,427.393 253.084,427.393 253.084,429.072 244.582,429.072 	
		"/>
	<polygon clip-path="url(#SVGID_2_)" fill="#FFFFFF" points="256.657,414.375 258.441,414.375 258.441,427.393 265.685,427.393 
		265.685,429.072 256.657,429.072 	"/>
	<polygon clip-path="url(#SVGID_2_)" fill="#FFFFFF" points="268.206,414.375 276.5,414.375 276.5,416.055 269.991,416.055 
		269.991,420.8 275.87,420.8 275.87,422.479 269.991,422.479 269.991,427.393 276.709,427.393 276.709,429.072 268.206,429.072 	"/>
	<path clip-path="url(#SVGID_2_)" fill="#FFFFFF" d="M291.22,427.645c-0.987,1.008-2.813,1.638-4.64,1.638
		c-4.409,0-7.454-2.981-7.454-7.559c0-4.221,2.73-7.558,7.328-7.558c1.89,0,3.422,0.525,4.472,1.427l-0.819,1.344
		c-0.966-0.714-2.099-1.092-3.632-1.092c-3.192,0-5.459,2.394-5.459,5.879c0,3.506,2.33,5.879,5.732,5.879
		c1.407,0,2.75-0.482,3.758-1.302L291.22,427.645z"/>
	<polygon clip-path="url(#SVGID_2_)" fill="#FFFFFF" points="292.062,414.375 304.136,414.375 304.136,416.055 298.991,416.055 
		298.991,429.072 297.206,429.072 297.206,416.055 292.062,416.055 	"/>
	<path clip-path="url(#SVGID_2_)" fill="#FFFFFF" d="M310.479,418.007c0-2.12,1.639-3.842,4.431-3.842c1.7,0,3.213,0.61,4.052,1.533
		l-0.965,1.344c-0.777-0.777-1.701-1.197-2.982-1.197c-1.638,0-2.645,0.861-2.645,2.162c0,3.633,7.18,2.268,7.18,7.286
		c0,2.415-2.12,3.989-4.787,3.989c-1.805,0-3.905-0.818-4.64-2.205l1.028-1.216c0.861,1.132,2.394,1.741,3.633,1.741
		c1.532,0,2.877-0.798,2.877-2.289C317.66,421.724,310.479,422.878,310.479,418.007"/>
	<polygon clip-path="url(#SVGID_2_)" fill="#FFFFFF" points="332.674,422.417 324.591,422.417 324.591,429.072 322.806,429.072 
		322.806,414.375 324.591,414.375 324.591,420.737 332.674,420.737 332.674,414.375 334.459,414.375 334.459,429.072 
		332.674,429.072 	"/>
	<rect x="339.29" y="414.375" clip-path="url(#SVGID_2_)" fill="#FFFFFF" width="1.785" height="14.697"/>
	<path clip-path="url(#SVGID_2_)" fill="#FFFFFF" d="M345.905,429.072v-14.698c0.818,0,2.919-0.042,3.843-0.042
		c4.199,0,5.438,2.268,5.438,4.557c0,2.393-1.7,4.619-5.291,4.619c-0.588,0-1.47-0.021-2.205-0.084v5.647H345.905z M347.689,416.055
		v5.669c0.715,0.062,1.407,0.105,2.143,0.105c2.162,0,3.464-1.113,3.464-2.961c0-1.742-1.05-2.855-3.38-2.855
		C349.328,416.013,348.383,416.034,347.689,416.055"/>
	
		<rect x="141.303" y="397.194" clip-path="url(#SVGID_2_)" fill="none" stroke="#89C0EC" stroke-width="0.605" stroke-miterlimit="10" width="312.367" height="47.393"/>
	<polygon clip-path="url(#SVGID_2_)" fill="#89C0EC" points="437.615,421.569 433.055,426.132 428.493,421.569 	"/>
	<polygon clip-path="url(#SVGID_2_)" fill="#89C0EC" points="428.496,418.541 433.058,413.978 437.618,418.541 	"/>
	<polygon clip-path="url(#SVGID_2_)" fill="#89C0EC" points="165.393,421.569 160.832,426.132 156.271,421.569 	"/>
	<polygon clip-path="url(#SVGID_2_)" fill="#89C0EC" points="156.273,418.541 160.835,413.978 165.396,418.541 	"/>
</g>
</svg>
