<?xml version="1.0" encoding="utf-8"?>
<!-- Generator: Adobe Illustrator 15.0.0, SVG Export Plug-In . SVG Version: 6.00 Build 0)  -->
<!DOCTYPE svg PUBLIC "-//W3C//DTD SVG 1.1//EN" "http://www.w3.org/Graphics/SVG/1.1/DTD/svg11.dtd">
<svg version="1.1" id="Layer_1" xmlns="http://www.w3.org/2000/svg" xmlns:xlink="http://www.w3.org/1999/xlink" x="0px" y="0px"
	 width="595.28px" height="841.89px" viewBox="0 0 595.28 841.89" enable-background="new 0 0 595.28 841.89" xml:space="preserve">
<g>
	<defs>
		<rect id="SVGID_1_" x="204" y="395.87" width="187.737" height="50.02"/>
	</defs>
	<clipPath id="SVGID_2_">
		<use xlink:href="#SVGID_1_"  overflow="visible"/>
	</clipPath>
	
		<rect x="204.5" y="396.37" clip-path="url(#SVGID_2_)" fill="none" stroke="#2A556B" stroke-miterlimit="10" width="186.737" height="49.02"/>
	<path clip-path="url(#SVGID_2_)" fill="#2A556B" d="M228.816,416.974c0-2.13,1.645-3.859,4.449-3.859
		c1.709,0,3.227,0.611,4.071,1.539l-0.971,1.35c-0.78-0.78-1.708-1.202-2.994-1.202c-1.645,0-2.657,0.865-2.657,2.172
		c0,3.648,7.212,2.278,7.212,7.317c0,2.426-2.13,4.007-4.808,4.007c-1.814,0-3.922-0.822-4.66-2.214l1.033-1.223
		c0.864,1.139,2.404,1.75,3.648,1.75c1.539,0,2.889-0.801,2.889-2.299C236.028,420.707,228.816,421.867,228.816,416.974"/>
	<polygon clip-path="url(#SVGID_2_)" fill="#2A556B" points="241.193,413.326 249.523,413.326 249.523,415.013 242.985,415.013 
		242.985,419.779 248.891,419.779 248.891,421.466 242.985,421.466 242.985,426.4 249.734,426.4 249.734,428.087 241.193,428.087 	
		"/>
	<polygon clip-path="url(#SVGID_2_)" fill="#2A556B" points="253.317,413.326 255.109,413.326 255.109,426.4 262.386,426.4 
		262.386,428.087 253.317,428.087 	"/>
	<polygon clip-path="url(#SVGID_2_)" fill="#2A556B" points="264.915,413.326 273.245,413.326 273.245,415.013 266.707,415.013 
		266.707,419.779 272.612,419.779 272.612,421.466 266.707,421.466 266.707,426.4 273.456,426.4 273.456,428.087 264.915,428.087 	
		"/>
	<path clip-path="url(#SVGID_2_)" fill="#2A556B" d="M288.025,426.653c-0.991,1.012-2.826,1.646-4.66,1.646
		c-4.429,0-7.486-2.995-7.486-7.591c0-4.239,2.741-7.592,7.359-7.592c1.898,0,3.437,0.527,4.492,1.434l-0.823,1.349
		c-0.97-0.717-2.109-1.096-3.648-1.096c-3.205,0-5.483,2.404-5.483,5.905c0,3.521,2.341,5.904,5.757,5.904
		c1.413,0,2.763-0.485,3.775-1.308L288.025,426.653z"/>
	<polygon clip-path="url(#SVGID_2_)" fill="#2A556B" points="288.868,413.326 300.993,413.326 300.993,415.013 295.827,415.013 
		295.827,428.087 294.035,428.087 294.035,415.013 288.868,415.013 	"/>
	<path clip-path="url(#SVGID_2_)" fill="#2A556B" d="M308.161,413.326h0.253c0.97,0,2.572-0.063,3.774-0.063
		c5.904,0,8.288,3.395,8.288,7.254c0,4.196-2.826,7.613-8.456,7.613c-0.992,0-2.384-0.043-3.628-0.043h-0.231V413.326z
		 M309.953,415.013V426.4c0.97,0.021,1.877,0.042,2.13,0.042c4.217,0,6.495-2.488,6.495-5.925c0-3.206-2.151-5.567-6.432-5.567
		C311.261,414.95,310.691,414.992,309.953,415.013"/>
	<path clip-path="url(#SVGID_2_)" fill="#2A556B" d="M327.687,413.242h1.539l6.348,14.846h-1.919l-1.897-4.472h-6.728l-1.877,4.472
		h-1.812L327.687,413.242z M325.747,421.93h5.313l-2.657-6.305L325.747,421.93z"/>
	<polygon clip-path="url(#SVGID_2_)" fill="#2A556B" points="334.645,413.326 346.77,413.326 346.77,415.013 341.604,415.013 
		341.604,428.087 339.812,428.087 339.812,415.013 334.645,415.013 	"/>
	<polygon clip-path="url(#SVGID_2_)" fill="#2A556B" points="349.193,413.326 357.523,413.326 357.523,415.013 350.985,415.013 
		350.985,419.779 356.891,419.779 356.891,421.466 350.985,421.466 350.985,426.4 357.734,426.4 357.734,428.087 349.193,428.087 	
		"/>
</g>
</svg>
