<?xml version="1.0" encoding="utf-8"?>
<!-- Generator: Adobe Illustrator 15.0.0, SVG Export Plug-In . SVG Version: 6.00 Build 0)  -->
<!DOCTYPE svg PUBLIC "-//W3C//DTD SVG 1.1//EN" "http://www.w3.org/Graphics/SVG/1.1/DTD/svg11.dtd">
<svg version="1.1" id="Layer_1" xmlns="http://www.w3.org/2000/svg" xmlns:xlink="http://www.w3.org/1999/xlink" x="0px" y="0px"
	 width="595.28px" height="841.89px" viewBox="0 0 595.28 841.89" enable-background="new 0 0 595.28 841.89" xml:space="preserve">
<path fill="#31556A" d="M627.585,311.423c-0.066,0.001-0.128,0.014-0.194,0.014c-3.797,0-7.055-2.149-8.729-5.272
	c-1.68,3.123-4.936,5.272-8.73,5.272s-7.053-2.149-8.727-5.272c-1.68,3.123-4.937,5.272-8.73,5.272c-3.798,0-7.055-2.15-8.73-5.275
	c-1.676,3.125-4.936,5.275-8.73,5.275c-3.797,0-7.053-2.149-8.73-5.272c-1.676,3.123-4.932,5.272-8.727,5.272
	c-3.799,0-7.055-2.149-8.73-5.272c-1.676,3.123-4.933,5.272-8.727,5.272c-3.799,0-7.055-2.15-8.73-5.276
	c-1.676,3.126-4.936,5.276-8.73,5.276c-3.799,0-7.055-2.149-8.73-5.272c-1.676,3.123-4.933,5.272-8.727,5.272
	c-3.799,0-7.055-2.149-8.73-5.272c-1.676,3.123-4.932,5.272-8.728,5.272c-3.797,0-7.054-2.149-8.729-5.272
	c-1.676,3.123-4.937,5.272-8.731,5.272c-3.798,0-7.054-2.149-8.729-5.272c-1.676,3.123-4.932,5.272-8.727,5.272
	c-3.799,0-7.057-2.149-8.73-5.272c-1.676,3.123-4.936,5.272-8.729,5.272c-3.796,0-7.053-2.149-8.728-5.272
	c-1.676,3.123-4.937,5.272-8.731,5.272c-3.798,0-7.055-2.149-8.729-5.272c-1.677,3.123-4.932,5.272-8.73,5.272
	c-3.795,0-7.052-2.149-8.727-5.272c-1.678,3.123-4.938,5.272-8.73,5.272c-3.797,0-7.054-2.149-8.729-5.272
	c-1.678,3.123-4.934,5.272-8.729,5.272c-3.797,0-7.056-2.149-8.73-5.275c-1.676,3.126-4.937,5.275-8.73,5.275
	c-3.795,0-7.051-2.149-8.729-5.272c-1.677,3.123-4.934,5.272-8.729,5.272s-7.051-2.149-8.727-5.272
	c-1.68,3.123-4.937,5.272-8.73,5.272c-3.799,0-7.055-2.15-8.73-5.275c-1.676,3.125-4.936,5.275-8.73,5.275
	c-3.797,0-7.052-2.149-8.731-5.272c-1.675,3.123-4.931,5.272-8.726,5.272c-3.799,0-7.057-2.149-8.731-5.272
	c-1.676,3.123-4.931,5.272-8.726,5.272c-3.799,0-7.059-2.15-8.731-5.275c-1.68,3.125-4.935,5.275-8.73,5.275
	c-3.799,0-7.055-2.149-8.731-5.272c-1.675,3.123-4.932,5.272-8.726,5.272c-3.799,0-7.055-2.149-8.731-5.272
	c-1.676,3.123-4.933,5.272-8.728,5.272c-3.797,0-7.053-2.149-8.729-5.272c-1.677,3.123-4.935,5.272-8.73,5.272
	c-3.799,0-7.055-2.149-8.731-5.272c-1.675,3.123-4.933,5.272-8.726,5.272c-3.799,0-7.055-2.149-8.731-5.272
	c-1.676,3.123-4.933,5.272-8.729,5.272c-3.796,0-7.054-2.149-8.729-5.272c-1.678,3.123-4.935,5.272-8.729,5.272
	c-3.799,0-7.056-2.149-8.732-5.272c-1.675,3.123-4.93,5.272-8.728,5.272c-3.796,0-7.057-2.149-8.728-5.272
	c-1.679,3.123-4.936,5.272-8.731,5.272c-3.794,0-7.053-2.149-8.727-5.272c-1.679,3.123-4.935,5.272-8.729,5.272
	c-3.799,0-7.055-2.15-8.731-5.275c-1.675,3.125-4.935,5.275-8.73,5.275c-3.798,0-7.055-2.149-8.729-5.272
	c-1.677,3.123-4.934,5.272-8.729,5.272c-3.799,0-7.056-2.149-8.731-5.272c-1.675,3.123-4.932,5.272-8.726,5.272
	c-3.799,0-7.057-2.15-8.732-5.275c-1.677,3.125-4.935,5.275-8.73,5.275c-3.798,0-7.054-2.149-8.73-5.272
	c-1.676,3.123-4.932,5.272-8.726,5.272c-3.799,0-7.055-2.149-8.731-5.272c-1.674,3.123-4.933,5.272-8.726,5.272
	c-3.799,0-7.058-2.149-8.731-5.275c-1.041,1.939-2.691,3.497-4.697,4.406V535.89h659.585V311.423z"/>
</svg>
