<?xml version="1.0" encoding="utf-8"?>
<!-- Generator: Adobe Illustrator 15.0.0, SVG Export Plug-In . SVG Version: 6.00 Build 0)  -->
<!DOCTYPE svg PUBLIC "-//W3C//DTD SVG 1.1//EN" "http://www.w3.org/Graphics/SVG/1.1/DTD/svg11.dtd">
<svg version="1.1" id="Layer_1" xmlns="http://www.w3.org/2000/svg" xmlns:xlink="http://www.w3.org/1999/xlink" x="0px" y="0px"
	 width="595.28px" height="841.89px" viewBox="0 0 595.28 841.89" enable-background="new 0 0 595.28 841.89" xml:space="preserve">
<path fill="#31556A" d="M-22,571.788c0.064-0.001,0.125-0.014,0.188-0.014c3.681,0,6.84,2.084,8.463,5.111
	c1.628-3.027,4.786-5.111,8.464-5.111c3.68,0,6.839,2.084,8.462,5.111c1.628-3.027,4.786-5.111,8.465-5.111
	c3.682,0,6.839,2.084,8.464,5.114c1.625-3.03,4.786-5.114,8.465-5.114c3.681,0,6.838,2.084,8.464,5.111
	c1.625-3.027,4.782-5.111,8.462-5.111c3.682,0,6.839,2.084,8.465,5.111c1.623-3.027,4.782-5.111,8.461-5.111
	c3.682,0,6.84,2.084,8.464,5.115c1.624-3.031,4.785-5.115,8.464-5.115c3.683,0,6.84,2.084,8.465,5.111
	c1.624-3.027,4.783-5.111,8.462-5.111c3.682,0,6.84,2.084,8.464,5.111c1.625-3.027,4.781-5.111,8.462-5.111
	c3.682,0,6.839,2.084,8.463,5.111c1.625-3.027,4.787-5.111,8.467-5.111c3.681,0,6.839,2.084,8.463,5.111
	c1.625-3.027,4.782-5.111,8.461-5.111c3.683,0,6.841,2.084,8.464,5.111c1.625-3.027,4.786-5.111,8.465-5.111
	c3.679,0,6.837,2.084,8.461,5.111c1.624-3.027,4.787-5.111,8.466-5.111c3.682,0,6.84,2.084,8.463,5.111
	c1.627-3.027,4.783-5.111,8.465-5.111c3.679,0,6.837,2.084,8.462,5.111c1.626-3.027,4.786-5.111,8.464-5.111
	c3.681,0,6.839,2.084,8.462,5.111c1.628-3.027,4.784-5.111,8.463-5.111c3.681,0,6.842,2.084,8.465,5.114
	c1.625-3.03,4.787-5.114,8.465-5.114c3.679,0,6.836,2.084,8.463,5.111c1.626-3.027,4.784-5.111,8.463-5.111
	c3.679,0,6.836,2.084,8.461,5.111c1.628-3.027,4.786-5.111,8.465-5.111c3.682,0,6.838,2.084,8.463,5.114
	c1.625-3.03,4.786-5.114,8.465-5.114c3.682,0,6.838,2.084,8.465,5.111c1.625-3.027,4.782-5.111,8.461-5.111
	c3.684,0,6.842,2.084,8.465,5.111c1.625-3.027,4.782-5.111,8.462-5.111c3.682,0,6.843,2.084,8.465,5.114
	c1.63-3.03,4.784-5.114,8.463-5.114c3.684,0,6.842,2.084,8.465,5.111c1.625-3.027,4.784-5.111,8.461-5.111
	c3.684,0,6.841,2.084,8.466,5.111c1.624-3.027,4.783-5.111,8.463-5.111c3.681,0,6.839,2.084,8.463,5.111
	c1.627-3.027,4.785-5.111,8.465-5.111c3.682,0,6.84,2.084,8.464,5.111c1.625-3.027,4.783-5.111,8.462-5.111
	c3.682,0,6.84,2.084,8.464,5.111c1.624-3.027,4.784-5.111,8.464-5.111c3.681,0,6.839,2.084,8.463,5.111
	c1.627-3.027,4.785-5.111,8.465-5.111c3.682,0,6.841,2.084,8.466,5.111c1.624-3.027,4.779-5.111,8.462-5.111
	c3.68,0,6.842,2.084,8.462,5.111c1.628-3.027,4.787-5.111,8.466-5.111c3.677,0,6.838,2.084,8.461,5.111
	c1.628-3.027,4.785-5.111,8.463-5.111c3.685,0,6.841,2.084,8.465,5.114c1.624-3.03,4.785-5.114,8.466-5.114
	c3.682,0,6.839,2.084,8.463,5.111c1.625-3.027,4.784-5.111,8.463-5.111c3.682,0,6.841,2.084,8.464,5.111
	c1.624-3.027,4.783-5.111,8.461-5.111c3.683,0,6.842,2.084,8.466,5.114c1.627-3.03,4.784-5.114,8.464-5.114
	c3.682,0,6.84,2.084,8.465,5.111c1.624-3.027,4.781-5.111,8.461-5.111c3.683,0,6.84,2.084,8.465,5.111
	c1.624-3.027,4.782-5.111,8.46-5.111c3.683,0,6.844,2.084,8.465,5.114c1.01-1.88,2.608-3.391,4.554-4.271V265.29H-22V571.788z"/>
</svg>
