<?xml version="1.0" encoding="utf-8"?>
<!-- Generator: Adobe Illustrator 15.0.0, SVG Export Plug-In . SVG Version: 6.00 Build 0)  -->
<!DOCTYPE svg PUBLIC "-//W3C//DTD SVG 1.1//EN" "http://www.w3.org/Graphics/SVG/1.1/DTD/svg11.dtd">
<svg version="1.1" id="Layer_1" xmlns="http://www.w3.org/2000/svg" xmlns:xlink="http://www.w3.org/1999/xlink" x="0px" y="0px"
	 width="595.28px" height="841.89px" viewBox="0 0 595.28 841.89" enable-background="new 0 0 595.28 841.89" xml:space="preserve">
<g>
	<defs>
		<rect id="SVGID_1_" x="204" y="395.87" width="187.736" height="50.02"/>
	</defs>
	<clipPath id="SVGID_2_">
		<use xlink:href="#SVGID_1_"  overflow="visible"/>
	</clipPath>
	
		<rect x="204.5" y="396.37" clip-path="url(#SVGID_2_)" fill="none" stroke="#00007F" stroke-miterlimit="10" width="186.736" height="49.02"/>
	<path clip-path="url(#SVGID_2_)" fill="#00007F" d="M232.523,416.975c0-2.13,1.645-3.859,4.449-3.859
		c1.709,0,3.227,0.611,4.071,1.539l-0.971,1.349c-0.78-0.78-1.708-1.202-2.994-1.202c-1.645,0-2.657,0.865-2.657,2.173
		c0,3.647,7.212,2.277,7.212,7.317c0,2.425-2.13,4.006-4.808,4.006c-1.814,0-3.922-0.822-4.66-2.214l1.033-1.223
		c0.864,1.139,2.404,1.75,3.648,1.75c1.539,0,2.889-0.802,2.889-2.299C239.735,420.707,232.523,421.867,232.523,416.975"/>
	<polygon clip-path="url(#SVGID_2_)" fill="#00007F" points="244.9,413.326 253.23,413.326 253.23,415.013 246.692,415.013 
		246.692,419.778 252.597,419.778 252.597,421.466 246.692,421.466 246.692,426.4 253.441,426.4 253.441,428.087 244.9,428.087 	"/>
	<polygon clip-path="url(#SVGID_2_)" fill="#00007F" points="257.025,413.326 258.817,413.326 258.817,426.4 266.093,426.4 
		266.093,428.087 257.025,428.087 	"/>
	<polygon clip-path="url(#SVGID_2_)" fill="#00007F" points="268.622,413.326 276.952,413.326 276.952,415.013 270.414,415.013 
		270.414,419.778 276.318,419.778 276.318,421.466 270.414,421.466 270.414,426.4 277.163,426.4 277.163,428.087 268.622,428.087 	
		"/>
	<path clip-path="url(#SVGID_2_)" fill="#00007F" d="M291.733,426.653c-0.991,1.013-2.826,1.646-4.66,1.646
		c-4.429,0-7.486-2.995-7.486-7.591c0-4.24,2.741-7.592,7.359-7.592c1.898,0,3.437,0.527,4.492,1.434l-0.823,1.349
		c-0.97-0.717-2.109-1.097-3.648-1.097c-3.205,0-5.483,2.405-5.483,5.906c0,3.521,2.341,5.904,5.757,5.904
		c1.413,0,2.763-0.485,3.775-1.308L291.733,426.653z"/>
	<polygon clip-path="url(#SVGID_2_)" fill="#00007F" points="292.575,413.326 304.699,413.326 304.699,415.013 299.534,415.013 
		299.534,428.087 297.742,428.087 297.742,415.013 292.575,415.013 	"/>
	<path clip-path="url(#SVGID_2_)" fill="#00007F" d="M311.868,428.087v-14.761c0.822,0,2.931-0.042,3.859-0.042
		c4.217,0,5.461,2.278,5.461,4.577c0,2.403-1.708,4.638-5.314,4.638c-0.59,0-1.476-0.021-2.214-0.084v5.672H311.868z
		 M313.66,415.013v5.694c0.717,0.064,1.413,0.106,2.151,0.106c2.172,0,3.479-1.118,3.479-2.974c0-1.75-1.054-2.868-3.395-2.868
		C315.306,414.971,314.356,414.992,313.66,415.013"/>
	<path clip-path="url(#SVGID_2_)" fill="#00007F" d="M330.508,413.115c4.281,0,7.528,3.1,7.528,7.592
		c0,4.385-3.247,7.591-7.528,7.591c-4.28,0-7.527-3.101-7.527-7.591C322.98,416.425,326.122,413.115,330.508,413.115
		 M330.508,426.611c3.374,0,5.63-2.573,5.63-5.904c0-3.438-2.467-5.906-5.63-5.906c-3.205,0-5.631,2.468-5.631,5.906
		C324.877,424.06,327.345,426.611,330.508,426.611"/>
	<path clip-path="url(#SVGID_2_)" fill="#00007F" d="M341.304,428.087v-14.761c0.822,0,3.542-0.042,3.964-0.042
		c4.028,0,5.251,2.003,5.251,4.386c0,2.299-1.582,3.754-3.205,4.176l4.913,6.241h-2.193l-4.533-5.904h-2.404v5.904H341.304z
		 M343.096,415.013v5.483h2.172c1.708,0,3.354-1.054,3.354-2.804c0-1.519-0.844-2.721-3.458-2.721
		C344.698,414.971,343.792,414.992,343.096,415.013"/>
	<polygon clip-path="url(#SVGID_2_)" fill="#00007F" points="351.973,413.326 364.098,413.326 364.098,415.013 358.932,415.013 
		358.932,428.087 357.14,428.087 357.14,415.013 351.973,415.013 	"/>
</g>
</svg>
