<?xml version="1.0" encoding="utf-8"?>
<!-- Generator: Adobe Illustrator 15.0.0, SVG Export Plug-In . SVG Version: 6.00 Build 0)  -->
<!DOCTYPE svg PUBLIC "-//W3C//DTD SVG 1.1//EN" "http://www.w3.org/Graphics/SVG/1.1/DTD/svg11.dtd">
<svg version="1.1" id="Layer_1" xmlns="http://www.w3.org/2000/svg" xmlns:xlink="http://www.w3.org/1999/xlink" x="0px" y="0px"
	 width="595.28px" height="841.89px" viewBox="0 0 595.28 841.89" enable-background="new 0 0 595.28 841.89" xml:space="preserve">
<g>
	<defs>
		<rect id="SVGID_1_" x="141" y="397.497" width="313.367" height="48.393"/>
	</defs>
	<clipPath id="SVGID_2_">
		<use xlink:href="#SVGID_1_"  overflow="visible"/>
	</clipPath>
	<path clip-path="url(#SVGID_2_)" fill="#FFFFFF" d="M232.458,418.762c0-2.13,1.645-3.859,4.449-3.859
		c1.709,0,3.227,0.612,4.071,1.54l-0.971,1.349c-0.78-0.78-1.708-1.202-2.994-1.202c-1.645,0-2.657,0.864-2.657,2.172
		c0,3.648,7.212,2.277,7.212,7.317c0,2.425-2.13,4.007-4.808,4.007c-1.814,0-3.922-0.822-4.66-2.214l1.033-1.224
		c0.864,1.139,2.404,1.75,3.648,1.75c1.539,0,2.889-0.801,2.889-2.298C239.67,422.494,232.458,423.654,232.458,418.762"/>
	<polygon clip-path="url(#SVGID_2_)" fill="#FFFFFF" points="244.835,415.113 253.165,415.113 253.165,416.8 246.627,416.8 
		246.627,421.566 252.532,421.566 252.532,423.254 246.627,423.254 246.627,428.188 253.376,428.188 253.376,429.875 
		244.835,429.875 	"/>
	<polygon clip-path="url(#SVGID_2_)" fill="#FFFFFF" points="256.959,415.113 258.751,415.113 258.751,428.188 266.027,428.188 
		266.027,429.875 256.959,429.875 	"/>
	<polygon clip-path="url(#SVGID_2_)" fill="#FFFFFF" points="268.556,415.113 276.886,415.113 276.886,416.8 270.348,416.8 
		270.348,421.566 276.253,421.566 276.253,423.254 270.348,423.254 270.348,428.188 277.097,428.188 277.097,429.875 
		268.556,429.875 	"/>
	<path clip-path="url(#SVGID_2_)" fill="#FFFFFF" d="M291.667,428.441c-0.991,1.012-2.826,1.646-4.66,1.646
		c-4.429,0-7.486-2.995-7.486-7.593c0-4.239,2.741-7.592,7.359-7.592c1.898,0,3.437,0.527,4.492,1.435l-0.823,1.349
		c-0.97-0.717-2.109-1.097-3.648-1.097c-3.205,0-5.483,2.405-5.483,5.905c0,3.521,2.341,5.904,5.757,5.904
		c1.413,0,2.763-0.484,3.775-1.307L291.667,428.441z"/>
	<polygon clip-path="url(#SVGID_2_)" fill="#FFFFFF" points="292.509,415.113 304.635,415.113 304.635,416.8 299.469,416.8 
		299.469,429.875 297.676,429.875 297.676,416.8 292.509,416.8 	"/>
	<path clip-path="url(#SVGID_2_)" fill="#FFFFFF" d="M311.803,429.875v-14.761c0.822,0,2.931-0.042,3.859-0.042
		c4.217,0,5.461,2.277,5.461,4.576c0,2.404-1.708,4.639-5.314,4.639c-0.59,0-1.476-0.021-2.214-0.085v5.673H311.803z
		 M313.595,416.801v5.693c0.717,0.063,1.413,0.105,2.151,0.105c2.172,0,3.479-1.117,3.479-2.974c0-1.75-1.054-2.867-3.395-2.867
		C315.239,416.759,314.291,416.78,313.595,416.801"/>
	<path clip-path="url(#SVGID_2_)" fill="#FFFFFF" d="M330.442,414.902c4.281,0,7.528,3.1,7.528,7.592
		c0,4.387-3.247,7.591-7.528,7.591s-7.527-3.099-7.527-7.591C322.915,418.213,326.057,414.902,330.442,414.902 M330.442,428.398
		c3.374,0,5.63-2.572,5.63-5.904c0-3.438-2.467-5.905-5.63-5.905c-3.205,0-5.631,2.467-5.631,5.905
		C324.812,425.848,327.279,428.398,330.442,428.398"/>
	<path clip-path="url(#SVGID_2_)" fill="#FFFFFF" d="M341.238,429.875v-14.761c0.822,0,3.542-0.042,3.964-0.042
		c4.028,0,5.251,2.003,5.251,4.386c0,2.298-1.582,3.753-3.205,4.175l4.913,6.242h-2.192l-4.534-5.904h-2.404v5.904H341.238z
		 M343.03,416.801v5.482h2.172c1.708,0,3.354-1.053,3.354-2.805c0-1.518-0.844-2.72-3.458-2.72
		C344.633,416.759,343.727,416.78,343.03,416.801"/>
	<polygon clip-path="url(#SVGID_2_)" fill="#FFFFFF" points="351.907,415.113 364.032,415.113 364.032,416.8 358.866,416.8 
		358.866,429.875 357.074,429.875 357.074,416.8 351.907,416.8 	"/>
	
		<rect x="141.5" y="397.997" clip-path="url(#SVGID_2_)" fill="none" stroke="#FFFFFF" stroke-miterlimit="10" width="312.367" height="47.393"/>
	<polygon clip-path="url(#SVGID_2_)" fill="#FFFFFF" points="437.812,422.372 433.25,426.934 428.689,422.372 	"/>
	<polygon clip-path="url(#SVGID_2_)" fill="#FFFFFF" points="428.693,419.344 433.254,414.781 437.814,419.344 	"/>
	<polygon clip-path="url(#SVGID_2_)" fill="#FFFFFF" points="165.59,422.372 161.028,426.934 156.467,422.372 	"/>
	<polygon clip-path="url(#SVGID_2_)" fill="#FFFFFF" points="156.471,419.344 161.032,414.781 165.592,419.344 	"/>
</g>
</svg>
