<?xml version="1.0" encoding="utf-8"?>
<!-- Generator: Adobe Illustrator 15.0.0, SVG Export Plug-In . SVG Version: 6.00 Build 0)  -->
<!DOCTYPE svg PUBLIC "-//W3C//DTD SVG 1.1//EN" "http://www.w3.org/Graphics/SVG/1.1/DTD/svg11.dtd">
<svg version="1.1" id="Layer_1" xmlns="http://www.w3.org/2000/svg" xmlns:xlink="http://www.w3.org/1999/xlink" x="0px" y="0px"
	 width="595.28px" height="841.89px" viewBox="0 0 595.28 841.89" enable-background="new 0 0 595.28 841.89" xml:space="preserve">
<g>
	<defs>
		<rect id="SVGID_1_" x="209" y="395.87" width="177.621" height="50.02"/>
	</defs>
	<clipPath id="SVGID_2_">
		<use xlink:href="#SVGID_1_"  overflow="visible"/>
	</clipPath>
	
		<rect x="209.5" y="396.37" clip-path="url(#SVGID_2_)" fill="none" stroke="#FFFFFF" stroke-miterlimit="10" width="176.621" height="49.02"/>
	<path clip-path="url(#SVGID_2_)" fill="#FFFFFF" d="M241.296,416.975c0-2.13,1.645-3.859,4.449-3.859
		c1.709,0,3.227,0.611,4.071,1.539l-0.971,1.349c-0.78-0.78-1.708-1.202-2.994-1.202c-1.645,0-2.657,0.865-2.657,2.173
		c0,3.647,7.212,2.277,7.212,7.317c0,2.425-2.13,4.006-4.808,4.006c-1.814,0-3.922-0.822-4.66-2.214l1.033-1.223
		c0.864,1.139,2.404,1.75,3.648,1.75c1.539,0,2.889-0.802,2.889-2.299C248.508,420.707,241.296,421.867,241.296,416.975"/>
	<polygon clip-path="url(#SVGID_2_)" fill="#FFFFFF" points="253.673,413.326 262.003,413.326 262.003,415.013 255.465,415.013 
		255.465,419.778 261.37,419.778 261.37,421.466 255.465,421.466 255.465,426.4 262.214,426.4 262.214,428.087 253.673,428.087 	"/>
	<polygon clip-path="url(#SVGID_2_)" fill="#FFFFFF" points="276.7,428.087 267.484,416.489 267.484,428.087 265.797,428.087 
		265.797,413.326 267.231,413.326 276.446,424.967 276.446,413.326 278.133,413.326 278.133,428.087 	"/>
	<path clip-path="url(#SVGID_2_)" fill="#FFFFFF" d="M282.561,413.326h0.253c0.97,0,2.572-0.063,3.774-0.063
		c5.905,0,8.288,3.396,8.288,7.254c0,4.197-2.826,7.613-8.456,7.613c-0.992,0-2.383-0.043-3.627-0.043h-0.232V413.326z
		 M284.353,415.013V426.4c0.97,0.021,1.877,0.042,2.13,0.042c4.217,0,6.495-2.488,6.495-5.926c0-3.205-2.151-5.566-6.432-5.566
		C285.66,414.951,285.091,414.992,284.353,415.013"/>
	<polygon clip-path="url(#SVGID_2_)" fill="#FFFFFF" points="302.887,413.326 304.701,413.326 310.247,420.896 315.561,413.326 
		317.269,413.326 317.269,428.087 315.476,428.087 315.476,416.151 310.247,423.49 309.972,423.49 304.679,416.215 304.679,428.087 
		302.887,428.087 	"/>
	<path clip-path="url(#SVGID_2_)" fill="#FFFFFF" d="M326.145,413.242h1.539l6.348,14.845h-1.919l-1.897-4.471h-6.728l-1.877,4.471
		h-1.812L326.145,413.242z M324.205,421.93h5.313l-2.657-6.305L324.205,421.93z"/>
	<rect x="336.982" y="413.327" clip-path="url(#SVGID_2_)" fill="#FFFFFF" width="1.792" height="14.761"/>
	<polygon clip-path="url(#SVGID_2_)" fill="#FFFFFF" points="343.624,413.326 345.416,413.326 345.416,426.4 352.691,426.4 
		352.691,428.087 343.624,428.087 	"/>
</g>
</svg>
