<?xml version="1.0" encoding="utf-8"?>
<!-- Generator: Adobe Illustrator 15.0.0, SVG Export Plug-In . SVG Version: 6.00 Build 0)  -->
<!DOCTYPE svg PUBLIC "-//W3C//DTD SVG 1.1//EN" "http://www.w3.org/Graphics/SVG/1.1/DTD/svg11.dtd">
<svg version="1.1" id="Layer_1" xmlns="http://www.w3.org/2000/svg" xmlns:xlink="http://www.w3.org/1999/xlink" x="0px" y="0px"
	 width="595.28px" height="841.89px" viewBox="0 0 595.28 841.89" enable-background="new 0 0 595.28 841.89" xml:space="preserve">
<path fill="#001680" d="M294.185,401.048h-2.312l-1.559,5.997l-1.624-5.997h-2.405c0.48,1.415,0.982,2.837,1.465,4.253
	c0.732,2.13,1.19,3.735,1.396,4.831v6.184h2.287v-6.184L294.185,401.048z M300.296,412.632v-3.986c0-1.215-0.21-2.104-0.643-2.68
	c-0.57-0.776-1.371-1.167-2.404-1.167c-1.027,0-1.831,0.391-2.4,1.167c-0.439,0.576-0.646,1.465-0.646,2.68v3.986
	c0,1.209,0.207,2.106,0.646,2.677c0.569,0.775,1.373,1.165,2.4,1.165c1.033,0,1.834-0.39,2.404-1.165
	C300.086,414.738,300.296,413.841,300.296,412.632 M298.23,413.021c0,1.052-0.317,1.578-0.981,1.578
	c-0.666,0-0.984-0.526-0.984-1.578v-4.788c0-1.052,0.318-1.577,0.984-1.577c0.664,0,0.981,0.525,0.981,1.577V413.021z
	 M307.919,416.316v-11.377h-2.062v8.695c-0.458,0.646-0.891,0.965-1.303,0.965c-0.275,0-0.438-0.162-0.482-0.482
	c-0.025-0.068-0.025-0.319-0.025-0.803v-8.375h-2.055v8.996c0,0.803,0.07,1.348,0.184,1.692c0.205,0.576,0.663,0.847,1.326,0.847
	c0.751,0,1.535-0.458,2.355-1.4v1.242H307.919z"/>
<path fill="#001680" d="M301.454,427.868c-0.334,0-0.676,0.161-1.018,0.496v6.864c0.342,0.34,0.684,0.501,1.018,0.501
	c0.589,0,0.889-0.501,0.889-1.519v-4.805C302.343,428.391,302.043,427.868,301.454,427.868"/>
<path fill="#001680" d="M309.026,427.868c-0.682,0-1.024,0.522-1.024,1.562v1.041h2.04v-1.041
	C310.042,428.391,309.7,427.868,309.026,427.868"/>
<path fill="#001680" d="M314.013,422.145c-0.412-1.793-1.879-3.119-3.648-3.316c-4.186-0.469-8.424-0.47-12.641-0.469
	c-4.219-0.001-8.455,0-12.641,0.469c-1.771,0.197-3.236,1.522-3.649,3.316c-0.589,2.559-0.595,5.346-0.595,7.98
	c0,2.633,0,5.425,0.588,7.98c0.412,1.795,1.879,3.119,3.647,3.317c4.187,0.467,8.425,0.47,12.642,0.467
	c4.217,0.003,8.455,0,12.643-0.467c1.768-0.198,3.236-1.522,3.646-3.317c0.591-2.556,0.592-5.348,0.592-7.98
	C314.597,427.49,314.601,424.703,314.013,422.145 M290.468,424.447h-2.445v12.981h-2.271v-12.981h-2.399v-2.129h7.115V424.447z
	 M296.632,437.429h-2.043v-1.228c-0.809,0.931-1.58,1.383-2.33,1.383c-0.658,0-1.111-0.265-1.314-0.837
	c-0.111-0.343-0.18-0.879-0.18-1.675v-8.902h2.039v8.289c0,0.478,0,0.728,0.02,0.794c0.049,0.316,0.203,0.477,0.477,0.477
	c0.41,0,0.839-0.317,1.289-0.954v-8.605h2.043V437.429z M304.382,434.051c0,1.041-0.07,1.792-0.205,2.27
	c-0.273,0.837-0.817,1.264-1.631,1.264c-0.727,0-1.426-0.403-2.109-1.245v1.09h-2.039v-15.11h2.039v4.935
	c0.66-0.809,1.359-1.221,2.109-1.221c0.813,0,1.357,0.427,1.631,1.271c0.135,0.454,0.205,1.198,0.205,2.264V434.051z
	 M312.083,432.173h-4.081v1.993c0,1.044,0.343,1.563,1.042,1.563c0.502,0,0.795-0.274,0.912-0.819
	c0.02-0.111,0.045-0.562,0.045-1.381h2.082v0.297c0,0.656-0.025,1.11-0.045,1.315c-0.068,0.451-0.229,0.861-0.477,1.222
	c-0.564,0.817-1.4,1.221-2.465,1.221c-1.07,0-1.882-0.384-2.471-1.154c-0.434-0.562-0.654-1.451-0.654-2.646v-3.943
	c0-1.205,0.195-2.084,0.629-2.654c0.587-0.772,1.401-1.154,2.443-1.154c1.023,0,1.836,0.382,2.406,1.154
	c0.427,0.57,0.633,1.449,0.633,2.654V432.173z"/>
</svg>
