<?xml version="1.0" encoding="utf-8"?>
<!-- Generator: Adobe Illustrator 15.0.0, SVG Export Plug-In . SVG Version: 6.00 Build 0)  -->
<!DOCTYPE svg PUBLIC "-//W3C//DTD SVG 1.1//EN" "http://www.w3.org/Graphics/SVG/1.1/DTD/svg11.dtd">
<svg version="1.1" id="Layer_1" xmlns="http://www.w3.org/2000/svg" xmlns:xlink="http://www.w3.org/1999/xlink" x="0px" y="0px"
	 width="595.28px" height="841.89px" viewBox="0 0 595.28 841.89" enable-background="new 0 0 595.28 841.89" xml:space="preserve">
<path fill="#001680" d="M298.079,403.109c-10.139,0-18.36,8.22-18.36,18.36c0,7.519,4.52,13.976,10.989,16.816
	c-0.051-1.283-0.008-2.822,0.319-4.215c0.355-1.493,2.364-10.008,2.364-10.008s-0.587-1.17-0.587-2.902
	c0-2.719,1.578-4.752,3.541-4.752c1.67,0,2.476,1.253,2.476,2.755c0,1.678-1.072,4.19-1.621,6.514
	c-0.46,1.948,0.979,3.535,2.896,3.535c3.479,0,5.821-4.465,5.821-9.76c0-4.023-2.709-7.033-7.637-7.033
	c-5.569,0-9.039,4.152-9.039,8.79c0,1.6,0.473,2.728,1.211,3.601c0.34,0.401,0.387,0.562,0.262,1.022
	c-0.086,0.341-0.288,1.15-0.373,1.473c-0.123,0.468-0.498,0.633-0.918,0.461c-2.567-1.046-3.76-3.855-3.76-7.012
	c0-5.216,4.396-11.47,13.122-11.47c7.007,0,11.622,5.072,11.622,10.517c0,7.203-4.007,12.583-9.907,12.583
	c-1.984,0-3.847-1.072-4.484-2.288c0,0-1.068,4.229-1.291,5.047c-0.39,1.414-1.152,2.83-1.849,3.933
	c1.65,0.486,3.394,0.753,5.203,0.753c10.138,0,18.356-8.219,18.356-18.36C316.436,411.33,308.217,403.109,298.079,403.109"/>
</svg>
