<?xml version="1.0" encoding="utf-8"?>
<!-- Generator: Adobe Illustrator 15.0.0, SVG Export Plug-In . SVG Version: 6.00 Build 0)  -->
<!DOCTYPE svg PUBLIC "-//W3C//DTD SVG 1.1//EN" "http://www.w3.org/Graphics/SVG/1.1/DTD/svg11.dtd">
<svg version="1.1" id="Layer_1" xmlns="http://www.w3.org/2000/svg" xmlns:xlink="http://www.w3.org/1999/xlink" x="0px" y="0px"
	 width="595.28px" height="841.89px" viewBox="0 0 595.28 841.89" enable-background="new 0 0 595.28 841.89" xml:space="preserve">
<path fill="#001680" d="M297.241,405.071c0.301,0.186,0.636,0.455,1.009,0.811c0.357,0.373,0.709,0.83,1.052,1.37
	c0.33,0.511,0.621,1.113,0.875,1.811c0.209,0.695,0.314,1.51,0.314,2.437c-0.027,1.701-0.404,3.063-1.129,4.085
	c-0.354,0.495-0.729,0.951-1.125,1.369c-0.441,0.416-0.908,0.844-1.403,1.277c-0.285,0.293-0.546,0.626-0.786,0.998
	c-0.284,0.387-0.426,0.834-0.426,1.346c0,0.498,0.145,0.906,0.436,1.23c0.247,0.311,0.488,0.581,0.721,0.812l1.614,1.323
	c1.003,0.822,1.882,1.724,2.638,2.717c0.712,1.005,1.083,2.319,1.114,3.942c0,2.308-1.02,4.348-3.055,6.13
	c-2.109,1.843-5.158,2.792-9.139,2.854c-3.333-0.03-5.821-0.742-7.465-2.13c-1.658-1.297-2.488-2.851-2.488-4.656
	c0-0.881,0.268-1.863,0.81-2.944c0.523-1.08,1.471-2.029,2.844-2.847c1.539-0.88,3.158-1.47,4.855-1.763
	c1.681-0.245,3.075-0.386,4.185-0.417c-0.344-0.451-0.649-0.933-0.917-1.445c-0.313-0.499-0.469-1.099-0.469-1.797
	c0-0.42,0.059-0.772,0.178-1.051c0.105-0.295,0.202-0.567,0.291-0.817c-0.54,0.063-1.051,0.094-1.528,0.094
	c-2.534-0.031-4.465-0.829-5.792-2.391c-1.393-1.456-2.088-3.15-2.088-5.084c0-2.337,0.983-4.454,2.956-6.359
	c1.351-1.113,2.757-1.839,4.215-2.182c1.444-0.294,2.796-0.441,4.058-0.441h9.515l-2.938,1.717H297.241z M299.079,432.46
	c0-1.208-0.394-2.26-1.181-3.156c-0.834-0.851-2.137-1.896-3.909-3.136c-0.304-0.031-0.66-0.045-1.069-0.045
	c-0.241-0.03-0.863,0-1.863,0.093c-0.984,0.139-1.992,0.362-3.023,0.673c-0.242,0.093-0.582,0.232-1.021,0.418
	c-0.44,0.201-0.886,0.488-1.343,0.859c-0.439,0.387-0.81,0.867-1.112,1.439c-0.35,0.604-0.522,1.332-0.522,2.183
	c0,1.671,0.756,3.049,2.27,4.132c1.441,1.082,3.41,1.64,5.909,1.672c2.243-0.032,3.955-0.527,5.135-1.486
	C298.503,435.16,299.079,433.947,299.079,432.46 M292.445,418.512c1.253-0.046,2.297-0.497,3.131-1.35
	c0.404-0.604,0.663-1.224,0.777-1.86c0.069-0.637,0.105-1.17,0.105-1.604c0-1.875-0.481-3.769-1.44-5.675
	c-0.451-0.914-1.043-1.659-1.777-2.233c-0.751-0.541-1.614-0.829-2.587-0.859c-1.29,0.03-2.362,0.551-3.217,1.558
	c-0.721,1.054-1.066,2.233-1.033,3.536c0,1.72,0.502,3.508,1.51,5.372c0.488,0.867,1.115,1.602,1.888,2.207
	C290.572,418.211,291.454,418.512,292.445,418.512"/>
<polygon fill="#001680" points="316.005,408.551 311.013,408.551 311.013,403.558 308.593,403.558 308.593,408.551 303.602,408.551 
	303.602,410.971 308.593,410.971 308.593,415.962 311.013,415.962 311.013,410.971 316.005,410.971 "/>
</svg>
