<?xml version="1.0" encoding="utf-8"?>
<!-- Generator: Adobe Illustrator 15.0.0, SVG Export Plug-In . SVG Version: 6.00 Build 0)  -->
<!DOCTYPE svg PUBLIC "-//W3C//DTD SVG 1.1//EN" "http://www.w3.org/Graphics/SVG/1.1/DTD/svg11.dtd">
<svg version="1.1" id="Layer_1" xmlns="http://www.w3.org/2000/svg" xmlns:xlink="http://www.w3.org/1999/xlink" x="0px" y="0px"
	 width="595.28px" height="841.89px" viewBox="0 0 595.28 841.89" enable-background="new 0 0 595.28 841.89" xml:space="preserve">
<path fill="#001680" d="M314.646,410.975c-1.246,0.552-2.585,0.926-3.987,1.093c1.432-0.86,2.534-2.219,3.051-3.841
	c-1.338,0.796-2.826,1.375-4.408,1.686c-1.264-1.35-3.07-2.193-5.067-2.193c-3.834,0-6.942,3.109-6.942,6.943
	c0,0.544,0.061,1.074,0.178,1.582c-5.767-0.29-10.883-3.053-14.308-7.255c-0.598,1.027-0.94,2.218-0.94,3.491
	c0,2.408,1.225,4.534,3.088,5.778c-1.139-0.035-2.208-0.348-3.144-0.868v0.087c0,3.363,2.392,6.17,5.568,6.809
	c-0.582,0.157-1.197,0.243-1.83,0.243c-0.445,0-0.882-0.043-1.305-0.125c0.883,2.758,3.447,4.765,6.485,4.822
	c-2.375,1.862-5.368,2.972-8.624,2.972c-0.558,0-1.111-0.034-1.654-0.098c3.072,1.97,6.721,3.118,10.645,3.118
	c12.766,0,19.75-10.577,19.75-19.752c0-0.3-0.009-0.599-0.019-0.899C312.537,413.591,313.711,412.368,314.646,410.975"/>
</svg>
