<?xml version="1.0" encoding="utf-8"?>
<!-- Generator: Adobe Illustrator 15.0.0, SVG Export Plug-In . SVG Version: 6.00 Build 0)  -->
<!DOCTYPE svg PUBLIC "-//W3C//DTD SVG 1.1//EN" "http://www.w3.org/Graphics/SVG/1.1/DTD/svg11.dtd">
<svg version="1.1" id="Layer_1" xmlns="http://www.w3.org/2000/svg" xmlns:xlink="http://www.w3.org/1999/xlink" x="0px" y="0px"
	 width="595.28px" height="841.89px" viewBox="0 0 595.28 841.89" enable-background="new 0 0 595.28 841.89" xml:space="preserve">
<path fill="#001680" d="M316.614,412.842c-0.162,3.617-2.695,8.563-7.578,14.836c-5.057,6.562-9.342,9.84-12.841,9.84
	c-2.165,0-4-1.994-5.498-5.998c-1.005-3.67-2.001-7.342-3.003-11.004c-1.115-4.006-2.309-6.004-3.585-6.004
	c-0.278,0-1.247,0.582-2.917,1.75l-1.75-2.252c1.832-1.608,3.64-3.223,5.42-4.83c2.441-2.114,4.275-3.223,5.502-3.338
	c2.885-0.28,4.666,1.693,5.336,5.917c0.715,4.56,1.219,7.395,1.496,8.505c0.836,3.779,1.749,5.666,2.75,5.666
	c0.775,0,1.944-1.221,3.5-3.665c1.559-2.447,2.389-4.308,2.502-5.588c0.223-2.112-0.612-3.163-2.502-3.163
	c-0.888,0-1.806,0.187-2.75,0.583c1.836-5.947,5.338-8.839,10.504-8.669C315.032,405.536,316.839,408.011,316.614,412.842"/>
</svg>
