<?xml version="1.0" encoding="utf-8"?>
<!-- Generator: Adobe Illustrator 15.0.0, SVG Export Plug-In . SVG Version: 6.00 Build 0)  -->
<!DOCTYPE svg PUBLIC "-//W3C//DTD SVG 1.1//EN" "http://www.w3.org/Graphics/SVG/1.1/DTD/svg11.dtd">
<svg version="1.1" id="Layer_1" xmlns="http://www.w3.org/2000/svg" xmlns:xlink="http://www.w3.org/1999/xlink" x="0px" y="0px"
	 width="595.28px" height="841.89px" viewBox="0 0 595.28 841.89" enable-background="new 0 0 595.28 841.89" xml:space="preserve">
<path fill="#001680" d="M284.975,404.755h24.849c2.361,0,4.291,1.931,4.291,4.291v24.849c0,2.36-1.93,4.289-4.291,4.289h-24.849
	c-2.36,0-4.292-1.929-4.292-4.289v-24.849C280.683,406.686,282.614,404.755,284.975,404.755 M305.036,408.468
	c-0.828,0-1.505,0.679-1.505,1.507v3.602c0,0.828,0.677,1.505,1.505,1.505h3.779c0.827,0,1.505-0.677,1.505-1.505v-3.602
	c0-0.828-0.678-1.507-1.505-1.507H305.036z M310.335,418.892h-2.941c0.279,0.911,0.429,1.872,0.429,2.87
	c0,5.559-4.653,10.068-10.393,10.068c-5.737,0-10.393-4.51-10.393-10.068c0-0.998,0.153-1.959,0.431-2.87h-3.068v14.123
	c0,0.731,0.596,1.326,1.327,1.326h23.28c0.732,0,1.328-0.595,1.328-1.326V418.892z M297.43,414.892
	c-3.708,0-6.714,2.912-6.714,6.507c0,3.592,3.006,6.506,6.714,6.506s6.714-2.914,6.714-6.506
	C304.144,417.804,301.138,414.892,297.43,414.892"/>
</svg>
