<?xml version="1.0" encoding="utf-8"?>
<!-- Generator: Adobe Illustrator 15.0.0, SVG Export Plug-In . SVG Version: 6.00 Build 0)  -->
<!DOCTYPE svg PUBLIC "-//W3C//DTD SVG 1.1//EN" "http://www.w3.org/Graphics/SVG/1.1/DTD/svg11.dtd">
<svg version="1.1" id="Layer_1" xmlns="http://www.w3.org/2000/svg" xmlns:xlink="http://www.w3.org/1999/xlink" x="0px" y="0px"
	 width="595.28px" height="841.89px" viewBox="0 0 595.28 841.89" enable-background="new 0 0 595.28 841.89" xml:space="preserve">
<path fill="#00007F" d="M277.099,408.23h12.474c6.167,0,7.735,3.867,7.735,6.445c0,3.624-2.022,4.705-3.066,5.226
	c3.101,1.151,3.867,3.59,3.867,6.063c0,2.161-0.801,7.562-10.139,7.562h-10.871V408.23z M282.359,418.124h6.167
	c2.091,0,3.729-0.801,3.729-2.822c0-2.056-1.465-2.717-3.868-2.717h-6.028V418.124z M282.359,429.169h6.411
	c2.579,0,4.077-1.148,4.077-3.727c0-2.195-1.882-3.066-3.798-3.066h-6.69V429.169z"/>
<path fill="#00007F" d="M317.146,428.021c-1.289,4.494-5.017,5.992-8.224,5.992c-5.26,0-9.338-2.543-9.338-10.244
	c0-2.264,0.802-9.477,8.991-9.477c3.692,0,8.78,1.743,8.78,10.279v0.906h-12.719c0,1.429,0.314,4.6,4.285,4.6
	c1.396,0,2.788-0.732,3.172-2.056H317.146z M307.355,411.923h-4.426v-4.043h4.426V411.923z M312.303,422.271
	c-0.278-2.997-2.229-3.938-3.798-3.938c-2.334,0-3.588,1.499-3.867,3.938H312.303z M314.22,411.923h-4.425v-4.043h4.425V411.923z"/>
</svg>
