<?xml version="1.0" encoding="utf-8"?>
<!-- Generator: Adobe Illustrator 15.0.0, SVG Export Plug-In . SVG Version: 6.00 Build 0)  -->
<!DOCTYPE svg PUBLIC "-//W3C//DTD SVG 1.1//EN" "http://www.w3.org/Graphics/SVG/1.1/DTD/svg11.dtd">
<svg version="1.1" id="Layer_1" xmlns="http://www.w3.org/2000/svg" xmlns:xlink="http://www.w3.org/1999/xlink" x="0px" y="0px"
	 width="595.28px" height="841.89px" viewBox="0 0 595.28 841.89" enable-background="new 0 0 595.28 841.89" xml:space="preserve">
<g>
	<defs>
		<rect id="SVGID_1_" x="204" y="395.87" width="187.737" height="50.02"/>
	</defs>
	<clipPath id="SVGID_2_">
		<use xlink:href="#SVGID_1_"  overflow="visible"/>
	</clipPath>
	
		<rect x="204.5" y="396.37" clip-path="url(#SVGID_2_)" fill="none" stroke="#00007F" stroke-miterlimit="10" width="186.737" height="49.02"/>
	<path clip-path="url(#SVGID_2_)" fill="#00007F" d="M246.044,416.975c0-2.13,1.645-3.859,4.449-3.859
		c1.709,0,3.227,0.611,4.071,1.539l-0.971,1.349c-0.78-0.78-1.708-1.202-2.994-1.202c-1.645,0-2.657,0.865-2.657,2.173
		c0,3.647,7.212,2.277,7.212,7.317c0,2.425-2.13,4.006-4.808,4.006c-1.814,0-3.922-0.822-4.66-2.214l1.033-1.223
		c0.864,1.139,2.404,1.75,3.648,1.75c1.539,0,2.889-0.802,2.889-2.299C253.256,420.707,246.044,421.867,246.044,416.975"/>
	<path clip-path="url(#SVGID_2_)" fill="#00007F" d="M270.041,421.93c0,4.513-2.699,6.348-5.715,6.348
		c-3.543,0-6.115-2.172-6.115-6.495v-8.457h1.792v8.119c0,3.206,1.561,5.145,4.323,5.145c2.425,0,3.923-1.665,3.923-5.018v-8.246
		h1.792V421.93z"/>
	<path clip-path="url(#SVGID_2_)" fill="#00007F" d="M274.257,413.346c0.822-0.02,2.678-0.084,4.048-0.084
		c3.522,0,4.745,1.603,4.745,3.649c0,1.855-1.117,2.952-2.53,3.416v0.042c1.834,0.296,3.057,1.476,3.057,3.501
		c0,2.994-2.298,4.28-5.356,4.28c-1.307,0-3.1-0.042-3.964-0.084V413.346z M276.049,415.012v4.766h2.362
		c1.56,0,2.847-0.864,2.847-2.467c0-1.539-1.033-2.361-2.995-2.361C277.482,414.95,276.576,414.992,276.049,415.012 M276.049,421.36
		v5.019c0.485,0.043,1.434,0.085,2.278,0.085c2.171,0,3.458-0.886,3.458-2.699c0-1.561-1.223-2.404-3.353-2.404H276.049z"/>
	<path clip-path="url(#SVGID_2_)" fill="#00007F" d="M286.465,416.975c0-2.13,1.645-3.859,4.449-3.859
		c1.709,0,3.227,0.611,4.071,1.539l-0.971,1.349c-0.78-0.78-1.708-1.202-2.994-1.202c-1.645,0-2.657,0.865-2.657,2.173
		c0,3.647,7.212,2.277,7.212,7.317c0,2.425-2.13,4.006-4.808,4.006c-1.814,0-3.922-0.822-4.66-2.214l1.033-1.223
		c0.864,1.139,2.404,1.75,3.648,1.75c1.539,0,2.889-0.802,2.889-2.299C293.677,420.707,286.465,421.867,286.465,416.975"/>
	<path clip-path="url(#SVGID_2_)" fill="#00007F" d="M309.828,426.653c-0.99,1.013-2.825,1.646-4.659,1.646
		c-4.43,0-7.486-2.995-7.486-7.591c0-4.24,2.741-7.592,7.359-7.592c1.897,0,3.437,0.527,4.491,1.434l-0.822,1.349
		c-0.971-0.717-2.109-1.097-3.648-1.097c-3.205,0-5.482,2.405-5.482,5.906c0,3.521,2.341,5.904,5.757,5.904
		c1.413,0,2.763-0.485,3.774-1.308L309.828,426.653z"/>
	<path clip-path="url(#SVGID_2_)" fill="#00007F" d="M312.674,428.087v-14.761c0.822,0,3.542-0.042,3.965-0.042
		c4.027,0,5.251,2.003,5.251,4.386c0,2.299-1.582,3.754-3.205,4.176l4.913,6.241h-2.193l-4.534-5.904h-2.404v5.904H312.674z
		 M314.466,415.013v5.483h2.173c1.708,0,3.353-1.054,3.353-2.804c0-1.519-0.843-2.721-3.458-2.721
		C316.069,414.971,315.162,414.992,314.466,415.013"/>
	<rect x="326.654" y="413.327" clip-path="url(#SVGID_2_)" fill="#00007F" width="1.792" height="14.761"/>
	<path clip-path="url(#SVGID_2_)" fill="#00007F" d="M333.296,413.346c0.821-0.02,2.678-0.084,4.048-0.084
		c3.521,0,4.745,1.603,4.745,3.649c0,1.855-1.117,2.952-2.53,3.416v0.042c1.834,0.296,3.057,1.476,3.057,3.501
		c0,2.994-2.298,4.28-5.355,4.28c-1.308,0-3.101-0.042-3.964-0.084V413.346z M335.088,415.012v4.766h2.361
		c1.561,0,2.848-0.864,2.848-2.467c0-1.539-1.033-2.361-2.995-2.361C336.521,414.95,335.614,414.992,335.088,415.012
		 M335.088,421.36v5.019c0.484,0.043,1.434,0.085,2.277,0.085c2.171,0,3.458-0.886,3.458-2.699c0-1.561-1.223-2.404-3.353-2.404
		H335.088z"/>
	<polygon clip-path="url(#SVGID_2_)" fill="#00007F" points="346.305,413.326 354.635,413.326 354.635,415.013 348.097,415.013 
		348.097,419.778 354.002,419.778 354.002,421.466 348.097,421.466 348.097,426.4 354.846,426.4 354.846,428.087 346.305,428.087 	
		"/>
</g>
</svg>
