<?xml version="1.0" encoding="utf-8"?>
<!-- Generator: Adobe Illustrator 15.0.0, SVG Export Plug-In . SVG Version: 6.00 Build 0)  -->
<!DOCTYPE svg PUBLIC "-//W3C//DTD SVG 1.1//EN" "http://www.w3.org/Graphics/SVG/1.1/DTD/svg11.dtd">
<svg version="1.1" id="Layer_1" xmlns="http://www.w3.org/2000/svg" xmlns:xlink="http://www.w3.org/1999/xlink" x="0px" y="0px"
	 width="595.28px" height="841.89px" viewBox="0 0 595.28 841.89" enable-background="new 0 0 595.28 841.89" xml:space="preserve">
<polygon fill="#001681" points="-37.301,292.561 -81.513,455.411 -131.253,292.561 -190.571,292.561 -238.837,455.411 
	-282.312,292.561 -349,292.561 -272.733,550.468 -216.362,550.468 -163.306,384.671 -109.514,550.468 -53.144,550.468 
	19.439,292.561 "/>
<path fill="#001681" d="M108.967,292.561h52.687L268.87,550.468h-63.003l-21.37-54.16H82.44l-21.37,54.16H1.752L108.967,292.561z
	 M104.546,441.042h57.845l-28.738-72.951L104.546,441.042z"/>
<polygon fill="#001681" points="252.656,292.561 466.351,292.561 466.351,347.827 388.979,347.827 388.979,550.468 330.028,550.468 
	330.028,347.827 252.656,347.827 "/>
<g>
	<defs>
		<rect id="SVGID_1_" x="-349" y="288.14" width="1294.311" height="266.75"/>
	</defs>
	<clipPath id="SVGID_2_">
		<use xlink:href="#SVGID_1_"  overflow="visible"/>
	</clipPath>
	<path clip-path="url(#SVGID_2_)" fill="#001681" d="M692.934,525.046c-15.474,17.316-49.002,29.844-84.004,29.844
		c-79.951,0-135.217-53.055-135.217-133.375c0-74.056,46.055-133.375,134.849-133.375c34.265,0,63.371,11.79,78.845,26.896
		l-26.158,44.213c-14-8.474-28.369-15.843-52.687-15.843c-39.792,0-72.214,27.264-72.214,78.109
		c0,45.687,31.686,78.109,78.109,78.109c18.422,0,38.686-5.896,56.002-18.791L692.934,525.046z"/>
	<polygon clip-path="url(#SVGID_2_)" fill="#001681" points="886.359,446.568 792.407,446.568 792.407,550.469 733.457,550.469 
		733.457,292.562 792.407,292.562 792.407,391.302 886.359,391.302 886.359,292.562 945.31,292.562 945.31,550.469 886.359,550.469 
			"/>
</g>
</svg>
