<?xml version="1.0" encoding="utf-8"?>
<!-- Generator: Adobe Illustrator 15.0.0, SVG Export Plug-In . SVG Version: 6.00 Build 0)  -->
<!DOCTYPE svg PUBLIC "-//W3C//DTD SVG 1.1//EN" "http://www.w3.org/Graphics/SVG/1.1/DTD/svg11.dtd">
<svg version="1.1" id="Layer_1" xmlns="http://www.w3.org/2000/svg" xmlns:xlink="http://www.w3.org/1999/xlink" x="0px" y="0px"
	 width="595.28px" height="841.89px" viewBox="0 0 595.28 841.89" enable-background="new 0 0 595.28 841.89" xml:space="preserve">
<g>
	<defs>
		<rect id="SVGID_1_" x="-1609" y="101.577" width="3813.77" height="640.313"/>
	</defs>
	<clipPath id="SVGID_2_">
		<use xlink:href="#SVGID_1_"  overflow="visible"/>
	</clipPath>
	<g clip-path="url(#SVGID_2_)">
		<defs>
			<rect id="SVGID_3_" x="-1609" y="101.577" width="3813.771" height="640.313"/>
		</defs>
		<clipPath id="SVGID_4_">
			<use xlink:href="#SVGID_3_"  overflow="visible"/>
		</clipPath>
		<g opacity="0.9" clip-path="url(#SVGID_4_)">
			<g>
				<defs>
					<rect id="SVGID_5_" x="-1609" y="101.577" width="3813.77" height="640.313"/>
				</defs>
				<clipPath id="SVGID_6_">
					<use xlink:href="#SVGID_5_"  overflow="visible"/>
				</clipPath>
				<g clip-path="url(#SVGID_6_)">
					<defs>
						<path id="SVGID_7_" d="M2192.97,101.585c-3.95,7.366-11.631,12.429-20.584,12.429c-8.948,0-16.627-5.063-20.575-12.429
							c-3.955,7.366-11.63,12.429-20.588,12.429c-8.945,0-16.626-5.065-20.578-12.435c-3.957,7.37-11.63,12.435-20.591,12.435
							c-8.942,0-16.626-5.063-20.575-12.429c-3.953,7.366-11.629,12.429-20.586,12.429c-8.946,0-16.627-5.063-20.576-12.429
							c-3.95,7.366-11.629,12.429-20.586,12.429c-8.946,0-16.625-5.065-20.584-12.435c-3.946,7.37-11.629,12.435-20.584,12.435
							c-8.947,0-16.629-5.063-20.577-12.429c-3.951,7.366-11.63,12.429-20.587,12.429c-8.946,0-16.625-5.063-20.575-12.429
							c-3.951,7.366-11.629,12.429-20.585,12.429c-8.947,0-16.631-5.068-20.584-12.437c-3.947,7.369-11.631,12.437-20.588,12.437
							c-8.944,0-16.625-5.063-20.575-12.429c-3.95,7.366-11.629,12.429-20.585,12.429c-8.946,0-16.625-5.065-20.58-12.431
							c-3.947,7.366-11.626,12.431-20.581,12.431c-8.95,0-16.636-5.068-20.585-12.437c-3.951,7.369-11.629,12.437-20.587,12.437
							c-8.945,0-16.623-5.065-20.582-12.431c-3.947,7.366-11.63,12.431-20.577,12.431s-16.626-5.063-20.585-12.429
							c-3.941,7.366-11.63,12.429-20.58,12.429c-8.952,0-16.63-5.063-20.581-12.429c-3.951,7.366-11.63,12.429-20.585,12.429
							c-8.947,0-16.627-5.063-20.585-12.429c-3.95,7.366-11.63,12.429-20.581,12.429c-8.948,0-16.63-5.063-20.581-12.429
							c-3.951,7.366-11.63,12.429-20.585,12.429c-8.942,0-16.626-5.063-20.576-12.429c-3.95,7.366-11.631,12.429-20.585,12.429
							c-8.947,0-16.63-5.063-20.585-12.429c-3.951,7.366-11.63,12.429-20.581,12.429c-8.947,0-16.631-5.063-20.581-12.429
							c-3.95,7.366-11.63,12.429-20.585,12.429c-8.947,0-16.626-5.063-20.577-12.429c-3.95,7.366-11.629,12.429-20.585,12.429
							c-8.947,0-16.624-5.068-20.584-12.437c-3.945,7.369-11.63,12.437-20.585,12.437c-8.948,0-16.626-5.063-20.577-12.429
							c-3.949,7.366-11.63,12.429-20.585,12.429c-8.948,0-16.626-5.065-20.577-12.431c-3.959,7.366-11.633,12.431-20.584,12.431
							c-8.948,0-16.634-5.068-20.584-12.437c-3.953,7.369-11.631,12.437-20.586,12.437c-8.947,0-16.625-5.065-20.584-12.431
							c-3.951,7.366-11.63,12.431-20.578,12.431c-8.947,0-16.625-5.063-20.58-12.429c-3.955,7.366-11.633,12.429-20.58,12.429
							s-16.635-5.065-20.586-12.435c-3.949,7.37-11.633,12.435-20.586,12.435c-8.946,0-16.623-5.063-20.58-12.429
							c-3.949,7.366-11.631,12.429-20.579,12.429c-8.947,0-16.63-5.063-20.586-12.429c-3.949,7.366-11.63,12.429-20.576,12.429
							c-8.956,0-16.632-5.063-20.586-12.429c-3.949,7.366-11.627,12.429-20.583,12.429c-8.947,0-16.635-5.063-20.586-12.429
							c-3.95,7.366-11.631,12.429-20.58,12.429c-8.947,0-16.631-5.063-20.582-12.429c-3.949,7.366-11.628,12.429-20.585,12.429
							c-8.947,0-16.624-5.063-20.575-12.429c-3.951,7.366-11.63,12.429-20.585,12.429c-8.947,0-16.635-5.063-20.587-12.429
							c-3.949,7.366-11.629,12.429-20.584,12.429c-8.948,0-16.625-5.063-20.576-12.429c-3.95,7.366-11.629,12.429-20.584,12.429
							c-8.948,0-16.627-5.063-20.578-12.429c-3.95,7.366-11.629,12.429-20.585,12.429c-8.947,0-16.634-5.068-20.584-12.438
							c-3.951,7.37-11.63,12.438-20.585,12.438c-8.948,0-16.627-5.063-20.577-12.429c-3.951,7.366-11.63,12.429-20.585,12.429
							c-8.949,0-16.627-5.065-20.577-12.431c-3.956,7.366-11.634,12.431-20.585,12.431c-8.947,0-16.634-5.068-20.585-12.437
							c-3.952,7.369-11.63,12.437-20.585,12.437c-8.947,0-16.626-5.065-20.586-12.431c-3.945,7.366-11.628,12.431-20.576,12.431
							c-8.945,0-16.626-5.063-20.584-12.429c-3.947,7.366-11.63,12.429-20.581,12.429c-8.95,0-16.63-5.065-20.581-12.435
							c-3.951,7.37-11.634,12.435-20.585,12.435c-8.946,0-16.626-5.063-20.584-12.429c-3.95,7.366-11.63,12.429-20.581,12.429
							c-8.947,0-16.63-5.063-20.582-12.429c-3.949,7.366-11.629,12.429-20.575,12.429c-3.13,0-6.098-0.63-8.811-1.749v-0.015
							c-1.878-0.774-3.632-1.784-5.228-2.992c-0.035-0.026-0.07-0.053-0.105-0.079c-0.454-0.348-0.891-0.716-1.318-1.095
							c-0.084-0.076-0.173-0.148-0.257-0.225c-0.432-0.394-0.847-0.806-1.248-1.23c-0.233-0.249-0.454-0.511-0.676-0.771
							c-0.143-0.164-0.286-0.327-0.424-0.496c-0.268-0.33-0.527-0.667-0.778-1.011c-0.06-0.082-0.117-0.166-0.177-0.248
							c-0.57-0.805-1.095-1.644-1.563-2.518c-0.004,0.007-0.01,0.014-0.014,0.022c-0.004-0.008-0.009-0.015-0.013-0.022
							c-1.228,2.29-2.818,4.357-4.694,6.119c-0.022,0.021-0.046,0.042-0.068,0.063c-0.31,0.289-0.631,0.566-0.957,0.838
							c-0.09,0.076-0.178,0.153-0.27,0.226c-0.246,0.2-0.5,0.388-0.753,0.578c-2.373,1.756-5.085,3.079-8.032,3.838v0.019
							c-1.856,0.48-3.798,0.748-5.81,0.748c-8.948,0-16.627-5.063-20.576-12.429c-3.953,7.366-11.629,12.429-20.587,12.429
							c-8.945,0-16.626-5.065-20.579-12.435c-3.957,7.37-11.629,12.435-20.59,12.435c-8.942,0-16.626-5.063-20.575-12.429
							c-3.953,7.366-11.63,12.429-20.587,12.429c-8.945,0-16.626-5.063-20.574-12.429c-3.951,7.366-11.631,12.429-20.587,12.429
							c-8.946,0-16.625-5.065-20.585-12.435c-3.945,7.37-11.628,12.435-20.585,12.435c-8.945,0-16.627-5.063-20.575-12.429
							c-3.951,7.366-11.63,12.429-20.587,12.429c-8.947,0-16.624-5.063-20.575-12.429c-3.952,7.366-11.629,12.429-20.585,12.429
							c-8.948,0-16.63-5.068-20.584-12.437c-3.948,7.369-11.631,12.437-20.587,12.437c-8.946,0-16.625-5.063-20.576-12.429
							c-3.951,7.366-11.629,12.429-20.585,12.429c-8.947,0-16.625-5.065-20.58-12.431c-3.948,7.366-11.626,12.431-20.582,12.431
							c-8.95,0-16.635-5.068-20.584-12.437c-3.952,7.369-11.629,12.437-20.587,12.437c-8.946,0-16.623-5.065-20.582-12.431
							c-3.948,7.366-11.63,12.431-20.578,12.431c-8.947,0-16.626-5.063-20.585-12.429c-3.941,7.366-11.629,12.429-20.58,12.429
							c-8.952,0-16.63-5.063-20.581-12.429c-3.951,7.366-11.63,12.429-20.585,12.429c-8.947,0-16.627-5.063-20.585-12.429
							c-3.95,7.366-11.629,12.429-20.581,12.429c-8.948,0-16.63-5.063-20.581-12.429c-3.951,7.366-11.63,12.429-20.585,12.429
							c-8.944,0-16.626-5.063-20.576-12.429c-3.952,7.366-11.631,12.429-20.585,12.429c-8.948,0-16.63-5.063-20.585-12.429
							c-3.951,7.366-11.63,12.429-20.581,12.429c-8.947,0-16.631-5.063-20.581-12.429c-3.951,7.366-11.63,12.429-20.585,12.429
							c-8.947,0-16.626-5.063-20.577-12.429c-3.949,7.366-11.629,12.429-20.585,12.429c-8.947,0-16.624-5.068-20.584-12.437
							c-3.945,7.369-11.63,12.437-20.585,12.437c-8.947,0-16.626-5.063-20.579-12.429c-3.947,7.366-11.628,12.429-20.583,12.429
							c-8.947,0-16.626-5.065-20.577-12.431c-3.958,7.366-11.633,12.431-20.584,12.431c-8.948,0-16.634-5.068-20.585-12.437
							c-3.951,7.369-11.63,12.437-20.585,12.437c-8.947,0-16.627-5.065-20.586-12.431c-3.949,7.366-11.628,12.431-20.576,12.431
							c-8.947,0-16.624-5.063-20.58-12.429c-3.955,7.366-11.635,12.429-20.58,12.429c-8.948,0-16.635-5.065-20.586-12.435
							c-3.949,7.37-11.635,12.435-20.585,12.435c-8.947,0-16.624-5.063-20.581-12.429c-3.95,7.366-11.63,12.429-20.579,12.429
							c-8.948,0-16.63-5.063-20.586-12.429c-3.95,7.366-11.63,12.429-20.576,12.429c-8.957,0-16.633-5.063-20.586-12.429
							c-3.95,7.366-11.628,12.429-20.583,12.429c-8.948,0-16.636-5.063-20.587-12.429c-3.95,7.366-11.63,12.429-20.579,12.429
							c-8.948,0-16.632-5.063-20.582-12.429c-3.95,7.366-11.629,12.429-20.585,12.429c-8.948,0-16.624-5.063-20.576-12.429
							c-3.951,7.366-11.63,12.429-20.585,12.429c-8.947,0-16.635-5.063-20.587-12.429c-3.949,7.366-11.629,12.429-20.584,12.429
							c-8.948,0-16.625-5.063-20.576-12.429c-3.95,7.366-11.629,12.429-20.584,12.429c-8.948,0-16.627-5.063-20.578-12.429
							c-3.95,7.366-11.629,12.429-20.585,12.429c-8.947,0-16.634-5.068-20.584-12.438c-3.951,7.37-11.63,12.438-20.585,12.438
							c-8.947,0-16.627-5.063-20.577-12.429c-3.951,7.366-11.63,12.429-20.585,12.429c-8.949,0-16.627-5.065-20.577-12.431
							c-3.956,7.366-11.634,12.431-20.585,12.431c-8.948,0-16.634-5.068-20.585-12.437c-3.952,7.369-11.63,12.437-20.585,12.437
							c-8.947,0-16.626-5.065-20.586-12.431c-3.946,7.366-11.628,12.431-20.576,12.431c-8.946,0-16.626-5.063-20.584-12.429
							c-3.947,7.366-11.63,12.429-20.581,12.429s-16.63-5.065-20.581-12.435c-3.951,7.37-11.634,12.435-20.585,12.435
							c-8.947,0-16.626-5.063-20.584-12.429c-3.951,7.366-11.63,12.429-20.581,12.429c-8.948,0-16.63-5.063-20.582-12.429
							c-3.95,7.366-11.629,12.429-20.576,12.429c-8.951,0-16.635-5.063-20.585-12.429c-3.064,5.713-8.385,10.009-14.8,11.662
							v617.967c5.058,2.084,9.226,5.871,11.801,10.666c3.95-7.366,11.63-12.43,20.584-12.43c8.948,0,16.627,5.063,20.575,12.43
							c3.954-7.366,11.63-12.43,20.588-12.43c8.945,0,16.626,5.065,20.578,12.435c3.958-7.369,11.63-12.435,20.591-12.435
							c8.942,0,16.626,5.063,20.575,12.43c3.953-7.366,11.63-12.43,20.587-12.43c8.945,0,16.626,5.063,20.574,12.43
							c3.951-7.366,11.631-12.43,20.587-12.43c8.946,0,16.625,5.065,20.585,12.435c3.945-7.369,11.628-12.435,20.584-12.435
							c8.946,0,16.627,5.063,20.576,12.43c3.951-7.366,11.63-12.43,20.587-12.43c8.946,0,16.624,5.063,20.575,12.43
							c3.951-7.366,11.629-12.43,20.585-12.43c8.947,0,16.63,5.068,20.584,12.437c3.947-7.368,11.631-12.437,20.587-12.437
							c8.945,0,16.625,5.063,20.576,12.43c3.95-7.366,11.629-12.43,20.585-12.43c8.947,0,16.625,5.065,20.58,12.432
							c3.948-7.366,11.626-12.432,20.581-12.432c8.951,0,16.636,5.068,20.585,12.437c3.952-7.368,11.629-12.437,20.587-12.437
							c8.946,0,16.623,5.065,20.582,12.432c3.948-7.366,11.63-12.432,20.577-12.432c8.948,0,16.626,5.063,20.585,12.43
							c3.942-7.366,11.63-12.43,20.58-12.43c8.953,0,16.63,5.063,20.582,12.43c3.951-7.366,11.629-12.43,20.584-12.43
							c8.948,0,16.627,5.063,20.585,12.43c3.951-7.366,11.63-12.43,20.582-12.43c8.948,0,16.629,5.063,20.581,12.43
							c3.951-7.366,11.629-12.43,20.585-12.43c8.943,0,16.626,5.063,20.576,12.43c3.951-7.366,11.631-12.43,20.585-12.43
							c8.948,0,16.63,5.063,20.585,12.43c3.951-7.366,11.63-12.43,20.581-12.43c8.946,0,16.631,5.063,20.581,12.43
							c3.951-7.366,11.63-12.43,20.585-12.43c8.946,0,16.626,5.063,20.577,12.43c3.949-7.366,11.629-12.43,20.585-12.43
							c8.947,0,16.624,5.068,20.584,12.437c3.945-7.368,11.63-12.437,20.585-12.437c8.947,0,16.626,5.063,20.577,12.43
							c3.949-7.366,11.63-12.43,20.585-12.43c8.947,0,16.626,5.065,20.577,12.432c3.958-7.366,11.633-12.432,20.584-12.432
							c8.948,0,16.634,5.068,20.583,12.437c3.953-7.368,11.632-12.437,20.587-12.437c8.947,0,16.626,5.065,20.585,12.432
							c3.95-7.366,11.629-12.432,20.577-12.432c8.947,0,16.624,5.063,20.58,12.43c3.955-7.366,11.634-12.43,20.58-12.43
							c8.947,0,16.635,5.065,20.586,12.435c3.949-7.369,11.634-12.435,20.585-12.435c8.947,0,16.624,5.063,20.581,12.43
							c3.949-7.366,11.63-12.43,20.579-12.43c8.948,0,16.63,5.063,20.586,12.43c3.949-7.366,11.63-12.43,20.576-12.43
							c8.956,0,16.633,5.063,20.586,12.43c3.95-7.366,11.628-12.43,20.583-12.43c8.948,0,16.636,5.063,20.587,12.43
							c3.949-7.366,11.63-12.43,20.579-12.43c8.948,0,16.632,5.063,20.582,12.43c3.95-7.366,11.629-12.43,20.585-12.43
							c8.948,0,16.624,5.063,20.575,12.43c3.952-7.366,11.63-12.43,20.585-12.43c8.948,0,16.636,5.063,20.587,12.43
							c3.95-7.366,11.63-12.43,20.584-12.43c8.949,0,16.625,5.063,20.577,12.43c3.95-7.366,11.628-12.43,20.584-12.43
							c8.948,0,16.626,5.063,20.578,12.43c3.95-7.366,11.629-12.43,20.585-12.43c8.947,0,16.633,5.068,20.585,12.438
							c3.951-7.37,11.628-12.438,20.584-12.438c8.947,0,16.626,5.063,20.577,12.43c3.951-7.366,11.63-12.43,20.585-12.43
							c8.948,0,16.627,5.065,20.577,12.432c3.955-7.366,11.634-12.432,20.585-12.432c8.948,0,16.634,5.068,20.585,12.437
							c3.951-7.368,11.63-12.437,20.585-12.437c8.947,0,16.626,5.065,20.586,12.432c3.945-7.366,11.628-12.432,20.576-12.432
							c8.946,0,16.626,5.063,20.584,12.43c3.947-7.366,11.63-12.43,20.581-12.43c8.951,0,16.63,5.065,20.581,12.435
							c3.951-7.369,11.634-12.435,20.585-12.435c8.947,0,16.626,5.063,20.584,12.43c3.951-7.366,11.63-12.43,20.581-12.43
							c8.948,0,16.63,5.063,20.581,12.43c3.951-7.366,11.63-12.43,20.577-12.43c9.1,0.415,14.997,4.156,20.585,12.43
							c0.004-0.007,0.009-0.015,0.013-0.022c0.004,0.008,0.009,0.015,0.013,0.022c6.519-8.386,12.302-12.43,20.584-12.43
							c8.947,0,16.627,5.063,20.574,12.43c3.954-7.366,11.63-12.43,20.589-12.43c8.944,0,16.625,5.065,20.577,12.435
							c3.958-7.369,11.63-12.435,20.591-12.435c8.942,0,16.627,5.063,20.575,12.43c3.953-7.366,11.63-12.43,20.587-12.43
							c8.945,0,16.627,5.063,20.574,12.43c3.951-7.366,11.631-12.43,20.587-12.43c8.946,0,16.625,5.065,20.585,12.435
							c3.945-7.369,11.629-12.435,20.584-12.435c8.946,0,16.627,5.063,20.576,12.43c3.951-7.366,11.63-12.43,20.587-12.43
							c8.946,0,16.624,5.063,20.575,12.43c3.951-7.366,11.629-12.43,20.585-12.43c8.947,0,16.63,5.068,20.584,12.437
							c3.947-7.368,11.631-12.437,20.587-12.437c8.945,0,16.625,5.063,20.576,12.43c3.95-7.366,11.629-12.43,20.585-12.43
							c8.946,0,16.625,5.065,20.58,12.432c3.948-7.366,11.626-12.432,20.581-12.432c8.95,0,16.636,5.068,20.585,12.437
							c3.951-7.368,11.629-12.437,20.587-12.437c8.945,0,16.623,5.065,20.582,12.432c3.947-7.366,11.63-12.432,20.577-12.432
							c8.948,0,16.626,5.063,20.585,12.43c3.941-7.366,11.63-12.43,20.58-12.43c8.953,0,16.63,5.063,20.581,12.43
							c3.952-7.366,11.63-12.43,20.585-12.43c8.947,0,16.627,5.063,20.585,12.43c3.951-7.366,11.63-12.43,20.581-12.43
							c8.949,0,16.63,5.063,20.581,12.43c3.952-7.366,11.63-12.43,20.585-12.43c8.943,0,16.626,5.063,20.576,12.43
							c3.951-7.366,11.631-12.43,20.585-12.43c8.948,0,16.63,5.063,20.585,12.43c3.951-7.366,11.63-12.43,20.581-12.43
							c8.948,0,16.631,5.063,20.581,12.43c3.951-7.366,11.63-12.43,20.585-12.43c8.948,0,16.626,5.063,20.577,12.43
							c3.949-7.366,11.629-12.43,20.584-12.43c8.948,0,16.625,5.068,20.584,12.437c3.946-7.368,11.631-12.437,20.586-12.437
							c8.947,0,16.625,5.063,20.578,12.43c3.948-7.366,11.629-12.43,20.584-12.43c8.947,0,16.625,5.065,20.577,12.432
							c3.958-7.366,11.632-12.432,20.584-12.432c8.948,0,16.634,5.068,20.585,12.437c3.951-7.368,11.629-12.437,20.586-12.437
							c8.946,0,16.625,5.065,20.584,12.432c3.95-7.366,11.629-12.432,20.577-12.432c8.947,0,16.624,5.063,20.58,12.43
							c3.955-7.366,11.634-12.43,20.58-12.43c8.947,0,16.636,5.065,20.586,12.435c3.949-7.369,11.634-12.435,20.585-12.435
							c8.947,0,16.624,5.063,20.581,12.43c3.949-7.366,11.63-12.43,20.579-12.43c8.947,0,16.63,5.063,20.586,12.43
							c3.949-7.366,11.63-12.43,20.576-12.43c8.956,0,16.633,5.063,20.586,12.43c3.949-7.366,11.628-12.43,20.583-12.43
							c8.947,0,16.636,5.063,20.587,12.43c3.949-7.366,11.63-12.43,20.579-12.43c8.947,0,16.632,5.063,20.582,12.43
							c3.949-7.366,11.629-12.43,20.585-12.43c8.947,0,16.624,5.063,20.575,12.43c3.951-7.366,11.63-12.43,20.585-12.43
							c8.947,0,16.636,5.063,20.587,12.43c3.949-7.366,11.63-12.43,20.584-12.43c8.948,0,16.625,5.063,20.576,12.43
							c3.95-7.366,11.629-12.43,20.584-12.43c8.948,0,16.627,5.063,20.578,12.43c3.95-7.366,11.629-12.43,20.585-12.43
							c8.947,0,16.634,5.068,20.585,12.438c3.95-7.37,11.629-12.438,20.584-12.438c8.946,0,16.627,5.063,20.577,12.43
							c3.951-7.366,11.63-12.43,20.585-12.43c8.948,0,16.627,5.065,20.577,12.432c3.955-7.366,11.634-12.432,20.584-12.432
							c8.949,0,16.635,5.068,20.586,12.437c3.951-7.368,11.63-12.437,20.585-12.437c8.948,0,16.626,5.065,20.586,12.432
							c3.946-7.366,11.628-12.432,20.575-12.432s16.627,5.063,20.584,12.43c3.948-7.366,11.631-12.43,20.582-12.43
							s16.629,5.065,20.582,12.435c3.95-7.369,11.633-12.435,20.584-12.435c8.947,0,16.625,5.063,20.584,12.43
							c3.951-7.366,11.629-12.43,20.582-12.43c8.947,0,16.629,5.063,20.58,12.43c3.951-7.366,11.629-12.43,20.577-12.43
							c8.951,0,16.634,5.063,20.585,12.43c3.063-5.714,8.385-10.01,14.801-11.663V112.25
							C2199.713,110.167,2195.545,106.381,2192.97,101.585"/>
					</defs>
					<clipPath id="SVGID_8_">
						<use xlink:href="#SVGID_7_"  overflow="visible"/>
					</clipPath>
					
						<radialGradient id="SVGID_9_" cx="-1608.001" cy="740.998" r="1" gradientTransform="matrix(1303.3146 0 0 -1303.3146 2095235 965926.875)" gradientUnits="userSpaceOnUse">
						<stop  offset="0" style="stop-color:#84D2FF"/>
						<stop  offset="1" style="stop-color:#73A3BA"/>
					</radialGradient>
					<rect x="-1609" y="101.577" clip-path="url(#SVGID_8_)" fill="url(#SVGID_9_)" width="3813.771" height="640.313"/>
				</g>
			</g>
		</g>
	</g>
</g>
</svg>
