<?xml version="1.0" encoding="utf-8"?>
<!-- Generator: Adobe Illustrator 15.0.0, SVG Export Plug-In . SVG Version: 6.00 Build 0)  -->
<!DOCTYPE svg PUBLIC "-//W3C//DTD SVG 1.1//EN" "http://www.w3.org/Graphics/SVG/1.1/DTD/svg11.dtd">
<svg version="1.1" id="Layer_1" xmlns="http://www.w3.org/2000/svg" xmlns:xlink="http://www.w3.org/1999/xlink" x="0px" y="0px"
	 width="595.28px" height="841.89px" viewBox="0 0 595.28 841.89" enable-background="new 0 0 595.28 841.89" xml:space="preserve">
<path fill="#001680" d="M2192.97-78.111c-3.951,7.366-11.631,12.43-20.584,12.43c-8.948,0-16.627-5.064-20.576-12.43
	c-3.953,7.366-11.629,12.43-20.587,12.43c-8.945,0-16.626-5.066-20.579-12.435c-3.957,7.369-11.629,12.435-20.59,12.435
	c-8.942,0-16.626-5.064-20.575-12.43c-3.953,7.366-11.63,12.43-20.587,12.43c-8.945,0-16.626-5.064-20.574-12.43
	c-3.952,7.366-11.631,12.43-20.587,12.43c-8.947,0-16.625-5.066-20.585-12.435c-3.946,7.369-11.628,12.435-20.584,12.435
	c-8.946,0-16.628-5.064-20.576-12.43c-3.952,7.366-11.63,12.43-20.587,12.43c-8.947,0-16.624-5.064-20.574-12.43
	c-3.953,7.366-11.63,12.43-20.586,12.43c-8.947,0-16.63-5.068-20.584-12.437c-3.947,7.369-11.631,12.437-20.587,12.437
	c-8.946,0-16.625-5.064-20.577-12.43c-3.949,7.366-11.628,12.43-20.584,12.43c-8.946,0-16.625-5.066-20.58-12.432
	c-3.947,7.366-11.627,12.432-20.582,12.432c-8.949,0-16.635-5.068-20.584-12.437c-3.951,7.369-11.629,12.437-20.586,12.437
	c-8.946,0-16.625-5.066-20.584-12.432c-3.946,7.366-11.629,12.432-20.576,12.432s-16.627-5.064-20.586-12.43
	c-3.94,7.366-11.629,12.43-20.58,12.43s-16.629-5.064-20.58-12.43c-3.951,7.366-11.631,12.43-20.586,12.43
	c-8.946,0-16.627-5.064-20.584-12.43c-3.95,7.366-11.631,12.43-20.581,12.43c-8.948,0-16.63-5.064-20.581-12.43
	c-3.951,7.366-11.631,12.43-20.585,12.43c-8.943,0-16.626-5.064-20.576-12.43c-3.951,7.366-11.631,12.43-20.585,12.43
	c-8.948,0-16.63-5.064-20.585-12.43c-3.951,7.366-11.63,12.43-20.581,12.43c-8.947,0-16.631-5.064-20.581-12.43
	c-3.951,7.366-11.63,12.43-20.585,12.43c-8.947,0-16.626-5.064-20.577-12.43c-3.949,7.366-11.629,12.43-20.585,12.43
	c-8.947,0-16.624-5.068-20.584-12.437c-3.945,7.369-11.63,12.437-20.585,12.437c-8.947,0-16.626-5.064-20.578-12.43
	c-3.948,7.366-11.629,12.43-20.584,12.43c-8.947,0-16.626-5.066-20.577-12.432c-3.958,7.366-11.633,12.432-20.584,12.432
	c-8.948,0-16.634-5.068-20.585-12.437c-3.951,7.369-11.63,12.437-20.585,12.437c-8.947,0-16.626-5.066-20.585-12.432
	c-3.95,7.366-11.629,12.432-20.577,12.432c-8.947,0-16.624-5.064-20.58-12.43c-3.955,7.366-11.634,12.43-20.58,12.43
	c-8.947,0-16.635-5.066-20.586-12.435c-3.949,7.369-11.634,12.435-20.585,12.435c-8.948,0-16.624-5.064-20.581-12.43
	c-3.949,7.366-11.63,12.43-20.578,12.43s-16.631-5.064-20.587-12.43c-3.95,7.366-11.63,12.43-20.575,12.43
	c-8.957,0-16.634-5.064-20.586-12.43c-3.949,7.366-11.629,12.43-20.584,12.43c-8.946,0-16.636-5.064-20.587-12.43
	c-3.948,7.366-11.63,12.43-20.579,12.43c-8.946,0-16.632-5.064-20.582-12.43c-3.948,7.366-11.629,12.43-20.584,12.43
	c-8.947,0-16.625-5.064-20.575-12.43c-3.951,7.366-11.63,12.43-20.585,12.43c-8.947,0-16.637-5.064-20.588-12.43
	c-3.948,7.366-11.629,12.43-20.584,12.43c-8.947,0-16.625-5.064-20.575-12.43c-3.95,7.366-11.63,12.43-20.584,12.43
	c-8.948,0-16.627-5.064-20.578-12.43c-3.951,7.366-11.629,12.43-20.585,12.43c-8.948,0-16.635-5.068-20.585-12.439
	c-3.951,7.371-11.63,12.439-20.585,12.439c-8.947,0-16.627-5.064-20.576-12.43c-3.952,7.366-11.63,12.43-20.585,12.43
	c-8.949,0-16.627-5.066-20.578-12.432c-3.955,7.366-11.633,12.432-20.584,12.432c-8.949,0-16.634-5.068-20.585-12.437
	c-3.952,7.369-11.63,12.437-20.585,12.437c-8.948,0-16.626-5.066-20.586-12.432c-3.946,7.366-11.628,12.432-20.577,12.432
	c-8.946,0-16.625-5.064-20.584-12.43c-3.947,7.366-11.629,12.43-20.581,12.43c-8.951,0-16.629-5.066-20.581-12.435
	c-3.951,7.369-11.633,12.435-20.585,12.435c-8.947,0-16.626-5.064-20.584-12.43c-3.951,7.366-11.629,12.43-20.581,12.43
	c-8.948,0-16.629-5.064-20.581-12.43c-3.951,7.366-11.63,12.43-20.577,12.43c-3.129,0-6.096-0.63-8.81-1.749v-0.015
	c-1.878-0.774-3.631-1.784-5.229-2.992c-0.034-0.027-0.069-0.053-0.104-0.079c-0.454-0.348-0.892-0.716-1.319-1.095
	c-0.084-0.076-0.173-0.148-0.257-0.226c-0.431-0.394-0.847-0.805-1.248-1.23c-0.233-0.249-0.453-0.511-0.676-0.77
	c-0.142-0.165-0.286-0.328-0.424-0.496c-0.269-0.33-0.527-0.668-0.777-1.011c-0.06-0.082-0.119-0.166-0.178-0.248
	c-0.57-0.805-1.095-1.645-1.564-2.519c-0.004,0.008-0.009,0.015-0.012,0.022c-0.004-0.007-0.01-0.014-0.014-0.022
	c-1.229,2.29-2.818,4.357-4.694,6.119c-0.022,0.022-0.045,0.042-0.068,0.064c-0.31,0.289-0.631,0.566-0.956,0.838
	c-0.091,0.076-0.179,0.152-0.271,0.226c-0.246,0.199-0.499,0.388-0.753,0.577c-2.372,1.757-5.084,3.079-8.032,3.839v0.019
	c-1.855,0.479-3.797,0.748-5.81,0.748c-8.948,0-16.627-5.064-20.576-12.43c-3.953,7.366-11.629,12.43-20.587,12.43
	c-8.945,0-16.626-5.066-20.579-12.435c-3.957,7.369-11.629,12.435-20.59,12.435c-8.942,0-16.626-5.064-20.575-12.43
	c-3.953,7.366-11.63,12.43-20.587,12.43c-8.945,0-16.626-5.064-20.574-12.43c-3.951,7.366-11.631,12.43-20.587,12.43
	c-8.946,0-16.625-5.066-20.585-12.435c-3.945,7.369-11.628,12.435-20.584,12.435c-8.946,0-16.628-5.064-20.576-12.43
	c-3.951,7.366-11.63,12.43-20.587,12.43c-8.946,0-16.624-5.064-20.575-12.43c-3.951,7.366-11.629,12.43-20.585,12.43
	c-8.947,0-16.63-5.068-20.584-12.437c-3.947,7.369-11.631,12.437-20.587,12.437c-8.945,0-16.625-5.064-20.576-12.43
	c-3.95,7.366-11.629,12.43-20.585,12.43c-8.946,0-16.625-5.066-20.58-12.432c-3.947,7.366-11.626,12.432-20.581,12.432
	c-8.95,0-16.636-5.068-20.585-12.437c-3.951,7.369-11.629,12.437-20.587,12.437c-8.945,0-16.623-5.066-20.582-12.432
	c-3.947,7.366-11.63,12.432-20.577,12.432c-8.948,0-16.626-5.064-20.585-12.43c-3.941,7.366-11.63,12.43-20.58,12.43
	c-8.953,0-16.63-5.064-20.581-12.43c-3.952,7.366-11.63,12.43-20.585,12.43c-8.948,0-16.627-5.064-20.585-12.43
	c-3.951,7.366-11.63,12.43-20.581,12.43c-8.949,0-16.63-5.064-20.581-12.43c-3.952,7.366-11.63,12.43-20.585,12.43
	c-8.944,0-16.626-5.064-20.577-12.43c-3.951,7.366-11.63,12.43-20.585,12.43c-8.948,0-16.629-5.064-20.585-12.43
	c-3.951,7.366-11.629,12.43-20.581,12.43c-8.947,0-16.63-5.064-20.581-12.43c-3.951,7.366-11.629,12.43-20.585,12.43
	c-8.947,0-16.626-5.064-20.577-12.43c-3.949,7.366-11.629,12.43-20.585,12.43c-8.947,0-16.624-5.068-20.584-12.437
	c-3.945,7.369-11.63,12.437-20.585,12.437c-8.947,0-16.626-5.064-20.578-12.43c-3.948,7.366-11.629,12.43-20.584,12.43
	c-8.947,0-16.626-5.066-20.577-12.432c-3.958,7.366-11.633,12.432-20.584,12.432c-8.948,0-16.634-5.068-20.585-12.437
	c-3.951,7.369-11.63,12.437-20.585,12.437c-8.947,0-16.626-5.066-20.585-12.432c-3.95,7.366-11.629,12.432-20.577,12.432
	c-8.947,0-16.624-5.064-20.58-12.43c-3.955,7.366-11.634,12.43-20.58,12.43c-8.947,0-16.635-5.066-20.586-12.435
	c-3.949,7.369-11.634,12.435-20.585,12.435c-8.947,0-16.624-5.064-20.581-12.43c-3.949,7.366-11.63,12.43-20.579,12.43
	c-8.947,0-16.63-5.064-20.586-12.43c-3.949,7.366-11.63,12.43-20.576,12.43c-8.956,0-16.633-5.064-20.586-12.43
	c-3.949,7.366-11.628,12.43-20.583,12.43c-8.947,0-16.636-5.064-20.587-12.43c-3.949,7.366-11.63,12.43-20.579,12.43
	c-8.947,0-16.632-5.064-20.582-12.43c-3.949,7.366-11.629,12.43-20.585,12.43c-8.947,0-16.624-5.064-20.575-12.43
	c-3.952,7.366-11.63,12.43-20.585,12.43c-8.948,0-16.636-5.064-20.587-12.43c-3.949,7.366-11.63,12.43-20.584,12.43
	c-8.948,0-16.625-5.064-20.576-12.43c-3.951,7.366-11.629,12.43-20.584,12.43c-8.949,0-16.627-5.064-20.579-12.43
	c-3.95,7.366-11.628,12.43-20.584,12.43c-8.948,0-16.635-5.068-20.585-12.439c-3.951,7.371-11.63,12.439-20.585,12.439
	c-8.947,0-16.627-5.064-20.577-12.43c-3.951,7.366-11.629,12.43-20.585,12.43c-8.948,0-16.626-5.066-20.577-12.432
	c-3.955,7.366-11.633,12.432-20.585,12.432c-8.948,0-16.633-5.068-20.585-12.437c-3.951,7.369-11.629,12.437-20.585,12.437
	c-8.947,0-16.626-5.066-20.585-12.432c-3.946,7.366-11.628,12.432-20.577,12.432c-8.946,0-16.626-5.064-20.584-12.43
	c-3.947,7.366-11.63,12.43-20.581,12.43c-8.951,0-16.63-5.066-20.581-12.435c-3.951,7.369-11.634,12.435-20.585,12.435
	c-8.947,0-16.626-5.064-20.584-12.43c-3.951,7.366-11.63,12.43-20.581,12.43c-8.948,0-16.63-5.064-20.581-12.43
	c-3.951,7.366-11.63,12.43-20.577,12.43c-8.951,0-16.634-5.064-20.585-12.43c-3.063,5.714-8.385,10.01-14.8,11.663v975.663
	c5.058,2.084,9.226,5.871,11.801,10.666c3.951-7.366,11.63-12.431,20.584-12.431c8.948,0,16.627,5.064,20.576,12.431
	c3.953-7.366,11.629-12.431,20.587-12.431c8.945,0,16.626,5.066,20.579,12.436c3.957-7.369,11.629-12.436,20.59-12.436
	c8.942,0,16.626,5.064,20.575,12.431c3.953-7.366,11.63-12.431,20.587-12.431c8.945,0,16.626,5.064,20.574,12.431
	c3.952-7.366,11.631-12.431,20.587-12.431c8.947,0,16.625,5.066,20.585,12.436c3.946-7.369,11.628-12.436,20.585-12.436
	c8.946,0,16.627,5.064,20.575,12.431c3.952-7.366,11.63-12.431,20.587-12.431c8.947,0,16.624,5.064,20.576,12.431
	c3.951-7.366,11.628-12.431,20.584-12.431c8.948,0,16.63,5.069,20.584,12.438c3.948-7.368,11.631-12.438,20.587-12.438
	c8.946,0,16.625,5.064,20.577,12.431c3.95-7.366,11.628-12.431,20.585-12.431c8.946,0,16.625,5.066,20.58,12.433
	c3.947-7.366,11.626-12.433,20.581-12.433c8.95,0,16.635,5.069,20.585,12.438c3.951-7.368,11.629-12.438,20.587-12.438
	c8.945,0,16.623,5.066,20.582,12.433c3.947-7.366,11.629-12.433,20.577-12.433c8.947,0,16.626,5.064,20.585,12.431
	c3.941-7.366,11.63-12.431,20.58-12.431c8.952,0,16.63,5.064,20.581,12.431c3.951-7.366,11.63-12.431,20.585-12.431
	c8.947,0,16.627,5.064,20.585,12.431c3.95-7.366,11.63-12.431,20.581-12.431c8.948,0,16.63,5.064,20.581,12.431
	c3.951-7.366,11.63-12.431,20.585-12.431c8.943,0,16.626,5.064,20.576,12.431c3.951-7.366,11.631-12.431,20.585-12.431
	c8.948,0,16.63,5.064,20.585,12.431c3.951-7.366,11.63-12.431,20.581-12.431c8.947,0,16.631,5.064,20.581,12.431
	c3.951-7.366,11.63-12.431,20.585-12.431c8.947,0,16.626,5.064,20.577,12.431c3.949-7.366,11.629-12.431,20.585-12.431
	c8.947,0,16.624,5.069,20.584,12.438c3.945-7.368,11.63-12.438,20.585-12.438c8.947,0,16.626,5.064,20.577,12.431
	c3.949-7.366,11.63-12.431,20.585-12.431c8.947,0,16.626,5.066,20.577,12.433c3.958-7.366,11.633-12.433,20.584-12.433
	c8.949,0,16.634,5.069,20.584,12.438c3.952-7.368,11.631-12.438,20.586-12.438c8.947,0,16.626,5.066,20.585,12.433
	c3.95-7.366,11.629-12.433,20.577-12.433c8.948,0,16.624,5.064,20.58,12.431c3.955-7.366,11.634-12.431,20.58-12.431
	c8.948,0,16.635,5.066,20.586,12.436c3.95-7.369,11.634-12.436,20.585-12.436c8.948,0,16.624,5.064,20.581,12.431
	c3.95-7.366,11.63-12.431,20.58-12.431c8.947,0,16.629,5.064,20.585,12.431c3.95-7.366,11.63-12.431,20.577-12.431
	c8.956,0,16.632,5.064,20.586,12.431c3.949-7.366,11.627-12.431,20.583-12.431c8.947,0,16.635,5.064,20.586,12.431
	c3.95-7.366,11.63-12.431,20.58-12.431c8.947,0,16.631,5.064,20.582,12.431c3.949-7.366,11.629-12.431,20.585-12.431
	c8.947,0,16.624,5.064,20.575,12.431c3.951-7.366,11.63-12.431,20.585-12.431c8.947,0,16.635,5.064,20.587,12.431
	c3.949-7.366,11.63-12.431,20.584-12.431c8.948,0,16.625,5.064,20.576,12.431c3.95-7.366,11.629-12.431,20.584-12.431
	c8.948,0,16.627,5.064,20.578,12.431c3.95-7.366,11.629-12.431,20.585-12.431c8.947,0,16.634,5.069,20.585,12.439
	c3.951-7.37,11.629-12.439,20.584-12.439c8.947,0,16.627,5.064,20.577,12.431c3.951-7.366,11.63-12.431,20.585-12.431
	c8.948,0,16.627,5.066,20.577,12.433c3.955-7.366,11.634-12.433,20.585-12.433c8.948,0,16.634,5.069,20.585,12.438
	c3.951-7.368,11.63-12.438,20.585-12.438c8.947,0,16.626,5.066,20.586,12.433c3.945-7.366,11.628-12.433,20.576-12.433
	c8.946,0,16.626,5.064,20.584,12.431c3.947-7.366,11.63-12.431,20.581-12.431s16.63,5.066,20.581,12.436
	c3.951-7.369,11.634-12.436,20.585-12.436c8.947,0,16.626,5.064,20.584,12.431c3.951-7.366,11.63-12.431,20.581-12.431
	c8.948,0,16.63,5.064,20.581,12.431c3.951-7.366,11.63-12.431,20.577-12.431c9.101,0.416,14.997,4.157,20.585,12.431
	c0.004-0.008,0.009-0.015,0.013-0.021c0.004,0.007,0.009,0.014,0.013,0.021c6.52-8.388,12.303-12.431,20.584-12.431
	c8.948,0,16.627,5.064,20.576,12.431c3.953-7.366,11.629-12.431,20.587-12.431c8.946,0,16.626,5.066,20.579,12.436
	c3.957-7.369,11.629-12.436,20.59-12.436c8.943,0,16.626,5.064,20.575,12.431c3.954-7.366,11.63-12.431,20.587-12.431
	c8.946,0,16.626,5.064,20.575,12.431c3.951-7.366,11.63-12.431,20.586-12.431c8.947,0,16.625,5.066,20.585,12.436
	c3.946-7.369,11.628-12.436,20.585-12.436c8.946,0,16.627,5.064,20.576,12.431c3.951-7.366,11.629-12.431,20.586-12.431
	c8.947,0,16.625,5.064,20.576,12.431c3.95-7.366,11.629-12.431,20.585-12.431c8.947,0,16.63,5.069,20.584,12.438
	c3.947-7.368,11.63-12.438,20.587-12.438c8.944,0,16.625,5.064,20.576,12.431c3.95-7.366,11.629-12.431,20.585-12.431
	c8.945,0,16.625,5.066,20.58,12.433c3.947-7.366,11.626-12.433,20.581-12.433c8.95,0,16.636,5.069,20.585,12.438
	c3.951-7.368,11.629-12.438,20.587-12.438c8.944,0,16.623,5.066,20.582,12.433c3.946-7.366,11.63-12.433,20.577-12.433
	c8.946,0,16.625,5.064,20.584,12.431c3.941-7.366,11.631-12.431,20.58-12.431c8.953,0,16.631,5.064,20.582,12.431
	c3.95-7.366,11.629-12.431,20.584-12.431c8.947,0,16.627,5.064,20.586,12.431c3.949-7.366,11.63-12.431,20.58-12.431
	c8.948,0,16.631,5.064,20.582,12.431c3.95-7.366,11.629-12.431,20.584-12.431c8.943,0,16.625,5.064,20.576,12.431
	c3.951-7.366,11.631-12.431,20.585-12.431c8.948,0,16.63,5.064,20.585,12.431c3.951-7.366,11.629-12.431,20.581-12.431
	c8.947,0,16.63,5.064,20.581,12.431c3.951-7.366,11.631-12.431,20.585-12.431c8.947,0,16.626,5.064,20.577,12.431
	c3.949-7.366,11.629-12.431,20.585-12.431c8.947,0,16.624,5.069,20.584,12.438c3.945-7.368,11.63-12.438,20.585-12.438
	c8.947,0,16.626,5.064,20.577,12.431c3.949-7.366,11.63-12.431,20.585-12.431c8.947,0,16.626,5.066,20.577,12.433
	c3.958-7.366,11.633-12.433,20.584-12.433c8.948,0,16.634,5.069,20.584,12.438c3.952-7.368,11.631-12.438,20.586-12.438
	c8.947,0,16.626,5.066,20.585,12.433c3.95-7.366,11.629-12.433,20.577-12.433c8.947,0,16.624,5.064,20.58,12.431
	c3.955-7.366,11.634-12.431,20.58-12.431s16.635,5.066,20.586,12.436c3.949-7.369,11.634-12.436,20.585-12.436
	c8.947,0,16.624,5.064,20.581,12.431c3.948-7.366,11.63-12.431,20.579-12.431c8.947,0,16.63,5.064,20.586,12.431
	c3.949-7.366,11.63-12.431,20.576-12.431c8.955,0,16.633,5.064,20.586,12.431c3.949-7.366,11.628-12.431,20.583-12.431
	c8.946,0,16.636,5.064,20.587,12.431c3.949-7.366,11.63-12.431,20.579-12.431c8.948,0,16.632,5.064,20.582,12.431
	c3.948-7.366,11.629-12.431,20.585-12.431c8.947,0,16.624,5.064,20.574,12.431c3.952-7.366,11.631-12.431,20.586-12.431
	c8.947,0,16.636,5.064,20.586,12.431c3.951-7.366,11.631-12.431,20.584-12.431c8.949,0,16.625,5.064,20.576,12.431
	c3.951-7.366,11.629-12.431,20.584-12.431c8.949,0,16.627,5.064,20.579,12.431c3.95-7.366,11.628-12.431,20.585-12.431
	c8.947,0,16.633,5.069,20.584,12.439c3.952-7.37,11.629-12.439,20.584-12.439c8.948,0,16.627,5.064,20.578,12.431
	c3.951-7.366,11.631-12.431,20.585-12.431c8.948,0,16.627,5.066,20.577,12.433c3.955-7.366,11.635-12.433,20.585-12.433
	c8.948,0,16.634,5.069,20.585,12.438c3.951-7.368,11.63-12.438,20.585-12.438c8.947,0,16.626,5.066,20.586,12.433
	c3.945-7.366,11.628-12.433,20.576-12.433c8.946,0,16.626,5.064,20.584,12.431c3.947-7.366,11.63-12.431,20.581-12.431
	s16.63,5.066,20.581,12.436c3.951-7.369,11.634-12.436,20.585-12.436c8.947,0,16.626,5.064,20.584,12.431
	c3.951-7.366,11.63-12.431,20.581-12.431c8.948,0,16.63,5.064,20.581,12.431c3.951-7.366,11.63-12.431,20.577-12.431
	c8.951,0,16.634,5.064,20.585,12.431c3.062-5.714,8.385-10.01,14.8-11.663V-67.445C2199.713-69.529,2195.545-73.315,2192.97-78.111"
	/>
</svg>
