<?xml version="1.0" encoding="utf-8"?>
<!-- Generator: Adobe Illustrator 15.0.0, SVG Export Plug-In . SVG Version: 6.00 Build 0)  -->
<!DOCTYPE svg PUBLIC "-//W3C//DTD SVG 1.1//EN" "http://www.w3.org/Graphics/SVG/1.1/DTD/svg11.dtd">
<svg version="1.1" id="Layer_1" xmlns="http://www.w3.org/2000/svg" xmlns:xlink="http://www.w3.org/1999/xlink" x="0px" y="0px"
	 width="595.28px" height="841.89px" viewBox="0 0 595.28 841.89" enable-background="new 0 0 595.28 841.89" xml:space="preserve">
<path fill="#001680" d="M2204.771,806.89V46.631c-5.059-2.084-9.227-5.87-11.801-10.666c-3.951,7.366-11.633,12.43-20.584,12.43
	c-8.949,0-16.629-5.064-20.576-12.43c-3.953,7.366-11.629,12.43-20.588,12.43c-8.945,0-16.625-5.066-20.578-12.435
	c-3.957,7.369-11.629,12.435-20.59,12.435c-8.943,0-16.627-5.064-20.576-12.43c-3.953,7.366-11.629,12.43-20.586,12.43
	c-8.945,0-16.627-5.064-20.574-12.43c-3.951,7.366-11.631,12.43-20.588,12.43c-8.945,0-16.625-5.066-20.584-12.435
	c-3.945,7.369-11.629,12.435-20.584,12.435c-8.947,0-16.629-5.064-20.576-12.43c-3.951,7.366-11.631,12.43-20.588,12.43
	c-8.945,0-16.623-5.064-20.574-12.43c-3.951,7.366-11.629,12.43-20.586,12.43c-8.947,0-16.629-5.067-20.584-12.437
	c-3.947,7.37-11.631,12.437-20.586,12.437c-8.945,0-16.625-5.064-20.576-12.43c-3.951,7.366-11.629,12.43-20.586,12.43
	c-8.947,0-16.625-5.066-20.58-12.432c-3.947,7.366-11.625,12.432-20.58,12.432c-8.951,0-16.637-5.067-20.586-12.437
	c-3.951,7.37-11.629,12.437-20.586,12.437c-8.947,0-16.623-5.066-20.582-12.432c-3.949,7.366-11.631,12.432-20.578,12.432
	s-16.625-5.064-20.584-12.43c-3.941,7.366-11.631,12.43-20.58,12.43c-8.953,0-16.631-5.064-20.582-12.43
	c-3.951,7.366-11.629,12.43-20.584,12.43c-8.947,0-16.627-5.064-20.586-12.43c-3.951,7.366-11.629,12.43-20.582,12.43
	c-8.947,0-16.629-5.064-20.58-12.43c-3.951,7.366-11.629,12.43-20.586,12.43c-8.941,0-16.625-5.064-20.576-12.43
	c-3.949,7.366-11.631,12.43-20.584,12.43c-8.947,0-16.631-5.064-20.586-12.43c-3.949,7.366-11.629,12.43-20.58,12.43
	c-8.947,0-16.631-5.064-20.58-12.43c-3.951,7.366-11.631,12.43-20.586,12.43c-8.947,0-16.627-5.064-20.576-12.43
	c-3.949,7.366-11.629,12.43-20.586,12.43c-8.947,0-16.623-5.067-20.584-12.437c-3.945,7.37-11.631,12.437-20.584,12.437
	c-8.947,0-16.627-5.064-20.578-12.43c-3.949,7.366-11.629,12.43-20.584,12.43c-8.947,0-16.627-5.066-20.578-12.432
	c-3.957,7.366-11.633,12.432-20.584,12.432c-8.947,0-16.633-5.067-20.584-12.437c-3.951,7.37-11.631,12.437-20.586,12.437
	c-8.947,0-16.625-5.066-20.584-12.432c-3.951,7.366-11.629,12.432-20.578,12.432c-8.947,0-16.623-5.064-20.58-12.43
	c-3.955,7.366-11.633,12.43-20.58,12.43s-16.635-5.066-20.586-12.435c-3.949,7.369-11.633,12.435-20.584,12.435
	c-8.947,0-16.625-5.064-20.582-12.43c-3.949,7.366-11.629,12.43-20.578,12.43s-16.631-5.064-20.586-12.43
	c-3.949,7.366-11.631,12.43-20.576,12.43c-8.957,0-16.633-5.064-20.586-12.43c-3.949,7.366-11.629,12.43-20.584,12.43
	c-8.947,0-16.635-5.064-20.586-12.43c-3.949,7.366-11.631,12.43-20.58,12.43c-8.947,0-16.631-5.064-20.582-12.43
	c-3.949,7.366-11.629,12.43-20.584,12.43c-8.947,0-16.625-5.064-20.576-12.43c-3.951,7.366-11.629,12.43-20.584,12.43
	c-8.947,0-16.637-5.064-20.588-12.43c-3.949,7.366-11.629,12.43-20.584,12.43c-8.947,0-16.625-5.064-20.576-12.43
	c-3.949,7.366-11.629,12.43-20.584,12.43c-8.947,0-16.627-5.064-20.578-12.43c-3.949,7.366-11.629,12.43-20.584,12.43
	c-8.947,0-16.635-5.067-20.586-12.439c-3.949,7.372-11.629,12.439-20.584,12.439c-8.947,0-16.627-5.064-20.576-12.43
	c-3.951,7.366-11.631,12.43-20.586,12.43c-8.947,0-16.627-5.066-20.576-12.432c-3.955,7.366-11.635,12.432-20.584,12.432
	s-16.635-5.067-20.586-12.437c-3.951,7.37-11.631,12.437-20.584,12.437c-8.947,0-16.627-5.066-20.588-12.432
	c-3.945,7.366-11.627,12.432-20.574,12.432s-16.627-5.064-20.584-12.43c-3.949,7.366-11.631,12.43-20.582,12.43
	s-16.629-5.066-20.58-12.435c-3.953,7.369-11.635,12.435-20.586,12.435c-8.947,0-16.625-5.064-20.584-12.43
	c-3.951,7.366-11.629,12.43-20.58,12.43c-8.949,0-16.631-5.064-20.582-12.43c-3.951,7.366-11.629,12.43-20.578,12.43
	c-3.129,0-6.096-0.63-8.809-1.749v-0.015c-1.879-0.774-3.633-1.784-5.229-2.992c-0.035-0.026-0.07-0.053-0.104-0.079
	c-0.455-0.348-0.893-0.716-1.32-1.095c-0.084-0.076-0.172-0.148-0.256-0.225c-0.432-0.395-0.848-0.806-1.248-1.231
	c-0.234-0.249-0.453-0.511-0.676-0.769c-0.143-0.165-0.287-0.329-0.426-0.496c-0.268-0.331-0.525-0.668-0.775-1.012
	c-0.061-0.082-0.119-0.166-0.178-0.248c-0.57-0.805-1.096-1.645-1.564-2.519c-0.004,0.008-0.008,0.015-0.012,0.023
	c-0.004-0.008-0.012-0.015-0.014-0.023c-1.229,2.29-2.819,4.358-4.694,6.119c-0.023,0.022-0.046,0.042-0.069,0.064
	c-0.31,0.289-0.631,0.566-0.956,0.838c-0.091,0.076-0.179,0.152-0.271,0.226c-0.245,0.199-0.499,0.388-0.753,0.577
	c-2.372,1.757-5.084,3.08-8.031,3.839v0.019c-1.856,0.479-3.798,0.748-5.81,0.748c-8.949,0-16.627-5.064-20.577-12.43
	c-3.953,7.366-11.629,12.43-20.587,12.43c-8.945,0-16.625-5.066-20.579-12.435c-3.957,7.369-11.629,12.435-20.589,12.435
	c-8.943,0-16.626-5.064-20.576-12.43c-3.953,7.366-11.63,12.43-20.587,12.43c-8.945,0-16.626-5.064-20.574-12.43
	c-3.951,7.366-11.631,12.43-20.587,12.43c-8.946,0-16.625-5.066-20.585-12.435c-3.945,7.369-11.628,12.435-20.584,12.435
	c-8.946,0-16.628-5.064-20.576-12.43c-3.951,7.366-11.63,12.43-20.587,12.43c-8.946,0-16.624-5.064-20.575-12.43
	c-3.951,7.366-11.629,12.43-20.585,12.43c-8.947,0-16.63-5.067-20.584-12.437c-3.947,7.37-11.631,12.437-20.587,12.437
	c-8.945,0-16.625-5.064-20.576-12.43c-3.95,7.366-11.629,12.43-20.585,12.43c-8.946,0-16.625-5.066-20.58-12.432
	c-3.947,7.366-11.626,12.432-20.581,12.432c-8.95,0-16.636-5.067-20.585-12.437c-3.951,7.37-11.629,12.437-20.587,12.437
	c-8.945,0-16.623-5.066-20.582-12.432c-3.947,7.366-11.63,12.432-20.577,12.432c-8.947,0-16.626-5.064-20.585-12.43
	c-3.941,7.366-11.63,12.43-20.58,12.43c-8.952,0-16.63-5.064-20.581-12.43c-3.951,7.366-11.63,12.43-20.585,12.43
	c-8.947,0-16.627-5.064-20.585-12.43c-3.95,7.366-11.63,12.43-20.581,12.43c-8.948,0-16.63-5.064-20.581-12.43
	c-3.951,7.366-11.63,12.43-20.585,12.43c-8.944,0-16.626-5.064-20.576-12.43c-3.952,7.366-11.631,12.43-20.585,12.43
	c-8.949,0-16.63-5.064-20.585-12.43c-3.951,7.366-11.63,12.43-20.581,12.43c-8.948,0-16.631-5.064-20.581-12.43
	c-3.952,7.366-11.63,12.43-20.585,12.43c-8.948,0-16.626-5.064-20.578-12.43c-3.949,7.366-11.628,12.43-20.584,12.43
	c-8.948,0-16.624-5.067-20.584-12.437c-3.946,7.37-11.63,12.437-20.585,12.437c-8.948,0-16.626-5.064-20.579-12.43
	c-3.948,7.366-11.628,12.43-20.584,12.43c-8.947,0-16.625-5.066-20.577-12.432c-3.958,7.366-11.632,12.432-20.584,12.432
	c-8.948,0-16.633-5.067-20.585-12.437c-3.951,7.37-11.629,12.437-20.585,12.437c-8.947,0-16.626-5.066-20.585-12.432
	c-3.95,7.366-11.628,12.432-20.577,12.432c-8.947,0-16.624-5.064-20.58-12.43c-3.955,7.366-11.634,12.43-20.58,12.43
	c-8.947,0-16.635-5.066-20.586-12.435c-3.949,7.369-11.634,12.435-20.585,12.435c-8.947,0-16.624-5.064-20.581-12.43
	c-3.949,7.366-11.63,12.43-20.579,12.43c-8.947,0-16.63-5.064-20.586-12.43c-3.949,7.366-11.63,12.43-20.576,12.43
	c-8.956,0-16.633-5.064-20.586-12.43c-3.949,7.366-11.628,12.43-20.583,12.43c-8.947,0-16.636-5.064-20.587-12.43
	c-3.949,7.366-11.63,12.43-20.579,12.43c-8.947,0-16.632-5.064-20.582-12.43c-3.949,7.366-11.629,12.43-20.585,12.43
	c-8.947,0-16.624-5.064-20.575-12.43c-3.951,7.366-11.63,12.43-20.585,12.43c-8.947,0-16.636-5.064-20.587-12.43
	c-3.949,7.366-11.63,12.43-20.584,12.43c-8.948,0-16.625-5.064-20.576-12.43c-3.95,7.366-11.629,12.43-20.584,12.43
	c-8.948,0-16.627-5.064-20.578-12.43c-3.95,7.366-11.629,12.43-20.585,12.43c-8.948,0-16.635-5.067-20.585-12.439
	c-3.951,7.372-11.63,12.439-20.585,12.439c-8.947,0-16.627-5.064-20.576-12.43c-3.952,7.366-11.63,12.43-20.585,12.43
	c-8.949,0-16.627-5.066-20.577-12.432c-3.956,7.366-11.634,12.432-20.585,12.432c-8.949,0-16.634-5.067-20.585-12.437
	c-3.952,7.37-11.63,12.437-20.585,12.437c-8.948,0-16.626-5.066-20.586-12.432c-3.946,7.366-11.628,12.432-20.576,12.432
	c-8.947,0-16.626-5.064-20.584-12.43c-3.948,7.366-11.63,12.43-20.581,12.43c-8.952,0-16.63-5.066-20.582-12.435
	c-3.951,7.369-11.633,12.435-20.585,12.435c-8.947,0-16.625-5.064-20.583-12.43c-3.952,7.366-11.63,12.43-20.582,12.43
	c-8.948,0-16.629-5.064-20.581-12.43c-3.951,7.366-11.629,12.43-20.577,12.43c-8.951,0-16.634-5.064-20.585-12.43
	c-3.063,5.714-8.384,10.01-14.8,11.663V806.89H2204.771z"/>
</svg>
