<?xml version="1.0" encoding="utf-8"?>
<!-- Generator: Adobe Illustrator 15.0.0, SVG Export Plug-In . SVG Version: 6.00 Build 0)  -->
<!DOCTYPE svg PUBLIC "-//W3C//DTD SVG 1.1//EN" "http://www.w3.org/Graphics/SVG/1.1/DTD/svg11.dtd">
<svg version="1.1" id="Layer_1" xmlns="http://www.w3.org/2000/svg" xmlns:xlink="http://www.w3.org/1999/xlink" x="0px" y="0px"
	 width="595.28px" height="841.89px" viewBox="0 0 595.28 841.89" enable-background="new 0 0 595.28 841.89" xml:space="preserve">
<path fill="#2a556b" d="M275.6,453.609v-13.144c0.731,0,3.002-0.037,4.015-0.037c3.998,0,5.314,2.084,5.314,4.355
	c0,2.348-1.823,4.412-4.864,4.412c-0.279,0-0.996,0-1.463-0.058v4.471H275.6z M278.602,443.284v3.002
	c0.428,0.057,0.939,0.094,1.37,0.094c0.788,0,1.766-0.336,1.766-1.613c0-1.165-0.749-1.521-1.822-1.521
	C279.522,443.245,279.224,443.263,278.602,443.284"/>
<path fill="#2a556b" d="M293.187,440.241c4.002,0,6.985,2.609,6.985,6.797c0,3.979-2.983,6.795-6.985,6.795
	c-3.997,0-6.983-2.608-6.983-6.795C286.204,443.226,289.001,440.241,293.187,440.241 M293.187,451.018
	c2.497,0,3.795-1.766,3.795-3.979c0-2.405-1.672-3.981-3.795-3.981c-2.177,0-3.789,1.576-3.789,3.981
	C289.397,449.289,291.088,451.018,293.187,451.018"/>
<path fill="#2a556b" d="M302.615,453.609v-13.144c0.729,0,4.087-0.037,4.467-0.037c3.582,0,4.859,1.785,4.859,4.204
	c0,2.441-1.501,3.438-2.218,3.795l3.829,5.182h-3.635l-3.196-4.601h-1.104v4.601H302.615z M305.618,443.284v2.909h1.084
	c1.149,0,2.05-0.416,2.05-1.521c0-0.731-0.377-1.428-1.823-1.428C306.479,443.245,306.235,443.263,305.618,443.284"/>
<polygon fill="#2a556b" points="313.184,440.466 324.066,440.466 324.066,443.284 320.126,443.284 320.126,453.608 317.126,453.608 
	317.126,443.284 313.184,443.284 "/>
<path fill="#2a556b" d="M284.457,462.297c-0.33,0.353-0.999,0.593-1.683,0.593c-1.607,0-2.713-1.074-2.713-2.714
	c0-1.509,0.952-2.713,2.693-2.713c0.683,0,1.255,0.218,1.599,0.534l-0.412,0.685c-0.316-0.211-0.665-0.353-1.187-0.353
	c-0.979,0-1.715,0.705-1.715,1.847c0,1.1,0.743,1.85,1.816,1.85c0.445,0,0.89-0.142,1.253-0.422L284.457,462.297z"/>
<path fill="#2a556b" d="M287.501,457.463c1.56,0,2.743,1.075,2.743,2.713c0,1.578-1.183,2.714-2.743,2.714
	c-1.563,0-2.736-1.074-2.736-2.714C284.765,458.651,285.885,457.463,287.501,457.463 M287.501,462.025
	c1.104,0,1.765-0.812,1.765-1.85c0-1.089-0.776-1.847-1.765-1.847c-1.008,0-1.758,0.758-1.758,1.847
	C285.743,461.229,286.512,462.025,287.501,462.025"/>
<polygon fill="#2a556b" points="291.309,457.546 292.239,457.546 294.035,460.002 295.749,457.546 296.621,457.546 296.621,462.808 
	295.707,462.808 295.707,459.003 294.042,461.341 293.906,461.341 292.231,459.025 292.231,462.808 291.309,462.808 "/>
<polygon fill="#2a556b" points="298.075,457.546 301.085,457.546 301.085,458.411 298.998,458.411 298.998,459.899 300.857,459.899 
	300.857,460.763 298.998,460.763 298.998,462.808 298.075,462.808 "/>
<path fill="#2a556b" d="M304.521,457.463c1.562,0,2.742,1.075,2.742,2.713c0,1.578-1.18,2.714-2.742,2.714
	c-1.565,0-2.738-1.074-2.738-2.714C301.783,458.651,302.905,457.463,304.521,457.463 M304.521,462.025
	c1.105,0,1.767-0.812,1.767-1.85c0-1.089-0.775-1.847-1.767-1.847c-1.006,0-1.761,0.758-1.761,1.847
	C302.761,461.229,303.534,462.025,304.521,462.025"/>
<path fill="#2a556b" d="M308.331,462.809v-5.263c0.29,0,1.447-0.015,1.6-0.015c1.43,0,1.909,0.714,1.909,1.624
	c0,0.902-0.578,1.354-1.014,1.503l1.645,2.15h-1.124l-1.444-1.97h-0.649v1.97H308.331z M309.253,458.411v1.561h0.604
	c0.531,0,1.005-0.269,1.005-0.809c0-0.414-0.224-0.77-0.979-0.77C309.711,458.394,309.501,458.402,309.253,458.411"/>
<polygon fill="#2a556b" points="312.346,457.546 316.685,457.546 316.685,458.411 314.98,458.411 314.98,462.808 314.053,462.808 
	314.053,458.411 312.346,458.411 "/>
<path fill="#2a556b" d="M303.516,402.79c0-2.972-2.417-5.389-5.395-5.389c-2.969,0-5.391,2.417-5.391,5.389
	c0,2.975,2.422,5.396,5.391,5.396C301.099,408.186,303.516,405.765,303.516,402.79 M295.49,402.79c0-1.448,1.179-2.628,2.631-2.628
	c1.453,0,2.628,1.18,2.628,2.628c0,1.452-1.175,2.631-2.628,2.631C296.669,405.421,295.49,404.242,295.49,402.79"/>
<path fill="#2a556b" d="M311.488,415.351l3.445,3.459c-3.56,3.258-7.327,5.26-11.465,6.091c-1.498,0.299-2.72,0.869-3.691,1.504
	v-5.481h3.482v-3.338h-1.801c2.671-3.999,6.967-11.019,6.967-14.796c0-5.116-3.747-9.361-8.648-10.158v-1.747l4.926-0.008
	l-6.598-11.379l-6.562,11.401l4.922-0.009v1.742c-4.893,0.797-8.648,5.042-8.648,10.158c0,3.777,4.3,10.797,6.967,14.796h-1.847
	v3.338h3.528v5.366c-0.906-0.574-1.989-1.08-3.279-1.345c-4.611-0.962-8.704-3.06-11.953-6.106l3.478-3.488L272,411.967
	l3.428,12.698l3.47-3.48c3.699,3.5,8.37,5.908,13.613,7.003c2.76,0.569,4.29,2.875,4.298,2.891l1.422,2.225l1.396-2.249
	c0.057-0.095,1.451-2.298,4.494-2.901c4.789-0.966,9.109-3.262,13.161-6.995l3.493,3.507l3.423-12.698L311.488,415.351z
	 M296.328,388.132l1.788-3.114l1.801,3.106L296.328,388.132z M298.12,395.799c3.859,0,6.991,3.137,6.991,6.991
	c0,2.686-3.862,9.235-6.991,13.822c-3.124-4.587-6.993-11.136-6.993-13.822C291.127,398.936,294.264,395.799,298.12,395.799
	 M276.848,419.331l-0.934-3.465l3.464,0.921L276.848,419.331z M319.349,419.331l-2.529-2.544l3.468-0.921L319.349,419.331z"/>
</svg>
